<?xml version="1.0" standalone="no"?>
<!DOCTYPE svg PUBLIC "-//W3C//DTD SVG 1.1//EN" "http://www.w3.org/Graphics/SVG/1.1/DTD/svg11.dtd" >
<svg xmlns="http://www.w3.org/2000/svg" xmlns:xlink="http://www.w3.org/1999/xlink" version="1.1">
<metadata>
Created by FontForge 20170731 at Tue Oct 26 20:07:46 2021
 By Aleksey,,,
Copyright (c) 2021 SEOUL YOUTH MEDIA CENTER SSRO.NET. All rights reserved. Font designed by Ryoo Geon Uk.
</metadata>
<defs>
<font id="establishRetrosans" horiz-adv-x="1000" >
  <font-face 
    font-family="establish Retrosans"
    font-weight="400"
    font-stretch="normal"
    units-per-em="1000"
    panose-1="0 0 5 0 0 0 0 0 0 0"
    ascent="800"
    descent="-200"
    x-height="427"
    cap-height="682"
    bbox="-20 -242 1206 868"
    underline-thickness="50"
    underline-position="-175"
    unicode-range="U+000D-FF5D"
  />
<missing-glyph horiz-adv-x="500" 
d="M410 -200h-317v1000h317v-1000zM333 -131v33h-102l70 47h32v33h-166v-33h70l-70 -47v-33h166zM333 5v113h-166v-113h166zM333 178v113h-100v-56h34v23h33v-47h-100v80h-33v-113h166zM333 313v100h-33v-66h-133v-34h166zM267 370v70h66v33h-166v-33h66v-37h-66v-33h100z
M333 500v34h-66v70h-100v-104h166zM333 630v33h-66v37h66v33h-165v-33h65v-37h-66v-33h166zM200 85h100v-47h-100v47zM200 570h33v-36h-33v36z" />
    <glyph glyph-name=".notdef" horiz-adv-x="500" 
d="M410 -200h-317v1000h317v-1000zM333 -131v33h-102l70 47h32v33h-166v-33h70l-70 -47v-33h166zM333 5v113h-166v-113h166zM333 178v113h-100v-56h34v23h33v-47h-100v80h-33v-113h166zM333 313v100h-33v-66h-133v-34h166zM267 370v70h66v33h-166v-33h66v-37h-66v-33h100z
M333 500v34h-66v70h-100v-104h166zM333 630v33h-66v37h66v33h-165v-33h65v-37h-66v-33h166zM200 85h100v-47h-100v47zM200 570h33v-36h-33v36z" />
    <glyph glyph-name="glyph1" horiz-adv-x="0" 
 />
    <glyph glyph-name="uni000D" unicode="&#xd;" horiz-adv-x="1020" 
 />
    <glyph glyph-name="glyph3" horiz-adv-x="0" 
 />
    <glyph glyph-name="glyph3" horiz-adv-x="0" 
 />
    <glyph glyph-name="space" unicode=" " horiz-adv-x="182" 
 />
    <glyph glyph-name="exclam" unicode="!" horiz-adv-x="330" 
d="M86 41q0 20 20 20h121q20 0 20 -20v-104q0 -20 -20 -20h-121q-20 0 -20 20v104zM81 682q-1 14 8 23t23 9h109q14 0 23 -9t8 -23l-21 -542q0 -20 -20 -20h-89q-20 0 -20 20z" />
    <glyph glyph-name="quotedbl" unicode="&#x22;" horiz-adv-x="400" 
d="M77 727h106l-37 -198h-69v198zM216 727h106l-37 -198h-69v198z" />
    <glyph glyph-name="numbersign" unicode="#" horiz-adv-x="900" 
d="M238 693q1 7 6.5 11.5t13.5 4.5h83q11 0 17 -7t4 -18l-22 -141h120l21 149q2 17 19 17h83q10 0 17 -7t5 -17l-20 -142h124q8 0 14 -6t6 -14v-66q0 -8 -6 -14t-14 -6h-139l-31 -220h133q8 0 14 -6t6 -14v-66q0 -8 -6 -14t-14 -6h-148l-25 -176q-2 -17 -19 -17h-83
q-10 0 -17 7t-5 17l24 169h-126l-28 -177q-1 -7 -6.5 -11.5t-13.5 -4.5h-83q-11 0 -17 7.5t-4 17.5l26 168h-116q-8 0 -14 6t-6 14v66q0 8 6 14t14 6h133l34 220h-130q-8 0 -14 6t-6 14v66q0 8 6 14t14 6h147zM414 217l31 220h-122l-34 -220h125z" />
    <glyph glyph-name="dollar" unicode="$" horiz-adv-x="750" 
d="M524 534q0 26 -17.5 43.5t-43.5 17.5h-56v-263l228 -45q31 -6 49.5 -28.5t18.5 -54.5v-148q0 -54 -34 -88t-88 -34h-174v-91h-80v91h-174q-54 0 -88 34t-34 88v163h177v-152q0 -26 17.5 -43.5t43.5 -17.5h58v262l-218 45q-35 8 -56.5 35.5t-21.5 64.5v132q0 54 34 88
t88 34h174v91h80v-91h169q54 0 88 -34t34 -88v-138h-174v127zM218 400q0 -14 8 -24t22 -13l79 -16v248h-48q-26 0 -43.5 -17.5t-17.5 -43.5v-134zM458 6q26 0 43.5 17.5t17.5 43.5v130q0 14 -8.5 24.5t-22.5 13.5l-81 17v-246h51z" />
    <glyph glyph-name="percent" unicode="%" horiz-adv-x="900" 
d="M597 697q7 10 18 10h108q20 0 29 -16t-2 -33l-464 -737q-7 -10 -18 -10h-109q-20 0 -29 16t2 33zM42 691q0 17 12 29t29 12h236q17 0 29 -12t12 -29v-270q0 -17 -12 -29t-29 -12h-236q-17 0 -29 12t-12 29v270zM178 437q0 -6 4.5 -10.5t10.5 -4.5h17q6 0 10.5 4.5
t4.5 10.5v238q0 6 -4.5 10.5t-10.5 4.5h-17q-6 0 -10.5 -4.5t-4.5 -10.5v-238zM535 219q0 17 12 29t29 12h236q17 0 29 -12t12 -29v-270q0 -17 -12 -29t-29 -12h-236q-17 0 -29 12t-12 29v270zM671 -35q0 -6 4.5 -10.5t10.5 -4.5h17q6 0 10.5 4.5t4.5 10.5v238
q0 6 -4.5 10.5t-10.5 4.5h-17q-6 0 -10.5 -4.5t-4.5 -10.5v-238z" />
    <glyph glyph-name="ampersand" unicode="&#x26;" horiz-adv-x="850" 
d="M817 225l-144 -151l197 -149h-207l-65 52l-29 -31q-20 -21 -49 -21h-368q-54 0 -88 34t-34 88v86q0 22 11 39.5t32 26.5l155 67l-147 109q-14 11 -20 24.5t-6 29.5v121q0 54 34 88t88 34h490v-327l-222 -96l145 -113l81 89h146zM212 46q0 -22 14.5 -36.5t36.5 -14.5h205
l46 47l-193 153l-83 -34q-12 -5 -19 -16t-7 -25v-74zM265 417q0 -21 17 -34l75 -61l128 57v204h-169q-22 0 -36.5 -14.5t-14.5 -36.5v-115z" />
    <glyph glyph-name="quotesingle" unicode="'" horiz-adv-x="200" 
d="M40 529q-7 0 -12 4.5t-4 12.5l12 187q2 14 15 14h110q8 0 13.5 -6t3.5 -15l-49 -186q-3 -11 -14 -11h-75v0z" />
    <glyph glyph-name="parenleft" unicode="(" horiz-adv-x="450" 
d="M390 712q-83 -94 -125 -199.5t-42 -212.5t42 -212.5t125 -199.5h-163q-74 90 -111.5 193t-37.5 210.5t37.5 215t111.5 205.5h163v0z" />
    <glyph glyph-name="parenright" unicode=")" horiz-adv-x="450" 
d="M239 712q74 -98 111 -205.5t37 -215t-37 -210.5t-111 -193h-163q83 94 124.5 199.5t41.5 212.5t-41.5 212.5t-124.5 199.5h163v0z" />
    <glyph glyph-name="asterisk" unicode="*" horiz-adv-x="424" 
d="M354 651q12 0 21 -8.5t9 -21.5v-7q0 -13 -9 -21.5t-21 -8.5h-84l42 -72q6 -11 3 -23t-14 -19l-6 -3q-11 -6 -23 -3t-18 14l-42 72l-42 -72q-6 -11 -18 -14t-23 3l-6 3q-11 7 -14 19t3 23l42 72h-84q-12 0 -21 8.5t-9 21.5v7q0 13 9 21.5t21 8.5h84l-42 72q-6 11 -3 23
t14 19l6 3q11 6 23 3t18 -14l42 -72l42 72q6 11 18 14t23 -3l6 -3q11 -7 14 -19t-3 -23l-42 -72h84v0z" />
    <glyph glyph-name="plus" unicode="+" horiz-adv-x="600" 
d="M253 583q0 10 10 10h74q10 0 10 -10v-208h197q10 0 10 -10v-65q0 -10 -10 -10h-197v-238q0 -10 -10 -10h-74q-10 0 -10 10v238h-200q-10 0 -10 10v65q0 10 10 10h200v208v0z" />
    <glyph glyph-name="comma" unicode="," horiz-adv-x="250" 
d="M65 67q2 9 6 14.5t14 5.5h119q10 0 17 -5.5t3 -14.5l-75 -173l-7.5 -15t-12.5 -5h-93q-10 0 -16.5 5t-3.5 15l49 173v0z" />
    <glyph glyph-name="hyphen" unicode="-" horiz-adv-x="600" 
d="M50 289q0 24 24 24h435q24 0 24 -24v-33q0 -24 -24 -24h-435q-24 0 -24 24v33v0z" />
    <glyph glyph-name="period" unicode="." horiz-adv-x="332" 
d="M51 54q0 20 20 20h121q20 0 20 -20v-109q0 -20 -20 -20h-121q-20 0 -20 20v109v0z" />
    <glyph glyph-name="slash" unicode="/" horiz-adv-x="600" 
d="M342 754q3 17 19 17h83q10 0 17 -7t5 -17l-214 -913q-3 -17 -19 -17h-83q-10 0 -17 7t-5 17l214 913v0z" />
    <glyph glyph-name="zero" unicode="0" horiz-adv-x="695" 
d="M310 617q-49 0 -80.5 -31.5t-31.5 -80.5v-413q0 -31 14 -57l190 580q-5 1 -19 1.5t-18 0.5h-55zM24 495q0 98 51 149t149 51h226q98 0 149 -50.5t51 -149.5v-393q0 -98 -51 -149t-149 -51h-226q-98 0 -149 51t-51 149v393zM268 -18q3 0 8.5 -0.5t12 -1t12.5 -0.5h9h55
q49 0 80.5 31.5t31.5 80.5v413q0 33 -19 58z" />
    <glyph glyph-name="one" unicode="1" horiz-adv-x="514" 
d="M376 -2h98v-80h-464v80h181v604h-148v80h333v-684z" />
    <glyph glyph-name="two" unicode="2" horiz-adv-x="726" 
d="M492 492q0 51 -32 81.5t-80 30.5h-33q-49 0 -80.5 -31.5t-31.5 -80.5v-36h-185v26q0 98 51 149t149 51h226q98 0 149 -50.5t51 -149.5v-61q0 -51 -19 -85t-49.5 -56t-70 -36t-80 -24.5t-80 -20.5t-70 -26t-49.5 -40.5t-19 -63.5v-80h449v-78h-634v120q0 59 19 99.5
t49.5 68.5t70 46t80.5 31t80.5 23.5t70 24t49.5 32t19 47.5v89v0z" />
    <glyph glyph-name="three" unicode="3" horiz-adv-x="726" 
d="M492 502q0 51 -31.5 81.5t-80.5 30.5h-33q-49 0 -80.5 -31.5t-31.5 -80.5v-36h-185v26q0 98 51 149t149 51h226q98 0 149 -50.5t51 -149.5v-34q0 -44 -19 -87t-56 -72q32 -20 53.5 -53t21.5 -86v-63q0 -33 -12.5 -66t-38 -59.5t-63 -42.5t-86.5 -16h-226q-98 0 -149 51
t-51 149v32h185v-42q0 -49 31.5 -80.5t80.5 -31.5h33q24 0 44.5 8t35.5 22t23.5 34t8.5 43v58q0 49 -31.5 73t-80.5 24h-73v83h73q49 0 80.5 31.5t31.5 80.5v54v0z" />
    <glyph glyph-name="four" unicode="4" horiz-adv-x="740" 
d="M614 525v-387h89v-90h-89v-129h-185v129l-394 -1v90l94 468q8 41 34 59t66 18l388 1v-79h-291q-14 0 -23 -6.5t-11 -20.5l-71 -440l208 1v387h185z" />
    <glyph glyph-name="five" unicode="5" horiz-adv-x="726" 
d="M676 92q0 -33 -13 -65.5t-38.5 -58t-62.5 -41.5t-86 -16h-226q-98 0 -149 41t-51 139v22h185v-12q0 -49 31.5 -80.5t80.5 -31.5h33q24 0 44.5 8t35.5 22t23.5 34t8.5 43v129q0 51 -31.5 81.5t-80.5 30.5h-33q-24 0 -45 -8.5t-36 -22t-23.5 -30t-8.5 -31.5v-23h-171
l-13 -1l4 1h-4v460h605v-76h-421v-243q9 15 24.5 26.5t32.5 19t35 11t33 3.5h117q98 0 149 -51.5t51 -156.5v-123v0z" />
    <glyph glyph-name="six" unicode="6" horiz-adv-x="726" 
d="M488 492q0 51 -32 81.5t-80 30.5h-32q-48 0 -80 -30.5t-32 -81.5v-141h216q56 0 101.5 -10.5t78 -33t50.5 -58t18 -86.5v-71q0 -35 -14 -67t-39.5 -57.5t-62.5 -40.5t-82 -15h-252q-45 0 -81.5 15t-62 40.5t-39.5 57.5t-14 67l-1 385v5q0 99 51 149.5t149 50.5h224
q98 0 149 -50.5t51 -149.5v-32h-184v42zM232 102q0 -50 31 -81t81 -31h56q50 0 81 31t31 81v67q0 37 -26 65t-82 28h-172v-160z" />
    <glyph glyph-name="seven" unicode="7" horiz-adv-x="726" 
d="M528 -82h-185l152 688h-244q-28 0 -34 -26l-33 -145h-171l41 170q18 77 100 77h543z" />
    <glyph glyph-name="eight" unicode="8" horiz-adv-x="726" 
d="M675 448q0 -66 -28.5 -105t-64.5 -53q18 -2 37 -13.5t34.5 -30.5t25 -44.5t8.5 -56.5l-1 -53q0 -85 -53 -132.5t-144 -47.5h-252q-91 0 -144 47.5t-53 132.5l-1 53q-1 31 8.5 56.5t25 44.5t34.5 30.5t37 13.5q-36 14 -64.5 53t-28.5 105v34q0 99 51 149.5t149 50.5h224
q98 0 149 -50.5t51 -149.5v-34zM223 87q0 -50 31 -76.5t81 -26.5h56q50 0 81 26.5t31 76.5v64q0 49 -31.5 77.5t-80.5 28.5h-56q-49 0 -80.5 -28.5t-31.5 -77.5v-64zM235 429q0 -50 31 -81t81 -31h32q50 0 81 31t31 81v69q0 51 -32 81.5t-80 30.5h-32q-48 0 -80 -30.5
t-32 -81.5v-69z" />
    <glyph glyph-name="nine" unicode="9" horiz-adv-x="726" 
d="M238 102q0 -51 32 -81.5t80 -30.5h41q48 0 80 30.5t32 81.5v136h-266q-45 0 -81.5 15t-62 40.5t-39 57.5t-14.5 67l-1 47v3l1 44q1 34 14.5 66.5t39 58t62 40.5t81.5 15h252q45 0 80.5 -15.5t60 -41t39 -57.5t17.5 -66l1 -395v-5q0 -99 -51 -149.5t-149 -50.5h-233
q-98 0 -149 50.5t-51 149.5v18h184v-28zM223 426q0 -50 31 -81t81 -31h168v188q0 50 -31 81t-81 31h-56q-50 0 -81 -31t-31 -81v-76z" />
    <glyph glyph-name="colon" unicode=":" horiz-adv-x="400" 
d="M118 141q0 20 20 20h121q20 0 20 -20v-109q0 -20 -20 -20h-121q-20 0 -20 20v109zM118 497q0 20 20 20h121q20 0 20 -20v-109q0 -20 -20 -20h-121q-20 0 -20 20v109z" />
    <glyph glyph-name="semicolon" unicode=";" horiz-adv-x="400" 
d="M127 145q-2 7 3.5 12t12.5 5h107q6 0 10.5 -4.5t4.5 -10.5l9 -184q0 -6 -4.5 -10.5t-10.5 -4.5h-81q-12 0 -15 14zM118 497q0 20 20 20h121q20 0 20 -20v-109q0 -20 -20 -20h-121q-20 0 -20 20v109z" />
    <glyph glyph-name="less" unicode="&#x3c;" horiz-adv-x="600" 
d="M475 623q3 2 7.5 1t6.5 -4l52 -75q6 -9 -3 -15l-292 -177q-14 -8 -14 -22t14 -22l292 -177q9 -6 3 -15l-52 -75q-2 -3 -6.5 -4t-7.5 1l-404 262q-17 11 -17 30t17 30l404 262v0z" />
    <glyph glyph-name="equal" unicode="=" horiz-adv-x="600" 
d="M520 436q10 0 10 -10v-65q0 -10 -10 -10h-449q-10 0 -10 10v65q0 10 10 10h449zM61 261q0 10 10 10h449q10 0 10 -10v-65q0 -10 -10 -10h-449q-10 0 -10 10v65z" />
    <glyph glyph-name="greater" unicode="&#x3e;" horiz-adv-x="600" 
d="M524 361q17 -11 17 -30t-17 -30l-404 -262q-3 -2 -7.5 -1t-6.5 4l-52 75q-6 9 3 15l301 177q14 8 14 22t-14 22l-301 177q-9 6 -3 15l52 75q2 3 6.5 4t7.5 -1l404 -262v0z" />
    <glyph glyph-name="question" unicode="?" horiz-adv-x="650" 
d="M242 31q0 20 20 20h153q20 0 20 -20v-104q0 -20 -20 -20h-153q-20 0 -20 20v104zM45 655q0 26 17.5 43.5t43.5 17.5h445q26 0 43.5 -17.5t17.5 -43.5v-11q0 -13 -1.5 -25t-6.5 -24l-171 -470q-7 -19 -26 -19h-124q-12 0 -19.5 9t-2.5 21l171 486q4 11 -3 19t-18 8h-175
q-8 0 -14 -6t-6 -14v-136h-171v162z" />
    <glyph glyph-name="at" unicode="@" horiz-adv-x="900" 
d="M367 218q0 -20 12.5 -32.5t32.5 -12.5h74q20 0 32.5 12.5t12.5 32.5l-1 77h-118q-20 0 -32.5 -12.5t-12.5 -32.5v-32zM51 545q0 51 33.5 84t84.5 33h560q51 0 84 -33t33 -84v-134h-132v94q0 33 -22 55t-55 22h-377q-33 0 -54.5 -22t-21.5 -55v-375q0 -33 21.5 -55
t54.5 -22h380q33 0 54.5 22t21.5 55v165h-60v-84q0 -43 -27.5 -70.5t-71.5 -27.5h-218q-44 0 -71.5 27.5t-27.5 70.5v39q0 43 27.5 71t71.5 28h192v63q0 20 -12.5 32.5t-32.5 12.5h-56q-19 0 -32 -12.5t-13 -32.5v-37h-142v33q0 48 30 78t78 30h198q47 0 77 -30t30 -78v-59
h139q23 0 38.5 -15.5t15.5 -38.5v-205q0 -51 -33.5 -84t-84.5 -33h-562q-51 0 -84.5 33t-33.5 84v455z" />
    <glyph glyph-name="A" unicode="A" horiz-adv-x="870" 
d="M796 -75h-182v276h-304l-79 -276h-181l198 680q22 77 100 77h448v-757zM614 293v313h-164q-26 0 -34 -26l-80 -287h278z" />
    <glyph glyph-name="B" unicode="B" horiz-adv-x="798" 
d="M50 615q0 70 70 70h377q31 0 66.5 -4.5t64.5 -21.5t48.5 -50.5t19.5 -90.5v-86q0 -22 -7 -43.5t-21.5 -39t-35 -30t-47.5 -16.5q36 0 66 -11.5t51.5 -32t33.5 -47.5t12 -58v-83q0 -32 -9.5 -59t-28.5 -47t-47 -31.5t-65 -11.5h-548v693zM478 0q100 0 100 100v35
q0 49 -31.5 80.5t-80.5 31.5h-234v-247h246zM416 331q49 0 80.5 31.5t31.5 80.5v64q0 100 -100 100h-196v-276h184z" />
    <glyph glyph-name="C" unicode="C" horiz-adv-x="826" 
d="M776 121q0 -98 -51 -149t-149 -51h-326q-98 0 -149 51t-51 149v365q0 98 51 149t149 51h322q98 0 149 -51t51 -149v-42h-184v52q0 49 -31.5 80.5t-80.5 31.5h-129q-49 0 -80.5 -31.5t-31.5 -80.5v-385q0 -49 31.5 -80.5t80.5 -31.5h133q49 0 80.5 31.5t31.5 80.5v40h184
v-30v0z" />
    <glyph glyph-name="D" unicode="D" horiz-adv-x="818" 
d="M50 612q0 70 70 70h448q98 0 149 -51t51 -149v-357q0 -98 -51 -149t-149 -51h-518v687zM472 3q49 0 80.5 31.5t31.5 80.5v377q0 49 -31.5 80.5t-80.5 31.5h-240v-601h240z" />
    <glyph glyph-name="E" unicode="E" horiz-adv-x="728" 
d="M50 612q0 70 70 70h556v-90h-444v-256h425v-90h-425v-231h446v-90h-628v687v0z" />
    <glyph glyph-name="F" unicode="F" horiz-adv-x="635" 
d="M50 612q0 70 70 70h485v-90h-373v-256h356v-90h-356v-321h-182v687v0z" />
    <glyph glyph-name="G" unicode="G" horiz-adv-x="826" 
d="M776 121q0 -98 -51 -149t-149 -51h-326q-98 0 -149 51t-51 149v365q0 98 51 149t149 51h326q98 0 149 -51t51 -149v-40h-184v50q0 49 -31.5 80.5t-80.5 31.5h-133q-49 0 -80.5 -31.5t-31.5 -80.5v-385q0 -49 31.5 -80.5t80.5 -31.5h133q49 0 80.5 31.5t31.5 80.5v121
h-200v86h384v-197v0z" />
    <glyph glyph-name="H" unicode="H" horiz-adv-x="810" 
d="M232 682v-330h346v330h182v-757h-182v337h-346v-337h-182v757h182z" />
    <glyph glyph-name="I" unicode="I" horiz-adv-x="664" 
d="M605 592h-182v-577h191v-90h-564v90h191v577h-182v90h546v-90z" />
    <glyph glyph-name="J" unicode="J" horiz-adv-x="694" 
d="M235 123q0 -24 5 -44.5t17.5 -35.5t34 -23.5t55.5 -8.5h1q34 0 55.5 8.5t34 23.5t17.5 35.5t5 44.5v560h184v-562q0 -98 -51 -149t-149 -51h-194q-98 0 -149 51t-51 149v29h185v-27v0z" />
    <glyph glyph-name="K" unicode="K" horiz-adv-x="784" 
d="M226 682v-369l368 359h160l-359 -374l359 -373h-201l-263 278l-64 -63v-215h-176v757h176z" />
    <glyph glyph-name="L" unicode="L" horiz-adv-x="719" 
d="M232 672v-657h437v-90h-619v747h182z" />
    <glyph glyph-name="M" unicode="M" horiz-adv-x="980" 
d="M782 -74l-2 642q0 13 -9 22t-22 9h-29q-13 0 -21 -9t-10 -22l-121 -643h-209l-5 643q0 13 -9 22t-22 9h-33q-13 0 -21 -9t-10 -22l-68 -642h-162l68 674q4 35 25.5 58.5t56.5 23.5h309l-8 -497l64 415q5 35 26 58.5t56 23.5h316l2 -756h-162z" />
    <glyph glyph-name="N" unicode="N" horiz-adv-x="836" 
d="M763 681l-2 -756h-228q-34 0 -59.5 18.5t-36.5 50.5l-191 591h-39l-2 -660h-150l2 654q0 45 28.5 73.5t73.5 28.5h120q34 0 60 -18.5t37 -50.5l196 -604h39l2 673h150z" />
    <glyph glyph-name="O" unicode="O" horiz-adv-x="826" 
d="M347 608q-49 0 -80.5 -31.5t-31.5 -80.5v-385q0 -49 31.5 -80.5t80.5 -31.5h133q49 0 80.5 31.5t31.5 80.5v385q0 49 -31.5 80.5t-80.5 31.5h-133zM50 486q0 98 51 149t149 51h326q98 0 149 -51t51 -149v-365q0 -98 -51 -149t-149 -51h-326q-98 0 -149 51t-51 149v365z
" />
    <glyph glyph-name="P" unicode="P" horiz-adv-x="800" 
d="M577 682q37 0 69 -13t55 -36t36 -55t13 -69v-129q0 -38 -13 -69.5t-36 -54.5t-55 -36t-69 -13h-345v-282h-182v757h527zM470 298q49 0 80.5 31.5t31.5 80.5v82q0 49 -31.5 80.5t-80.5 31.5h-238v-306h238z" />
    <glyph glyph-name="Q" unicode="Q" horiz-adv-x="826" 
d="M347 608q-49 0 -80.5 -31.5t-31.5 -80.5v-385q0 -49 31.5 -80.5t80.5 -31.5h75l-4 13q-8 25 -27 38.5t-44 13.5h-59v86h131q54 0 94 -29t57 -80q22 30 22 70v385q0 49 -31.5 80.5t-80.5 31.5h-133zM50 486q0 98 51 149t149 51h326q98 0 149 -51t51 -149v-365
q0 -91 -43 -141t-127 -58l16 -65h-158l-17 64h-197q-98 0 -149 51t-51 149v365z" />
    <glyph glyph-name="R" unicode="R" horiz-adv-x="809" 
d="M581 682q37 0 69 -13t55 -36t36 -55t13 -69v-117q0 -33 -10 -61t-28 -50.5t-43 -37t-55 -20.5l149 -298h-190l-147 294h-198v-294h-182v757h531zM515 301q31 0 51 20t20 51v161q0 31 -20 51t-51 20h-283v-303h283z" />
    <glyph glyph-name="S" unicode="S" horiz-adv-x="824" 
d="M573 496q0 49 -31.5 80.5t-80.5 31.5h-114q-49 0 -80.5 -31.5t-31.5 -80.5v-55q0 -45 21.5 -73t66.5 -36l354 -58q49 -8 73 -39t24 -81v-33q0 -56 -13 -94t-38.5 -61.5t-62.5 -34t-86 -10.5h-315q-98 0 -149 51t-51 149v31h185v-41q0 -49 31.5 -80.5t80.5 -31.5h122
q49 0 80.5 31.5t31.5 80.5v33q0 24 -17 39t-37 18l-359 58q-58 9 -92.5 47t-34.5 98v82q0 98 51 149t149 51h307q98 0 149 -52t51 -158v-70h-184v90v0z" />
    <glyph glyph-name="T" unicode="T" horiz-adv-x="730" 
d="M705 592h-249v-667h-182v667h-249v90h680v-90z" />
    <glyph glyph-name="U" unicode="U" horiz-adv-x="836" 
d="M786 121q0 -98 -51 -149t-149 -51h-336q-98 0 -149 51t-51 149v561h185v-571q0 -49 31.5 -80.5t80.5 -31.5h143q49 0 80.5 31.5t31.5 80.5v571h184v-561v0z" />
    <glyph glyph-name="V" unicode="V" horiz-adv-x="822" 
d="M204 682l219 -655l219 655h151l-247 -757h-182q-31 0 -54.5 17t-33.5 47l-226 693h154z" />
    <glyph glyph-name="W" unicode="W" horiz-adv-x="990" 
d="M266 21q1 -8 6.5 -13t13.5 -5h8q17 0 19 17l78 649h219l76 -649q1 -8 6.5 -12.5t13.5 -4.5h7q8 0 13.5 5t6.5 13l73 661h156l-71 -681q-4 -36 -28.5 -58t-59.5 -22h-178q-36 0 -61 22.5t-28 59.5l-37 445l-40 -446q-3 -37 -28 -59t-61 -22h-173q-35 0 -59.5 21.5
t-28.5 57.5l-72 682h157l72 -661v0z" />
    <glyph glyph-name="X" unicode="X" horiz-adv-x="786" 
d="M217 682l176 -302l178 302h168l-250 -408l222 -349h-171l-148 252l-160 -252h-165l227 361l-241 396h164z" />
    <glyph glyph-name="Y" unicode="Y" horiz-adv-x="792" 
d="M24 683h171l198 -347l199 347h170l-278 -457v-301h-182v301z" />
    <glyph glyph-name="Z" unicode="Z" horiz-adv-x="774" 
d="M687 682v-98l-442 -569h459v-90h-654v95l441 572h-437v90h633z" />
    <glyph glyph-name="bracketleft" unicode="[" horiz-adv-x="600" 
d="M344 639v-637q0 -40 40 -40h103v-76h-205q-59 0 -89.5 30.5t-30.5 89.5v709h325v-76h-143z" />
    <glyph glyph-name="backslash" unicode="\" horiz-adv-x="600" 
d="M449 -151q2 -10 -5 -17t-17 -7h-83q-16 0 -19 17l-214 905q-2 10 5 17t17 7h83q16 0 19 -17l214 -905v0z" />
    <glyph glyph-name="bracketright" unicode="]" horiz-adv-x="600" 
d="M438 715v-829h-325v76h143v677h-143v76h325z" />
    <glyph glyph-name="asciicircum" unicode="^" horiz-adv-x="550" 
d="M208 759q30 33 60 0l219 -230q2 -3 1 -7.5t-4 -6.5l-90 -79q-8 -6 -15 3l-119 131q-22 25 -44 0l-119 -131q-7 -9 -15 -3l-85 79q-3 2 -4 6.5t1 7.5l214 230v0z" />
    <glyph glyph-name="underscore" unicode="_" horiz-adv-x="700" 
d="M33 -11q0 12 12 12h603q12 0 12 -12v-57q0 -12 -12 -12h-603q-12 0 -12 12v57v0z" />
    <glyph glyph-name="grave" unicode="`" horiz-adv-x="300" 
d="M173 552q-4 -3 -10 -1q-29 10 -51.5 32.5t-36.5 51t-19.5 60.5t-0.5 61q2 11 14 11h111q9 0 13.5 -6.5t2.5 -15.5q-8 -36 -0.5 -72.5t31.5 -63.5q6 -7 5.5 -14.5t-8.5 -12.5l-51 -30v0z" />
    <glyph glyph-name="a" unicode="a" horiz-adv-x="657" 
d="M185 64q0 -26 17.5 -43.5t43.5 -17.5h110q49 0 80.5 22t31.5 79v36h-222q-26 0 -43.5 -17.5t-17.5 -43.5v-15zM30 89q0 49 31.5 80.5t80.5 31.5h326v78q0 35 -23.5 58.5t-58.5 23.5h-99q-35 0 -58.5 -23.5t-23.5 -58.5v-39h-171v77q0 54 34 88t88 34h344q54 0 88 -34
t34 -88v-280q0 -49 -31.5 -80.5t-80.5 -31.5h-368q-49 0 -80.5 31.5t-31.5 80.5v52z" />
    <glyph glyph-name="b" unicode="b" horiz-adv-x="604" 
d="M202 682v-243h246q54 0 88 -34t34 -88v-270q0 -54 -34 -88t-88 -34h-418v757h172zM351 3q26 0 43.5 17.5t17.5 43.5v231q0 26 -17.5 43.5t-43.5 17.5h-149v-353h149z" />
    <glyph glyph-name="c" unicode="c" horiz-adv-x="657" 
d="M621 54q0 -29 -10 -53.5t-27.5 -42t-42 -27.5t-53.5 -10h-326q-29 0 -53.5 10t-42 27.5t-27.5 42t-10 53.5v252q0 29 10 53.5t27.5 42t42 27.5t53.5 10h326q29 0 53.5 -10t42 -27.5t27.5 -42t10 -53.5v-69h-154v53q0 31 -20 51t-51 20h-141q-31 0 -51 -20t-20 -51v-220
q0 -31 20 -51t51 -20h141q31 0 51 20t20 51v21h154v-37v0z" />
    <glyph glyph-name="d" unicode="d" horiz-adv-x="620" 
d="M167 -78q-56 0 -91.5 35.5t-35.5 91.5v263q0 56 35.5 91.5t91.5 35.5h241v243h172v-760h-413zM198 61q0 -26 17.5 -43.5t43.5 -17.5h149v356h-149q-26 0 -43.5 -17.5t-17.5 -43.5v-234z" />
    <glyph glyph-name="e" unicode="e" horiz-adv-x="677" 
d="M632 43q0 -54 -34 -88t-88 -34h-348q-54 0 -88 34t-34 88v275q0 54 34 88t88 34h348q54 0 88 -34t34 -88v-171h-438v-66q0 -35 23.5 -58.5t58.5 -23.5h121q35 0 58.5 23.5t23.5 58.5v20h153v-58zM479 219v61q0 35 -23.5 58.5t-58.5 23.5h-121q-35 0 -58.5 -23.5
t-23.5 -58.5v-61h285z" />
    <glyph glyph-name="f" unicode="f" horiz-adv-x="510" 
d="M164 -75v414h-134v90h134v171q0 35 23.5 58.5t58.5 23.5h242v-90h-121q-13 0 -22 -9t-9 -22v-132h154v-90h-154v-414h-172z" />
    <glyph glyph-name="g" unicode="g" horiz-adv-x="672" 
d="M622 -115q0 -56 -35.5 -91.5t-91.5 -35.5h-315q-56 0 -92 35.5t-36 91.5v44h154v-32q0 -26 17.5 -43.5t43.5 -17.5h122q26 0 43.5 17.5t17.5 43.5v99h-273q-56 0 -91.5 35.5t-35.5 91.5v186q0 56 35.5 91.5t91.5 35.5h445v-551zM208 135q0 -26 17.5 -43.5t43.5 -17.5h181
v279h-181q-26 0 -43.5 -17.5t-17.5 -43.5v-157z" />
    <glyph glyph-name="h" unicode="h" horiz-adv-x="668" 
d="M64 682h172v-247h240q56 0 92 -35.5t36 -91.5v-383h-158v366q0 26 -17.5 43.5t-43.5 17.5h-149v-427h-172v757z" />
    <glyph glyph-name="i" unicode="i" horiz-adv-x="247" 
d="M123 508q-38 0 -61 21.5t-23 62.5q0 40 23 61.5t61 21.5q37 0 60.5 -21.5t23.5 -61.5q0 -41 -23.5 -62.5t-60.5 -21.5zM42 429h162v-504h-162v504z" />
    <glyph glyph-name="j" unicode="j" horiz-adv-x="287" 
d="M-20 -152q31 1 50.5 10t31 24t16 35t4.5 43v469h164v-471q0 -98 -51 -149t-149 -51h-66v90zM75 592q0 40 23 61.5t61 21.5q37 0 60.5 -21.5t23.5 -61.5q0 -41 -23.5 -62.5t-60.5 -21.5q-38 0 -61 21.5t-23 62.5z" />
    <glyph glyph-name="k" unicode="k" horiz-adv-x="554" 
d="M210 682v-467l206 201h139l-214 -227l213 -264h-174l-132 165l-38 -40v-125h-160v757h160z" />
    <glyph glyph-name="l" unicode="l" horiz-adv-x="232" 
d="M50 682h142v-757h-142v757z" />
    <glyph glyph-name="m" unicode="m" horiz-adv-x="847" 
d="M807 -75h-172v425h-63q-19 0 -32.5 -12t-15.5 -31l-48 -382h-151l59 425h-69q-18 0 -31.5 -11t-16.5 -29l-69 -385h-158l79 421q8 40 36 63.5t68 23.5h584v-508z" />
    <glyph glyph-name="n" unicode="n" horiz-adv-x="638" 
d="M431 -75v426l-155 1q-26 0 -42 -17t-20 -44l-46 -366h-158l58 415q6 42 35.5 67.5t71.5 25.5h428v-508h-172z" />
    <glyph glyph-name="o" unicode="o" horiz-adv-x="670" 
d="M261 361q-29 0 -47.5 -18.5t-18.5 -47.5v-230q0 -29 18.5 -47.5t47.5 -18.5h150q29 0 47.5 18.5t18.5 47.5v230q0 29 -18.5 47.5t-47.5 18.5h-150zM40 306q0 29 10 53.5t27.5 42t42 27.5t53.5 10h326q29 0 53.5 -10t42 -27.5t27.5 -42t10 -53.5v-252q0 -29 -10 -53.5
t-27.5 -42t-42 -27.5t-53.5 -10h-326q-29 0 -53.5 10t-42 27.5t-27.5 42t-10 53.5v252z" />
    <glyph glyph-name="p" unicode="p" horiz-adv-x="620" 
d="M463 435q56 0 91.5 -35.5t35.5 -91.5v-185q0 -56 -35.5 -91.5t-91.5 -35.5h-241v-238h-172v677h413zM366 79q29 0 47.5 18.5t18.5 47.5v146q0 29 -18.5 47.5t-47.5 18.5h-144v-278h144z" />
    <glyph glyph-name="q" unicode="q" horiz-adv-x="620" 
d="M398 -242v238h-240q-56 0 -92 35.5t-36 91.5v185q0 56 35.5 91.5t91.5 35.5h413v-677h-172zM188 145q0 -29 18.5 -47.5t47.5 -18.5h144v278h-144q-29 0 -47.5 -18.5t-18.5 -47.5v-146z" />
    <glyph glyph-name="r" unicode="r" horiz-adv-x="450" 
d="M30 434h154v-32q36 27 87 27h160v-77h-156q-40 0 -65 -25t-25 -73v-170h-1v-159h-154v509z" />
    <glyph glyph-name="s" unicode="s" horiz-adv-x="660" 
d="M444 306q0 26 -17.5 43.5t-43.5 17.5h-104q-26 0 -43.5 -17.5t-17.5 -43.5v-32q0 -14 8 -24t22 -13l307 -76q31 -8 49.5 -29.5t18.5 -53.5v-35q0 -54 -34 -88t-88 -34h-348q-54 0 -88 34t-34 88v70h177v-59q0 -26 17.5 -43.5t43.5 -17.5h109q26 0 43.5 17.5t17.5 43.5v17
q0 14 -8.5 24t-22.5 14l-299 78q-35 9 -56.5 36t-21.5 64v30q0 54 34 88t88 34h343q54 0 88 -34t34 -88v-76h-174v65v0z" />
    <glyph glyph-name="t" unicode="t" horiz-adv-x="439" 
d="M412 -79h-170q-54 0 -88 34t-34 88v307h-100v90h100v140h164v-140h135v-90h-135v-278q0 -26 17.5 -43.5t43.5 -17.5h67v-90z" />
    <glyph glyph-name="u" unicode="u" horiz-adv-x="694" 
d="M644 54q0 -29 -10 -53.5t-27.5 -42t-42 -27.5t-53.5 -10h-328q-29 0 -53.5 10t-42 27.5t-27.5 42t-10 53.5v373h185v-346q0 -35 23.5 -58.5t58.5 -23.5h61q35 0 58.5 23.5t23.5 58.5v346h184v-373v0z" />
    <glyph glyph-name="v" unicode="v" horiz-adv-x="578" 
d="M155 435l141 -412l38 -1l141 413h124l-177 -510h-206q-46 0 -62 46l-153 464h154z" />
    <glyph glyph-name="w" unicode="w" horiz-adv-x="847" 
d="M807 -75h-584q-40 0 -68 23.5t-36 63.5l-79 423h158l75 -395q3 -14 13.5 -23t24.5 -9h76l-71 427h151l64 -394q2 -14 12.5 -23.5t25.5 -9.5h66v427h172v-510z" />
    <glyph glyph-name="x" unicode="x" horiz-adv-x="634" 
d="M238 165l-210 270h164l126 -170l126 170h164l-211 -270l217 -240h-174l-123 139l-123 -139h-174z" />
    <glyph glyph-name="y" unicode="y" horiz-adv-x="652" 
d="M612 -109q0 -29 -10 -53.5t-27.5 -42t-42 -27.5t-53.5 -10h-302q-29 0 -53.5 10t-42 27.5t-27.5 42t-10 53.5v38h156v-32q0 -26 17.5 -43.5t43.5 -17.5h118q26 0 43.5 17.5t17.5 43.5v99h-267q-29 0 -53.5 10t-42 27.5t-27.5 42t-10 53.5v299h158l-2 -242v-51
q0 -26 17.5 -43.5t43.5 -17.5h183v354h172v-537v0z" />
    <glyph glyph-name="z" unicode="z" horiz-adv-x="654" 
d="M609 435v-77l-358 -355h363v-78h-569v75l357 357h-358v78h565z" />
    <glyph glyph-name="braceleft" unicode="{" horiz-adv-x="600" 
d="M284 331q-12 -8 -12 -20t11 -20q49 -36 65 -72.5t15 -72.5t-10 -72t-9 -72q0 -40 40 -40h103v-76h-205q-59 0 -89.5 30.5t-30.5 89.5q0 36 9 71.5t10 70.5t-14.5 70.5t-64.5 71.5q-12 9 -12 21t12 20q49 33 64.5 66t14.5 66t-10 66t-9 66q0 59 30.5 89.5t89.5 30.5h205
v-76h-103q-40 0 -40 -40q0 -33 9 -66.5t10 -67.5t-14.5 -67.5t-64.5 -66.5z" />
    <glyph glyph-name="bar" unicode="|" horiz-adv-x="300" 
d="M103 776q0 10 10 10h84q10 0 10 -10v-958q0 -10 -10 -10h-84q-10 0 -10 10v958v0z" />
    <glyph glyph-name="braceright" unicode="}" horiz-adv-x="600" 
d="M274 290q11 9 11 21t-12 20q-49 33 -64.5 66.5t-14.5 67.5t10 67.5t9 66.5q0 40 -40 40h-103v76h205q59 0 89.5 -30.5t30.5 -89.5q0 -33 -9 -66t-10 -66t14.5 -66t64.5 -66q12 -8 12 -20t-12 -21q-49 -36 -64.5 -71.5t-14.5 -70.5t10 -70.5t9 -71.5q0 -59 -30.5 -89.5
t-89.5 -30.5h-205v76h103q40 0 40 40q0 24 -4.5 48l-9 48t-5.5 48t5.5 48t24 48t50.5 48z" />
    <glyph glyph-name="asciitilde" unicode="~" horiz-adv-x="800" 
d="M140 424q12 22 32 33.5t44 11.5h104q36 0 61 -27l147 -157q7 -8 18 -8h15q13 0 22 12l89 141q5 9 15 9h56q12 0 17 -9.5t-1 -19.5l-105 -170q-12 -20 -32 -30.5t-43 -10.5h-88q-38 0 -62 27l-154 170q-9 10 -21 10h-5q-16 0 -23 -13l-106 -186q-5 -8 -14 -8h-62
q-13 0 -17.5 9.5t1.5 20.5l112 195v0z" />
    <glyph glyph-name="uni00A0" unicode="&#xa0;" horiz-adv-x="182" 
 />
    <glyph glyph-name="exclamdown" unicode="&#xa1;" horiz-adv-x="330" 
d="M248 568q0 -20 -20 -20h-121q-20 0 -20 20v104q0 20 20 20h121q20 0 20 -20v-104zM93 459q0 20 20 20h109q20 0 20 -20l22 -542h-193z" />
    <glyph glyph-name="cent" unicode="&#xa2;" horiz-adv-x="750" 
d="M708 64q0 -29 -10 -53.5t-27.5 -42t-42 -27.5t-53.5 -10h-163v-92h-80v92h-163q-29 0 -53.5 10t-42 27.5t-27.5 42t-10 53.5v465q0 29 10 53.5t27.5 42t42 27.5t53.5 10h163v92h80v-92h163q29 0 53.5 -10t42 -27.5t27.5 -42t10 -53.5v-69h-154v53q0 31 -20 51t-51 20h-71
v-575h71q31 0 51 20t20 51v21h154v-37zM191 80q0 -31 20 -51t51 -20h70v575h-70q-31 0 -51 -20t-20 -51v-433z" />
    <glyph glyph-name="sterling" unicode="&#xa3;" horiz-adv-x="750" 
d="M171 93q11 11 13 26t0 29l-13 73h-117v80h101l-49 228q-6 28 3 52.5t28.5 42.5t46 28t55.5 10h336q29 0 53.5 -10t42 -27.5t27.5 -42t10 -53.5v-100h-170v84q0 31 -20 51t-51 20h-108q-15 0 -29.5 -5.5t-25 -15t-15 -22.5t-1.5 -28l47 -212h179v-80h-162l8 -48
q5 -26 1.5 -53.5t-23.5 -46.5l-62 -60h434v-80h-620v80l81 80v0z" />
    <glyph glyph-name="currency" unicode="&#xa4;" horiz-adv-x="600" 
 />
    <glyph glyph-name="yen" unicode="&#xa5;" horiz-adv-x="792" 
d="M692 277h-205v-57h205v-80h-205v-210h-182v210h-205v80h205v57h-205v80h172l-215 315h160l179 -274l179 274h160l-215 -315h172v-80z" />
    <glyph glyph-name="brokenbar" unicode="&#xa6;" horiz-adv-x="300" 
d="M103 776q0 10 10 10h84q10 0 10 -10v-401q0 -10 -10 -10h-84q-10 0 -10 10v401zM103 219q0 10 10 10h84q10 0 10 -10v-401q0 -10 -10 -10h-84q-10 0 -10 10v401z" />
    <glyph glyph-name="dieresis" unicode="&#xa8;" horiz-adv-x="600" 
 />
    <glyph glyph-name="copyright" unicode="&#xa9;" 
d="M750 252q0 -29 -10 -53.5t-27.5 -42t-42 -27.5t-53.5 -10l-217 -1q-29 0 -53 10t-42 28t-28 42t-10 53v132q0 29 10 53.5t28 42t42 27.5t53 10l217 1q29 0 53.5 -10t42 -27.5t27.5 -42t10 -53.5v-39h-144v23q0 31 -20 51.5t-51 19.5l-52 -1q-30 -1 -50.5 -20t-20.5 -51
v-100q0 -30 20.5 -51t50.5 -20l52 1q31 1 51 20.5t20 50.5v11h144v-27zM58 575q0 29 10 53.5t27.5 42t42 27.5t53.5 10h635q29 0 53.5 -10t42 -27.5t27.5 -42t10 -53.5v-515q0 -29 -10 -53.5t-27.5 -42t-42 -27.5t-53.5 -10h-635q-29 0 -53.5 10t-42 27.5t-27.5 42t-10 53.5
v515zM208 82q0 -38 24.5 -62.5t62.5 -24.5h427q38 0 62.5 24.5t24.5 62.5v471q0 38 -24.5 62.5t-62.5 24.5h-427q-38 0 -62.5 -24.5t-24.5 -62.5v-471z" />
    <glyph glyph-name="guillemotleft" unicode="&#xab;" horiz-adv-x="700" 
d="M412 483l-159 -225q-19 -27 -19 -59t19 -59l159 -225h-184l-170 241q-14 20 -14 43t14 43l170 241h184zM303 156q-14 20 -14 43t14 43l170 241h184l-159 -225q-19 -27 -19 -59t19 -59l159 -225h-184z" />
    <glyph glyph-name="logicalnot" unicode="&#xac;" horiz-adv-x="600" 
 />
    <glyph glyph-name="registered" unicode="&#xae;" horiz-adv-x="600" 
d="M297 308q-47 0 -87.5 16.5t-70 45.5t-46.5 69.5t-17 87.5t17 87t46.5 69t70 45.5t87.5 16.5q46 0 86.5 -16.5t70 -45.5t46.5 -69t17 -87t-17 -87.5t-46.5 -69.5t-70 -45.5t-86.5 -16.5zM138 527q0 -34 12 -63t33.5 -50.5t50.5 -33.5t63 -12t63 12t50 33.5t33 50.5t12 63
t-12 63t-33 50t-50 33t-63 12t-63 -12t-50.5 -33t-33.5 -50t-12 -63zM207 617h144q19 0 31 -12t12 -31v-29q0 -17 -7 -28.5t-24 -13.5l26 -58h-65l-25 57h-34v-57h-58v172zM323 536q8 0 13 5t5 13v14q0 8 -5 12.5t-13 4.5h-58v-49h58z" />
    <glyph glyph-name="macron" unicode="&#xaf;" horiz-adv-x="600" 
 />
    <glyph glyph-name="degree" unicode="&#xb0;" horiz-adv-x="250" 
d="M127 576q-29 0 -54 10.5t-43.5 28.5t-29 43t-10.5 54t10.5 54t29 43t43.5 28.5t54 10.5q28 0 53 -10.5t43.5 -28.5t29 -43t10.5 -54t-10.5 -54t-29 -43t-43.5 -28.5t-53 -10.5zM55 712q0 -31 21 -51.5t51 -20.5t50.5 20.5t20.5 51.5t-20.5 51.5t-50.5 20.5t-51 -20.5
t-21 -51.5z" />
    <glyph glyph-name="plusminus" unicode="&#xb1;" horiz-adv-x="600" 
d="M249 583q0 10 10 10h74q10 0 10 -10v-195h208q10 0 10 -10v-65q0 -10 -10 -10h-208v-211q0 -10 -10 -10h-74q-10 0 -10 10v211h-209q-10 0 -10 10v65q0 10 10 10h209v195zM21 0q0 10 10 10h529q10 0 10 -10v-65q0 -10 -10 -10h-529q-10 0 -10 10v65z" />
    <glyph glyph-name="uni00B2" unicode="&#xb2;" horiz-adv-x="410" 
d="M280 740q0 28 -18 41t-45 13h-19q-28 0 -45.5 -13.5t-17.5 -40.5v-21h-116v15q0 55 28.5 84t83.5 29h152q112 0 112 -113v-36q0 -38 -19 -60t-47 -34t-61 -19t-61 -16t-47 -24.5t-19 -44.5v-24h249v-58h-372v60q0 44 19.5 71t48.5 43t63 25t63 17.5t48.5 20t19.5 33.5v52
v0z" />
    <glyph glyph-name="uni00B3" unicode="&#xb3;" horiz-adv-x="428" 
d="M293 740q0 26 -18 40t-46 14h-19q-28 0 -46 -14t-18 -40v-13h-116v8q0 56 29 84.5t84 28.5h152q55 0 84 -28t29 -85v-12q0 -25 -10.5 -49.5t-31.5 -40.5q18 -12 30 -31t12 -49v-36q0 -19 -7.5 -37.5t-21.5 -33.5t-35 -24t-49 -9h-152q-55 0 -84 29t-29 84v19h116v-24
q0 -25 18 -39t46 -14h19q27 0 45.5 13t18.5 37v33q0 28 -18 41.5t-46 13.5h-42v53h42q28 0 46 18t18 46v17v0z" />
    <glyph glyph-name="acute" unicode="&#xb4;" horiz-adv-x="600" 
 />
    <glyph glyph-name="paragraph" unicode="&#xb6;" horiz-adv-x="600" 
d="M533 715v-790h-112v790h112zM29 613q0 45 28.5 73.5t73.5 28.5h225v-790h-112v430h-113q-45 0 -73.5 28.5t-28.5 73.5v156z" />
    <glyph glyph-name="periodcentered" unicode="&#xb7;" horiz-adv-x="300" 
d="M153 219q-37 0 -62.5 25.5t-25.5 62.5t25.5 62.5t62.5 25.5t62.5 -25.5t25.5 -62.5t-25.5 -62.5t-62.5 -25.5z" />
    <glyph glyph-name="cedilla" unicode="&#xb8;" horiz-adv-x="600" 
 />
    <glyph glyph-name="uni00B9" unicode="&#xb9;" horiz-adv-x="280" 
d="M198 472h57v-54h-247v54h82v306h-69v62h177v-368z" />
    <glyph glyph-name="guillemotright" unicode="&#xbb;" horiz-adv-x="700" 
d="M643 242q14 -20 14 -43t-14 -43l-170 -241h-184l159 225q19 27 19 59t-19 59l-159 225h184zM203 140q19 27 19 59t-19 59l-159 225h184l170 -241q14 -20 14 -43t-14 -43l-170 -241h-184z" />
    <glyph glyph-name="questiondown" unicode="&#xbf;" horiz-adv-x="600" 
d="M385 550q0 -20 -20 -20h-121q-20 0 -20 20v104q0 20 20 20h121q20 0 20 -20v-104zM47 -11q0 13 1.5 25t6.5 24l171 418q7 19 26 19h92q12 0 19.5 -9t2.5 -21l-171 -415q-5 -11 2.5 -19t18.5 -8h167q8 0 14 6t6 14v77h141v-122q0 -26 -17.5 -43.5t-43.5 -17.5h-375
q-26 0 -43.5 17.5t-17.5 43.5v11z" />
    <glyph glyph-name="multiply" unicode="&#xd7;" horiz-adv-x="600" 
d="M134 103q-7 -7 -14 0l-52 52q-7 7 0 14l166 165l-169 169q-7 7 0 14l52 52q7 7 14 0l169 -169l166 165q8 8 14 0l52 -52q8 -6 0 -14l-166 -165l169 -169q7 -7 0 -14l-52 -52q-7 -7 -14 0l-169 169l-166 -165v0z" />
    <glyph glyph-name="divide" unicode="&#xf7;" horiz-adv-x="600" 
d="M530 371q10 0 10 -10v-65q0 -10 -10 -10h-469q-10 0 -10 10v65q0 10 10 10h469zM243 186q0 8 6 14t14 6h65q8 0 14 -6t6 -14v-65q0 -8 -6 -14t-14 -6h-65q-8 0 -14 6t-6 14v65zM243 530q0 8 6 14t14 6h65q8 0 14 -6t6 -14v-65q0 -8 -6 -14t-14 -6h-65q-8 0 -14 6t-6 14
v65z" />
    <glyph glyph-name="circumflex" unicode="&#x2c6;" horiz-adv-x="600" 
 />
    <glyph glyph-name="caron" unicode="&#x2c7;" horiz-adv-x="600" 
 />
    <glyph glyph-name="breve" unicode="&#x2d8;" horiz-adv-x="600" 
 />
    <glyph glyph-name="dotaccent" unicode="&#x2d9;" horiz-adv-x="600" 
 />
    <glyph glyph-name="ring" unicode="&#x2da;" horiz-adv-x="600" 
 />
    <glyph glyph-name="ogonek" unicode="&#x2db;" horiz-adv-x="600" 
 />
    <glyph glyph-name="tilde" unicode="&#x2dc;" horiz-adv-x="600" 
 />
    <glyph glyph-name="hungarumlaut" unicode="&#x2dd;" horiz-adv-x="600" 
 />
    <glyph glyph-name="endash" unicode="&#x2013;" horiz-adv-x="600" 
d="M73 329q0 24 24 24h435q24 0 24 -24v-33q0 -24 -24 -24h-435q-24 0 -24 24v33v0z" />
    <glyph glyph-name="emdash" unicode="&#x2014;" horiz-adv-x="900" 
d="M63 329q0 24 24 24h735q24 0 24 -24v-33q0 -24 -24 -24h-735q-24 0 -24 24v33v0z" />
    <glyph glyph-name="quoteleft" unicode="&#x2018;" horiz-adv-x="250" 
d="M57 747h146l-77 -218h-103z" />
    <glyph glyph-name="quoteright" unicode="&#x2019;" horiz-adv-x="250" 
d="M100 529l-77 218h146l34 -218h-103z" />
    <glyph glyph-name="quotesinglbase" unicode="&#x201a;" horiz-adv-x="200" 
d="M37 83h146l-57 -218h-103z" />
    <glyph glyph-name="quotedblleft" unicode="&#x201c;" horiz-adv-x="400" 
d="M78 727h106l-37 -198h-69v198zM217 727h106l-37 -198h-69v198z" />
    <glyph glyph-name="quotedblright" unicode="&#x201d;" horiz-adv-x="400" 
d="M78 727h106l-37 -198h-69v198zM217 727h106l-37 -198h-69v198z" />
    <glyph glyph-name="quotedblbase" unicode="&#x201e;" horiz-adv-x="400" 
d="M78 83h106l-37 -198h-69v198zM217 83h106l-37 -198h-69v198z" />
    <glyph glyph-name="dagger" unicode="&#x2020;" horiz-adv-x="600" 
 />
    <glyph glyph-name="daggerdbl" unicode="&#x2021;" horiz-adv-x="600" 
 />
    <glyph glyph-name="bullet" unicode="&#x2022;" horiz-adv-x="600" 
d="M300 133q-40 0 -75 15t-61.5 41.5t-41.5 61.5t-15 75t15 75t41.5 61t61.5 41.5t75 15.5t75 -15.5t61 -41.5t41.5 -61t15.5 -75t-15.5 -75t-41.5 -61.5t-61 -41.5t-75 -15z" />
    <glyph glyph-name="ellipsis" unicode="&#x2026;" 
d="M155 302q0 16 16 16h98q16 0 16 -16v-88q0 -16 -16 -16h-98q-16 0 -16 16v88zM438 302q0 16 16 16h98q16 0 16 -16v-88q0 -16 -16 -16h-98q-16 0 -16 16v88zM716 302q0 16 16 16h98q16 0 16 -16v-88q0 -16 -16 -16h-98q-16 0 -16 16v88z" />
    <glyph glyph-name="perthousand" unicode="&#x2030;" horiz-adv-x="1240" 
d="M599 701q3 6 11 6h113q20 0 29 -16t-2 -33l-466 -741q-3 -6 -11 -6h-114q-20 0 -29 16t2 33zM40 691q0 17 12 29t29 12h236q17 0 29 -12t12 -29v-270q0 -17 -12 -29t-29 -12h-236q-17 0 -29 12t-12 29v270zM176 437q0 -6 4.5 -10.5t10.5 -4.5h17q6 0 10.5 4.5t4.5 10.5
v238q0 6 -4.5 10.5t-10.5 4.5h-17q-6 0 -10.5 -4.5t-4.5 -10.5v-238zM525 219q0 17 12 29t29 12h236q17 0 29 -12t12 -29v-270q0 -17 -12 -29t-29 -12h-236q-17 0 -29 12t-12 29v270zM661 -35q0 -6 4.5 -10.5t10.5 -4.5h17q6 0 10.5 4.5t4.5 10.5v238q0 6 -4.5 10.5
t-10.5 4.5h-17q-6 0 -10.5 -4.5t-4.5 -10.5v-238zM888 219q0 17 12 29t29 12h236q17 0 29 -12t12 -29v-270q0 -17 -12 -29t-29 -12h-236q-17 0 -29 12t-12 29v270zM1024 -35q0 -6 4.5 -10.5t10.5 -4.5h17q6 0 10.5 4.5t4.5 10.5v238q0 6 -4.5 10.5t-10.5 4.5h-17
q-6 0 -10.5 -4.5t-4.5 -10.5v-238z" />
    <glyph glyph-name="guilsinglleft" unicode="&#x2039;" horiz-adv-x="500" 
d="M443 583l-159 -225q-19 -27 -19 -59t19 -59l159 -225h-184l-170 241q-14 20 -14 43t14 43l170 241h184z" />
    <glyph glyph-name="guilsinglright" unicode="&#x203a;" horiz-adv-x="500" 
d="M423 342q14 -20 14 -43t-14 -43l-170 -241h-184l159 225q19 27 19 59t-19 59l-159 225h184l170 -241v0z" />
    <glyph glyph-name="uni2070" unicode="&#x2070;" horiz-adv-x="432" 
d="M20 740q0 54 28 82t82 28h163q54 0 82.5 -28t28.5 -82v-228q0 -54 -28.5 -82t-82.5 -28h-163q-54 0 -82 28t-28 82v228zM226 445q27 0 44.5 17.5t17.5 44.5v238q0 9 0.5 12.5t-4.5 10.5l-87 -323h29zM208 807q-27 0 -44.5 -17.5t-17.5 -44.5v-238q0 -9 -0.5 -11.5
t3.5 -10.5l88 321l-11 1h-18z" />
    <glyph glyph-name="uni2074" unicode="&#x2074;" horiz-adv-x="430" 
d="M361 756v-219h49v-57h-49v-61h-107v61h-234v56l61 271q10 43 55 43h227v-55h-157q-15 0 -18 -15l-49 -244l115 1v219h107z" />
    <glyph glyph-name="uni2075" unicode="&#x2075;" horiz-adv-x="410" 
d="M387 517q0 -19 -7.5 -37.5t-22 -33.5t-36 -24t-49.5 -9h-144q-57 0 -86 23.5t-29 79.5v13h116v-7q0 -26 17.5 -43.5t43.5 -17.5h19q28 0 46 17t18 41v72q0 29 -17.5 46.5t-46.5 17.5h-19q-13 0 -24 -5t-19.5 -12.5t-13 -16.5t-4.5 -18v-14h-116v264h362v-56h-246v-111
q11 20 31 28t39 8h73q115 0 115 -120v-85v0z" />
    <glyph glyph-name="uni2076" unicode="&#x2076;" horiz-adv-x="420" 
d="M288 741q0 28 -18 46t-45 18h-35q-27 0 -45.5 -18t-18.5 -46v-79h138q64 0 103.5 -29.5t39.5 -93.5v-25q0 -20 -8 -38t-22.5 -32.5t-35.5 -23t-47 -8.5h-167q-26 0 -46.5 8.5t-35 23t-22.5 32.5t-8 38l-1 227v3q0 57 29 85.5t85 28.5h152q55 0 84 -28.5t29 -85.5v-32
h-105v29zM126 523q0 -28 17.5 -46t46.5 -18h46q29 0 46.5 18t17.5 46v28q0 22 -14.5 37.5t-46.5 15.5h-113v-81z" />
    <glyph glyph-name="uni2077" unicode="&#x2077;" horiz-adv-x="391" 
d="M295 418h-118l86 381h-111q-16 0 -19 -14l-19 -79h-111l23 107q5 21 19.5 32t37.5 11h308z" />
    <glyph glyph-name="uni2078" unicode="&#x2078;" horiz-adv-x="428" 
d="M399 720q0 -19 -6 -33.5t-15.5 -26t-20.5 -19t-21 -11.5q10 -1 22.5 -7.5t23 -17t17.5 -25t7 -32.5l-1 -34q-2 -48 -31 -75t-81 -27h-165q-51 0 -80 27t-31 75l-1 34q0 18 7 32.5t17.5 25t22.5 17t23 7.5q-11 4 -22 11.5t-20 19t-15 26t-6 33.5v34q0 56 29 85t84 29h149
q56 0 85 -29t29 -85v-34zM136 523q0 -28 18 -43t46 -15h24q28 0 45.5 15t17.5 43v29q0 24 -17.5 40t-45.5 16h-24q-28 0 -46 -16t-18 -40v-29zM143 720q0 -28 17.5 -45.5t46.5 -17.5h10q28 0 45.5 17.5t17.5 45.5v41q0 21 -18 37.5t-45 16.5h-10q-28 0 -46 -16.5t-18 -37.5
v-41z" />
    <glyph glyph-name="uni2079" unicode="&#x2079;" horiz-adv-x="415" 
d="M125 531q0 -29 18.5 -47t46.5 -18h34q28 0 46.5 18t18.5 47v70h-164q-26 0 -47 9t-35.5 23.5t-22.5 33t-9 38.5l-1 27v2l1 26q1 20 9 38.5t22.5 33t35.5 23.5t47 9h156q26 0 46.5 -9t35 -23.5t22.5 -33.5t10 -38v-232q0 -116 -115 -116h-145q-116 0 -116 116v10h106v-7z
M117 722q0 -29 18 -47t47 -18h107v87q0 29 -18 47t-47 18h-42q-29 0 -47 -18t-18 -47v-22z" />
    <glyph glyph-name="uni2080" unicode="&#x2080;" horiz-adv-x="432" 
d="M20 240q0 54 28 82t82 28h163q54 0 82.5 -28t28.5 -82v-228q0 -54 -28.5 -82t-82.5 -28h-163q-54 0 -82 28t-28 82v228zM226 -55q27 0 44.5 17.5t17.5 44.5v238q0 9 0.5 12.5t-4.5 10.5l-87 -323h29zM208 307q-27 0 -44.5 -17.5t-17.5 -44.5v-238q0 -9 -0.5 -11.5
t3.5 -10.5l88 321l-11 1h-18z" />
    <glyph glyph-name="uni2081" unicode="&#x2081;" horiz-adv-x="280" 
d="M198 -28h57v-54h-247v54h82v306h-69v62h177v-368z" />
    <glyph glyph-name="uni2082" unicode="&#x2082;" horiz-adv-x="410" 
d="M280 240q0 28 -18 41t-45 13h-19q-28 0 -45.5 -13.5t-17.5 -40.5v-21h-116v15q0 55 28.5 84t83.5 29h152q112 0 112 -113v-36q0 -38 -19 -60t-47 -34t-61 -19t-61 -16t-47 -24.5t-19 -44.5v-24h249v-58h-372v60q0 44 19.5 71t48.5 43t63 25t63 17.5t48.5 20t19.5 33.5v52
v0z" />
    <glyph glyph-name="uni2083" unicode="&#x2083;" horiz-adv-x="428" 
d="M293 240q0 26 -18 40t-46 14h-19q-28 0 -46 -14t-18 -40v-13h-116v8q0 56 29 84.5t84 28.5h152q55 0 84 -28t29 -85v-12q0 -25 -10.5 -49.5t-31.5 -40.5q18 -12 30 -31t12 -49v-36q0 -19 -7.5 -37.5t-21.5 -33.5t-35 -24t-49 -9h-152q-55 0 -84 29t-29 84v19h116v-24
q0 -25 18 -39t46 -14h19q27 0 45.5 13t18.5 37v33q0 28 -18 41.5t-46 13.5h-42v53h42q28 0 46 18t18 46v17v0z" />
    <glyph glyph-name="uni2084" unicode="&#x2084;" horiz-adv-x="430" 
d="M361 256v-219h49v-57h-49v-61h-107v61h-234v56l61 271q10 43 55 43h227v-55h-157q-15 0 -18 -15l-49 -244l115 1v219h107z" />
    <glyph glyph-name="uni2085" unicode="&#x2085;" horiz-adv-x="410" 
d="M387 17q0 -19 -7.5 -37.5t-22 -33.5t-36 -24t-49.5 -9h-144q-57 0 -86 23.5t-29 79.5v13h116v-7q0 -26 17.5 -43.5t43.5 -17.5h19q28 0 46 17t18 41v72q0 29 -17.5 46.5t-46.5 17.5h-19q-13 0 -24 -5t-19.5 -12.5t-13 -16.5t-4.5 -18v-14h-116v264h362v-56h-246v-111
q11 20 31 28t39 8h73q115 0 115 -120v-85v0z" />
    <glyph glyph-name="uni2086" unicode="&#x2086;" horiz-adv-x="420" 
d="M288 241q0 28 -18 46t-45 18h-35q-27 0 -45.5 -18t-18.5 -46v-79h138q64 0 103.5 -29.5t39.5 -93.5v-25q0 -20 -8 -38t-22.5 -32.5t-35.5 -23t-47 -8.5h-167q-26 0 -46.5 8.5t-35 23t-22.5 32.5t-8 38l-1 227v3q0 57 29 85.5t85 28.5h152q55 0 84 -28.5t29 -85.5v-32
h-105v29zM126 23q0 -28 17.5 -46t46.5 -18h46q29 0 46.5 18t17.5 46v28q0 22 -14.5 37.5t-46.5 15.5h-113v-81z" />
    <glyph glyph-name="uni2087" unicode="&#x2087;" horiz-adv-x="391" 
d="M295 -82h-118l86 381h-111q-16 0 -19 -14l-19 -79h-111l23 107q5 21 19.5 32t37.5 11h308z" />
    <glyph glyph-name="uni2088" unicode="&#x2088;" horiz-adv-x="428" 
d="M399 220q0 -19 -6 -33.5t-15.5 -26t-20.5 -19t-21 -11.5q10 -1 22.5 -7.5t23 -17t17.5 -25t7 -32.5l-1 -34q-2 -48 -31 -75t-81 -27h-165q-51 0 -80 27t-31 75l-1 34q0 18 7 32.5t17.5 25t22.5 17t23 7.5q-11 4 -22 11.5t-20 19t-15 26t-6 33.5v34q0 56 29 85t84 29h149
q56 0 85 -29t29 -85v-34zM136 23q0 -28 18 -43t46 -15h24q28 0 45.5 15t17.5 43v29q0 24 -17.5 40t-45.5 16h-24q-28 0 -46 -16t-18 -40v-29zM143 220q0 -28 17.5 -45.5t46.5 -17.5h10q28 0 45.5 17.5t17.5 45.5v41q0 21 -18 37.5t-45 16.5h-10q-28 0 -46 -16.5t-18 -37.5
v-41z" />
    <glyph glyph-name="uni2089" unicode="&#x2089;" horiz-adv-x="415" 
d="M125 31q0 -29 18.5 -47t46.5 -18h34q28 0 46.5 18t18.5 47v70h-164q-26 0 -47 9t-35.5 23.5t-22.5 33t-9 38.5l-1 27v2l1 26q1 20 9 38.5t22.5 33t35.5 23.5t47 9h156q26 0 46.5 -9t35 -23.5t22.5 -33.5t10 -38v-232q0 -116 -115 -116h-145q-116 0 -116 116v10h106v-7z
M117 222q0 -29 18 -47t47 -18h107v87q0 29 -18 47t-47 18h-42q-29 0 -47 -18t-18 -47v-22z" />
    <glyph glyph-name="Euro" unicode="&#x20ac;" horiz-adv-x="750" 
d="M708 64q0 -29 -10 -53.5t-27.5 -42t-42 -27.5t-53.5 -10h-336q-29 0 -53.5 10t-42 27.5t-27.5 42t-10 53.5v103h-88v80h88v87h-88v80h88v115q0 29 10 53.5t27.5 42t42 27.5t53.5 10h336q29 0 53.5 -10t42 -27.5t27.5 -42t10 -53.5v-69h-154v53q0 31 -20 51t-51 20h-151
q-31 0 -51 -20t-20 -51v-99h177v-80h-177v-87h177v-80h-177v-87q0 -31 20 -51t51 -20h151q31 0 51 20t20 51v21h154v-37v0z" />
    <glyph glyph-name="trademark" unicode="&#x2122;" horiz-adv-x="730" 
d="M705 592h-249v-667h-182v667h-249v90h680v-90z" />
    <glyph glyph-name="arrowleft" unicode="&#x2190;" horiz-adv-x="600" 
 />
    <glyph glyph-name="arrowup" unicode="&#x2191;" horiz-adv-x="600" 
 />
    <glyph glyph-name="arrowright" unicode="&#x2192;" horiz-adv-x="600" 
 />
    <glyph glyph-name="arrowdown" unicode="&#x2193;" horiz-adv-x="600" 
 />
    <glyph glyph-name="arrowboth" unicode="&#x2194;" horiz-adv-x="600" 
 />
    <glyph glyph-name="arrowupdn" unicode="&#x2195;" horiz-adv-x="600" 
 />
    <glyph glyph-name="uni2196" unicode="&#x2196;" horiz-adv-x="600" 
 />
    <glyph glyph-name="uni2197" unicode="&#x2197;" horiz-adv-x="600" 
 />
    <glyph glyph-name="uni2198" unicode="&#x2198;" horiz-adv-x="600" 
 />
    <glyph glyph-name="uni2199" unicode="&#x2199;" horiz-adv-x="600" 
 />
    <glyph glyph-name="partialdiff" unicode="&#x2202;" horiz-adv-x="600" 
 />
    <glyph glyph-name="product" unicode="&#x220f;" horiz-adv-x="900" 
d="M51 657h768v-77h-118v-632h-185v632h-163v-632h-185v632h-117v77z" />
    <glyph glyph-name="summation" unicode="&#x2211;" horiz-adv-x="600" 
d="M51 585v67h489v-77h-304l147 -261q15 -27 13 -56.5t-21 -54.5l-139 -178h304v-77h-489v63q0 7 2.5 13.5t6.5 11.5l156 201q14 19 3 40l-163 289q-5 10 -5 19z" />
    <glyph glyph-name="minus" unicode="&#x2212;" horiz-adv-x="600" 
d="M531 368q10 0 10 -10v-65q0 -10 -10 -10h-471q-10 0 -10 10v65q0 10 10 10h471v0z" />
    <glyph glyph-name="radical" unicode="&#x221a;" horiz-adv-x="800" 
d="M770 630h-57q-6 0 -11 -3.5t-7 -9.5l-182 -658q-6 -22 -23 -35t-40 -13h-236q-22 0 -38.5 12t-23.5 34l-111 358h164l96 -314q2 -6 7 -9.5t11 -3.5h26q6 0 11 3.5t7 9.5l183 666q5 18 20 29t34 11h170v-77z" />
    <glyph glyph-name="infinity" unicode="&#x221e;" horiz-adv-x="900" 
 />
    <glyph glyph-name="integral" unicode="&#x222b;" horiz-adv-x="700" 
d="M643 580h-117q-6 0 -11 -3.5t-7 -9.5l-164 -586q-5 -18 -20 -29t-34 -11h-235v77h123q6 0 11 3.5t7 9.5l163 586q5 18 20 29t34 11h230v-77z" />
    <glyph glyph-name="approxequal" unicode="&#x2248;" horiz-adv-x="800" 
d="M168 554q12 22 32 33.5t44 11.5h104q17 0 35 -5t26 -22l77 -157q2 -5 7.5 -6.5t10.5 -1.5h15q13 0 22 12l89 141q5 9 15 9h56q12 0 17 -9.5t-1 -19.5l-105 -170q-12 -20 -32 -30.5t-43 -10.5h-88q-18 0 -36 5t-26 22l-85 170q-3 5 -9 7.5t-11 2.5h-5q-16 0 -23 -13
l-106 -186q-5 -8 -14 -8h-62q-13 0 -17.5 9.5t1.5 20.5zM168 288q12 22 32 33.5t44 11.5h104q17 0 35 -5t26 -22l77 -157q2 -5 7.5 -6.5t10.5 -1.5h15q13 0 22 12l89 141q5 9 15 9h56q12 0 17 -9.5t-1 -19.5l-105 -170q-12 -20 -32 -30.5t-43 -10.5h-88q-18 0 -36 5t-26 22
l-84 168q-3 6 -9.5 9t-11.5 3h-5q-16 0 -23 -13l-106 -186q-5 -8 -14 -8h-62q-13 0 -17.5 9.5t1.5 20.5z" />
    <glyph glyph-name="notequal" unicode="&#x2260;" horiz-adv-x="600" 
d="M450 546q8 10 21 10.5t22 -7.5l7 -6q9 -8 10 -21t-7 -23l-53 -63h68q10 0 10 -10v-65q0 -10 -10 -10h-139l-67 -80h206q10 0 10 -10v-65q0 -10 -10 -10h-278l-92 -110q-8 -10 -20.5 -12t-23.5 6l-8 6q-12 9 -12 21t8 22l56 67h-79q-10 0 -10 10v65q0 10 10 10h150l68 80
h-218q-10 0 -10 10v65q0 10 10 10h289l92 110v0z" />
    <glyph glyph-name="lessequal" unicode="&#x2264;" horiz-adv-x="600" 
d="M473 603q3 2 7.5 1t6.5 -4l52 -75q7 -11 -3 -15l-301 -147q-14 -7 -14 -22t14 -22l301 -147q10 -4 3 -15l-52 -75q-2 -3 -6.5 -4t-7.5 1l-404 232q-18 11 -18 30t18 30zM21 0q0 10 10 10h529q10 0 10 -10v-65q0 -10 -10 -10h-529q-10 0 -10 10v65z" />
    <glyph glyph-name="greaterequal" unicode="&#x2265;" horiz-adv-x="600" 
d="M524 371q18 -11 18 -30t-18 -30l-404 -232q-3 -2 -7.5 -1t-6.5 4l-52 75q-7 11 3 15l301 147q14 7 14 22t-14 22l-301 147q-10 4 -3 15l52 75q2 3 6.5 4t7.5 -1zM21 0q0 10 10 10h529q10 0 10 -10v-65q0 -10 -10 -10h-529q-10 0 -10 10v65z" />
    <glyph glyph-name="uni3001" unicode="&#x3001;" 
d="M599 17q7 -12 3 -24.5t-15 -20.5l-44 -34q-14 -11 -26.5 -5.5t-19.5 21.5q-18 44 -64.5 82.5t-113.5 63.5l65 65q27 -4 58 -18.5t61 -35t55.5 -45.5t40.5 -49z" />
    <glyph glyph-name="uni3002" unicode="&#x3002;" 
d="M493 -95q-31 0 -58.5 12t-48 32.5t-32.5 48t-12 58.5t12 58t32.5 47.5t48 32.5t58.5 12t58 -12t47.5 -32.5t32.5 -47.5t12 -58t-12 -58.5t-32.5 -48t-47.5 -32.5t-58 -12zM417 56q0 -32 22 -54.5t54 -22.5t53.5 22.5t21.5 54.5t-21.5 54t-53.5 22t-54 -22t-22 -54z" />
    <glyph glyph-name="uni3003" unicode="&#x3003;" horiz-adv-x="600" 
d="M272 531l-70 -280h-98l45 280h123zM357 531h123l-70 -280h-102z" />
    <glyph glyph-name="uni3008" unicode="&#x3008;" horiz-adv-x="400" 
d="M390 715l-160 -348q-17 -37 -18 -77.5t15 -77.5l139 -326h-163l-138 322q-17 40 -16 82t19 81l159 344h163z" />
    <glyph glyph-name="uni3009" unicode="&#x3009;" horiz-adv-x="400" 
d="M341 371q18 -39 19 -81t-16 -82l-138 -322h-163l139 326q16 37 15 77.5t-18 77.5l-160 348h163l159 -344v0z" />
    <glyph glyph-name="uni300A" unicode="&#x300a;" horiz-adv-x="600" 
 />
    <glyph glyph-name="uni300B" unicode="&#x300b;" horiz-adv-x="600" 
 />
    <glyph glyph-name="uni300C" unicode="&#x300c;" horiz-adv-x="600" 
d="M71 654q0 54 34 88t88 34h303v-75h-229q-13 0 -22 -9t-9 -22v-206h-165v190v0z" />
    <glyph glyph-name="uni300D" unicode="&#x300d;" horiz-adv-x="600" 
d="M529 8q0 -54 -34 -88t-88 -34h-303v75h229q13 0 22 9t9 22v206h165v-190v0z" />
    <glyph glyph-name="uni300E" unicode="&#x300e;" horiz-adv-x="600" 
 />
    <glyph glyph-name="uni300F" unicode="&#x300f;" horiz-adv-x="600" 
 />
    <glyph glyph-name="uni3010" unicode="&#x3010;" horiz-adv-x="600" 
d="M143 715h389q-54 0 -102 -32.5t-83.5 -89t-56 -132t-20.5 -160.5q0 -86 20.5 -161.5t56 -132t83.5 -89t102 -32.5h-389v829z" />
    <glyph glyph-name="uni3011" unicode="&#x3011;" horiz-adv-x="600" 
d="M143 -114q54 0 102 32.5t83.5 89t56 132t20.5 161.5q0 85 -20.5 160.5t-56 132t-83.5 89t-102 32.5h389v-829h-389v0z" />
    <glyph glyph-name="uni3014" unicode="&#x3014;" horiz-adv-x="600" 
d="M295 66q0 -15 9 -27t23 -17l143 -48l-32 -98l-245 73q-37 11 -58.5 40.5t-21.5 67.5v495q0 38 21.5 67.5t58.5 40.5l245 73l31 -98l-142 -46q-32 -11 -32 -44v-479v0z" />
    <glyph glyph-name="uni3015" unicode="&#x3015;" horiz-adv-x="600" 
d="M288 545q0 33 -32 44l-142 46l31 98l245 -73q37 -11 58.5 -40.5t21.5 -67.5v-495q0 -38 -21.5 -67.5t-58.5 -40.5l-245 -73l-32 98l143 48q14 5 23 17t9 27v479v0z" />
    <glyph glyph-name="uni3016" unicode="&#x3016;" horiz-adv-x="600" 
 />
    <glyph glyph-name="uni3017" unicode="&#x3017;" horiz-adv-x="600" 
 />
    <glyph glyph-name="uni301C" unicode="&#x301c;" horiz-adv-x="800" 
d="M168 440q13 23 36.5 34.5t49.5 11.5h64q23 0 41 -10t36 -26l142 -126q14 -12 29.5 -12t26.5 17l79 118q5 9 15 9h36q12 0 17 -9.5t-1 -19.5l-95 -159q-15 -25 -38.5 -38.5t-52.5 -13.5h-57q-23 0 -41 9.5t-36 26.5l-144 141q-14 13 -29.5 12.5t-24.5 -15.5l-101 -166
q-5 -8 -14 -8h-33q-13 0 -17.5 9.5t1.5 20.5l111 194v0z" />
    <glyph glyph-name="uni3131" unicode="&#x3131;" 
d="M632 59v440h-480v71h672v-511h-192z" />
    <glyph glyph-name="uni3132" unicode="&#x3132;" 
d="M706 59v438h-168v71h360v-509h-192zM97 568h385v-509h-192v438h-193v71z" />
    <glyph glyph-name="uni3133" unicode="&#x3133;" 
d="M275 61v435h-188v77h352v-512h-164zM538 488q5 39 32 63.5t66 24.5h265v-515h-139v441h-40q-20 0 -33.5 -12t-15.5 -32l-52 -397h-139z" />
    <glyph glyph-name="uni3134" unicode="&#x3134;" 
d="M347 560v-425h496v-76h-618q-60 0 -60 60v441h182z" />
    <glyph glyph-name="uni3135" unicode="&#x3135;" 
d="M951 502h-50v-443h-139v440h-30q-20 0 -33.5 -12t-15.5 -32l-52 -396h-139l56 426q1 5 1.5 9t2.5 8h-92v71h491v-71zM95 565h182v-430h169v-76h-291q-60 0 -60 60v446z" />
    <glyph glyph-name="uni3136" unicode="&#x3136;" 
d="M297 570v-435h183v-76h-305q-60 0 -60 60v451h182zM493 572h134v43h138v-43h134v-70h-406v70zM503 362q0 55 30 83.5t82 28.5h163q49 0 80.5 -31.5t31.5 -80.5v-196q0 -49 -31.5 -80.5t-80.5 -31.5h-163q-49 0 -80.5 31.5t-31.5 80.5v196zM655 158q0 -13 9 -22t22 -9h21
q13 0 22 9t9 22v212q0 13 -9 22t-22 9h-21q-13 0 -22 -9t-9 -22v-212z" />
    <glyph glyph-name="uni3137" unicode="&#x3137;" 
d="M804 568v-76h-445v-357h452v-76h-574q-60 0 -60 60v449h627z" />
    <glyph glyph-name="uni3138" unicode="&#x3138;" 
d="M449 565v-76h-133v-354h140v-76h-262q-60 0 -60 60v446h315zM502 565h319v-76h-137v-354h138v-76h-260q-60 0 -60 60v446z" />
    <glyph glyph-name="uni3139" unicode="&#x3139;" 
d="M581 360v133h-403v76h585v-282h-398v-150h408v-78h-500q-44 0 -67 24.5t-23 68.5v208h398z" />
    <glyph glyph-name="uni313A" unicode="&#x313a;" 
d="M297 360v133h-208v76h379v-72l1 -210h-203v-150h213v-78h-295q-44 0 -67 24.5t-23 68.5v208h203zM516 570h342v-511h-184v440h-158v71z" />
    <glyph glyph-name="uni313B" unicode="&#x313b;" 
d="M308 360v133h-209v76h370v-72l1 -210h-204v-150h207v-78h-279q-44 0 -67 24.5t-23 68.5v208h204zM516 570h358v-510h-358v510zM722 131v368h-54v-368h54z" />
    <glyph glyph-name="uni313C" unicode="&#x313c;" 
d="M282 370v143h-193v76h354v-72l1 -220h-188v-170h191v-78h-263q-44 0 -67 24.5t-23 68.5v228h188zM494 591h147v-139h76v139h147v-541h-370v541zM717 121v254h-76v-254h76z" />
    <glyph glyph-name="uni313D" unicode="&#x313d;" 
d="M300 360v133h-191v76h342v-72l1 -210h-186v-150h216l46 346q5 39 32 63.5t66 24.5h248v-512h-133v438h-35q-20 0 -33.5 -12t-15.5 -32l-52 -394h-401q-44 0 -67 24.5t-23 68.5v208h186z" />
    <glyph glyph-name="uni313E" unicode="&#x313e;" 
d="M309 360v133h-200v76h371v-72l1 -210h-195v-150h205v-78h-287q-44 0 -67 24.5t-23 68.5v208h195zM538 570h340v-71h-166v-139h166v-71h-166v-159h166v-71h-340v511z" />
    <glyph glyph-name="uni313F" unicode="&#x313f;" 
d="M275 360v133h-186v76h357v-72l1 -210h-181v-150h181v-78h-263q-44 0 -67 24.5t-23 68.5v208h181zM477 569h401v-76h-240l21 -189l54 137h153l-28 -306h37v-76h-395v76h240l20 216l-64 -164h-122l-33 306h-44v76z" />
    <glyph glyph-name="uni3140" unicode="&#x3140;" 
d="M282 360v133h-193v76h364v-72l1 -210h-188v-150h198v-78h-280q-44 0 -67 24.5t-23 68.5v208h188zM494 570h131v43h128v-43h130v-70h-389v70zM504 358q0 55 30 83.5t82 28.5h146q49 0 80.5 -31.5t31.5 -80.5v-192q0 -49 -31.5 -80.5t-80.5 -31.5h-146q-49 0 -80.5 31.5
t-31.5 80.5v192zM650 158q0 -13 9 -22t22 -9h16q13 0 22 9t9 22v208q0 13 -9 22t-22 9h-16q-13 0 -22 -9t-9 -22v-208z" />
    <glyph glyph-name="uni3141" unicode="&#x3141;" 
d="M800 572v-516h-502q-59 0 -89.5 30.5t-30.5 89.5v396h622zM360 172q0 -40 40 -40h218v364h-258v-324z" />
    <glyph glyph-name="uni3142" unicode="&#x3142;" 
d="M799 571v-512h-501q-59 0 -89.5 31t-30.5 94v387h182v-160h257v160h182zM360 178q0 -40 40 -40h217v196h-257v-156z" />
    <glyph glyph-name="uni3143" unicode="&#x3143;" 
d="M458 571v-512h-242q-59 0 -89.5 31t-30.5 94v387h142v-160h78v160h142zM238 178q0 -40 40 -40h38v196h-78v-156zM514 571h142v-160h78v160h142v-512h-362v512zM734 138v196h-78v-196h78z" />
    <glyph glyph-name="uni3144" unicode="&#x3144;" 
d="M901 61h-139v441h-26q-20 0 -33.5 -12t-15.5 -32l-41 -397h-139l45 427q4 39 31.5 63.5t66.5 24.5h251v-515zM110 571h142v-160h78v160h142v-512h-242q-59 0 -89.5 31t-30.5 94v387zM252 178q0 -40 40 -40h38v196h-78v-156z" />
    <glyph glyph-name="uni3145" unicode="&#x3145;" 
d="M806 64h-180v432h-144q-26 0 -45.5 -15t-27.5 -41l-106 -376h-183l121 416q12 42 43.5 66t74.5 24h447v-506z" />
    <glyph glyph-name="uni3146" unicode="&#x3146;" 
d="M854 67h-180v431h-47q-20 0 -34 -13.5t-16 -33.5l-26 -384h-183l39 431h-58q-20 0 -33.5 -12.5t-15.5 -32.5l-40 -386h-183l49 401q6 47 38 75.5t79 28.5h611v-505z" />
    <glyph glyph-name="uni3147" unicode="&#x3147;" 
d="M443 500q-40 0 -66 -26t-26 -66v-174q0 -40 26 -66t66 -26h114q40 0 66 26t26 66v174q0 40 -26 66t-66 26h-114zM164 430q0 31 11 57t30 45t45 30t57 11h386q31 0 57 -11t45 -30t30 -45t11 -57v-218q0 -31 -11 -57t-30 -45t-45 -30t-57 -11h-386q-31 0 -57 11t-45 30
t-30 45t-11 57v218z" />
    <glyph glyph-name="uni3148" unicode="&#x3148;" 
d="M869 499h-63v-435h-180v432h-144q-26 0 -45.5 -15t-27.5 -41l-116 -376h-183l131 416q3 12 7 19h-129v71h750v-71z" />
    <glyph glyph-name="uni3149" unicode="&#x3149;" 
d="M929 573v-71h-45v-435h-170v431h-37q-20 0 -33.5 -13.5t-16.5 -33.5l-56 -384h-173l65 431h-44q-20 0 -32 -12.5t-17 -32.5l-100 -386h-173l109 401q5 20 12 34h-101v71h812z" />
    <glyph glyph-name="uni314A" unicode="&#x314a;" 
d="M869 479h-63v-415h-180v412h-144q-26 0 -45.5 -15t-27.5 -41l-116 -356h-183l131 396q2 5 4 9.5t4 9.5h-130v71h311v63h128v-63h311v-71z" />
    <glyph glyph-name="uni314B" unicode="&#x314b;" 
d="M586 59v208h-384v75h384v157h-420v71h612v-511h-192z" />
    <glyph glyph-name="uni314C" unicode="&#x314c;" 
d="M777 570v-71h-404v-140h394v-75h-394v-154h404v-71h-578v511h578z" />
    <glyph glyph-name="uni314D" unicode="&#x314d;" 
d="M798 569v-76h-403l37 -250l136 194h196l-45 -302h76v-76h-622v76h394l34 227l-120 -171h-193l-45 302h-73v76h628z" />
    <glyph glyph-name="uni314E" unicode="&#x314e;" 
d="M436 570v43h128v-43h237v-70h-601v70h236zM201 351q0 55 30 83.5t82 28.5h376q49 0 80.5 -31.5t31.5 -80.5v-180q0 -49 -31.5 -80.5t-80.5 -31.5h-376q-49 0 -80.5 31.5t-31.5 80.5v180zM387 163q0 -13 9 -22t22 -9h166q13 0 22 9t9 22v196q0 13 -9 22t-22 9h-166
q-13 0 -22 -9t-9 -22v-196z" />
    <glyph glyph-name="uni314F" unicode="&#x314f;" horiz-adv-x="800" 
d="M468 682v-302h106v-81h-106v-381h-182v764h182z" />
    <glyph glyph-name="uni3150" unicode="&#x3150;" horiz-adv-x="800" 
d="M363 682v-312h64v312h173v-764h-173v371h-64v-371h-164v764h164z" />
    <glyph glyph-name="uni3151" unicode="&#x3151;" horiz-adv-x="800" 
d="M464 682v-202h113v-81h-113v-140h113v-81h-113v-260h-182v764h182z" />
    <glyph glyph-name="uni3152" unicode="&#x3152;" horiz-adv-x="800" 
d="M358 682v-195h74v195h173v-764h-173v251h-74v-251h-164v764h164zM432 250v156h-74v-156h74z" />
    <glyph glyph-name="uni3153" unicode="&#x3153;" horiz-adv-x="800" 
d="M546 682v-764h-182v362h-157v98h157v304h182z" />
    <glyph glyph-name="uni3154" unicode="&#x3154;" horiz-adv-x="800" 
d="M417 681v-756h-181v348h-129v97h129v311h181zM480 682h187v-764h-187v764z" />
    <glyph glyph-name="uni3155" unicode="&#x3155;" horiz-adv-x="800" 
d="M562 682v-764h-182v235h-169v96h169v133h-169v96h169v204h182z" />
    <glyph glyph-name="uni3156" unicode="&#x3156;" horiz-adv-x="800" 
d="M417 681v-756h-181v225h-113v97h113v140h-129v97h129v197h181zM480 682h187v-764h-187v764z" />
    <glyph glyph-name="uni3157" unicode="&#x3157;" 
d="M593 201h380v-76h-946v76h380v335h186v-335z" />
    <glyph glyph-name="uni3158" unicode="&#x3158;" 
d="M440 462v-261h204v-76l-592 1v76h204v260h184zM707 682h182v-259h104v-81h-104v-357h-182v697z" />
    <glyph glyph-name="uni3159" unicode="&#x3159;" 
d="M736 682v-265h66v265h168v-702h-168v346h-66v-346h-159v702h159zM52 201h156v264h168v-264h155v-76h-479v76z" />
    <glyph glyph-name="uni315A" unicode="&#x315a;" 
d="M469 485v-284h232v-76l-649 1v76h233v283h184zM757 682h182v-703h-182v703z" />
    <glyph glyph-name="uni315B" unicode="&#x315b;" 
d="M731 450v-249h226v-76h-914v76h217v249h174v-249h123v249h174z" />
    <glyph glyph-name="uni315C" unicode="&#x315c;" 
d="M941 323v-77h-348v-328h-186v328h-348v77h882z" />
    <glyph glyph-name="uni315D" unicode="&#x315d;" 
d="M710 324v-77h-228v-329h-186v329h-228v77h642zM591 193h178v489h182v-764h-182v187h-178v88z" />
    <glyph glyph-name="uni315E" unicode="&#x315e;" 
d="M550 324v-77h-153v-329h-186v329h-143v77h482zM450 193h138v489h159v-764h-159v184h-138v91zM802 682h168v-764h-168v764z" />
    <glyph glyph-name="uni315F" unicode="&#x315f;" 
d="M700 324v-77h-213v-329h-186v329h-233v77h632zM757 682h182v-764h-182v764z" />
    <glyph glyph-name="uni3160" unicode="&#x3160;" 
d="M954 323v-76h-158v-329h-190v329h-178l-99 -331h-190l99 331h-192v76h908z" />
    <glyph glyph-name="uni3161" unicode="&#x3161;" 
d="M966 201v-76h-914v76h914z" />
    <glyph glyph-name="uni3162" unicode="&#x3162;" 
d="M951 682v-712h-182v712h182zM62 201h653v-76h-653v76z" />
    <glyph glyph-name="uni3163" unicode="&#x3163;" horiz-adv-x="800" 
d="M488 682v-764h-182v764h182z" />
    <glyph glyph-name="uniAC00" unicode="&#xac00;" 
d="M883 682v-302h106v-81h-106v-381h-182v764h182zM33 672h502q70 0 70 -70v-677h-192v676h-380v71z" />
    <glyph glyph-name="uniAC01" unicode="&#xac01;" 
d="M445 215v386h-387v71h508q31 0 51 -20t20 -51v-386h-192zM101 168h791v-250h-186v173h-605v77zM707 682h182v-205h104v-81h-104v-181h-182v467z" />
    <glyph glyph-name="uniAC04" unicode="&#xac04;" 
d="M444 112v489h-386v71h507q31 0 51 -20t20 -51v-489h-192zM101 182h182v-188h620v-76h-742q-60 0 -60 60v204zM707 682h182v-230h104v-81h-104v-263h-182v574z" />
    <glyph glyph-name="uniAC07" unicode="&#xac07;" 
d="M455 242v359h-397v71h518q31 0 51 -20t20 -51v-359h-192zM95 195h796v-76h-614v-125h616v-76h-738q-60 0 -60 60v217zM707 682h182v-180h104v-81h-104v-179h-182v440z" />
    <glyph glyph-name="uniAC08" unicode="&#xac08;" 
d="M455 286v315h-397v71h518q31 0 51 -20t20 -51v-315h-192zM95 120h614v50h-614v74h796v-195h-614v-52h616v-79h-738q-60 0 -60 60v142zM707 682h182v-154h104v-81h-104v-161h-182v396z" />
    <glyph glyph-name="uniAC09" unicode="&#xac09;" 
d="M323 115v48h-228v71h399v-185h-228v-58h238v-73h-349q-60 0 -60 60v137h228zM58 672h508q31 0 51 -20t20 -51v-322h-192v322h-387v71zM535 232h360v-308h-180v231h-180v77zM707 682h182v-168h104v-81h-104v-154h-182v403z" />
    <glyph glyph-name="uniAC0A" unicode="&#xac0a;" 
d="M445 276v325h-387v71h508q31 0 51 -20t20 -51v-325h-192zM95 114h217v47h-217v71h388v-184h-217v-57h220v-73h-331q-60 0 -60 60v136zM535 234h359v-312h-359v312zM746 -7v170h-63v-170h63zM707 682h182v-170h104v-81h-104v-155h-182v406z" />
    <glyph glyph-name="uniAC0B" unicode="&#xac0b;" 
d="M445 276v325h-387v71h508q31 0 51 -20t20 -51v-325h-192zM95 114h214v47h-214v71h385v-184h-214v-57h217v-73h-328q-60 0 -60 60v136zM532 235h142v-70h78v70h142v-313h-362v313zM752 -7v101h-78v-101h78zM707 682h182v-168h104v-81h-104v-157h-182v406z" />
    <glyph glyph-name="uniAC10" unicode="&#xac10;" 
d="M449 257v344h-391v71h516q31 0 51 -20t20 -51v-344h-196zM96 210h793v-292h-673q-59 0 -89.5 31t-30.5 94v167zM278 37q0 -40 40 -40h389v137h-429v-97zM707 682h182v-176h104v-81h-104v-168h-182v425z" />
    <glyph glyph-name="uniAC11" unicode="&#xac11;" 
d="M447 263v338h-389v71h510q31 0 51 -20t20 -51v-338h-192zM96 220h182v-64h429v64h182v-302h-673q-59 0 -89.5 31t-30.5 94v177zM278 37q0 -40 40 -40h389v82h-429v-42zM707 682h182v-156h104v-81h-104v-182h-182v419z" />
    <glyph glyph-name="uniAC12" unicode="&#xac12;" 
d="M450 276v325h-392v71h513q31 0 51 -20t20 -51v-325h-192zM101 235h142v-70h90v70h142v-317h-374v317zM333 -11v105h-90v-105h90zM556 156q15 79 98 79h236v-317h-140v246h-40q-19 0 -22 -18l-42 -228h-134zM707 682h182v-175h104v-81h-104v-150h-182v406z" />
    <glyph glyph-name="uniAC13" unicode="&#xac13;" 
d="M889 -82h-180v178h-321q-29 0 -48.5 -12.5t-33.5 -39.5l-67 -126h-183l77 148q27 52 65.5 78t98.5 26h592v-252zM58 672h508q31 0 51 -20t20 -51v-384h-192v384h-387v71zM707 682h182v-173h104v-81h-104v-211h-182v465z" />
    <glyph glyph-name="uniAC14" unicode="&#xac14;" 
d="M889 -82h-180v178h-61q-44 0 -56 -42l-40 -136h-173l62 178h-61q-29 0 -48.5 -13t-33.5 -39l-64 -126h-183l74 148q26 52 65 78t99 26h600v-252zM58 672h508q31 0 51 -20t20 -51v-387h-192v387h-387v71zM707 682h182v-173h104v-81h-104v-214h-182v468z" />
    <glyph glyph-name="uniAC15" unicode="&#xac15;" 
d="M333 119q-60 0 -60 -60v-12q0 -60 60 -60h350q60 0 60 60v12q0 60 -60 60h-350zM58 672h513q31 0 51 -20t20 -51v-367h-192v367h-392v71zM79 53q0 69 41 104.5t119 35.5h539q78 0 119 -35.5t41 -104.5t-41 -104.5t-119 -35.5h-539q-78 0 -119 35.5t-41 104.5zM707 682
h182v-183h104v-81h-104v-184h-182v448z" />
    <glyph glyph-name="uniAC16" unicode="&#xac16;" 
d="M898 107h-51v-189h-180v189h-218q-29 0 -47 -13.5t-35 -38.5l-94 -137h-187l104 159q10 16 21 30h-148v74h835v-74zM58 672h520q31 0 51 -20t20 -51l6 -375h-192l-6 375h-399v71zM707 682h182v-176h104v-81h-104v-199h-182v456z" />
    <glyph glyph-name="uniAC17" unicode="&#xac17;" 
d="M917 97h-60v-179h-180v179h-204q-29 0 -46 -13t-36 -39l-94 -127h-187l104 149l22 30h-148v74h355v57h182v-57h292v-74zM58 672h518q31 0 51 -20t20 -51v-315h-192v315h-397v71zM707 682h182v-188h104v-81h-104v-194h-182v463z" />
    <glyph glyph-name="uniAC19" unicode="&#xac19;" 
d="M889 228v-72h-618v-40h615v-76h-615v-44h620v-78h-742q-60 0 -60 60v250h800zM58 672h508q31 0 51 -20t20 -51v-331h-192v331h-387v71zM707 682h182v-183h104v-81h-104v-148h-182v412z" />
    <glyph glyph-name="uniAC1A" unicode="&#xac1a;" 
d="M593 -11l14 88l-122 -55h-191q-22 0 -36.5 8.5t-19.5 22.5l-33 99h-112v71h799v-71h-491l32 -92l118 59h196q26 0 36.5 -10.5t8.5 -23.5l-11 -96h111v-71h-799v71h500zM58 672h513q31 0 51 -20t20 -51v-336h-192v336h-392v71zM707 682h182v-173h104v-81h-104v-163h-182
v417z" />
    <glyph glyph-name="uniAC1B" unicode="&#xac1b;" 
d="M452 333v268h-394v71h515q31 0 51 -20t20 -51v-268h-192zM65 230h332v57h182v-57h315v-76h-829v76zM70 15q0 44 28.5 72.5t73.5 28.5h616q45 0 73.5 -28.5t28.5 -72.5q0 -45 -28.5 -73.5t-73.5 -28.5h-616q-45 0 -73.5 28.5t-28.5 73.5zM261 10q0 -8 6 -14t14 -6h398
q8 0 14 6t6 14v9q0 8 -6 14t-14 6h-398q-8 0 -14 -6t-6 -14v-9zM707 682h182v-173h104v-81h-104v-143h-182v397z" />
    <glyph glyph-name="uniAC1C" unicode="&#xac1c;" 
d="M733 682v-312h64v312h173v-764h-173v371h-64v-371h-164v764h164zM58 672h372q70 0 70 -70v-677h-178v676h-264v71z" />
    <glyph glyph-name="uniAC1D" unicode="&#xac1d;" 
d="M734 682v-175h63v175h173v-463h-173v207h-63v-207h-164v463h164zM58 672h383q31 0 51 -20t20 -51v-382h-192v382h-262v71zM105 168h867v-250h-186v173h-681v77z" />
    <glyph glyph-name="uniAC20" unicode="&#xac20;" 
d="M732 682v-218h65v218h173v-545h-173v246h-65v-246h-164v545h164zM58 672h390q31 0 51 -20t20 -51v-368h-192v368h-269v71zM88 182h182v-188h703v-76h-825q-60 0 -60 60v204z" />
    <glyph glyph-name="uniAC23" unicode="&#xac23;" 
d="M736 682v-175h61v175h173v-445h-173v189h-61v-189h-164v445h164zM58 672h396q31 0 51 -20t20 -51v-364h-192v364h-275v71zM84 187h883v-76h-701v-117h706v-76h-828q-60 0 -60 60v209z" />
    <glyph glyph-name="uniAC24" unicode="&#xac24;" 
d="M737 682v-160h60v160h173v-398h-173v157h-60v-157h-164v398h164zM58 672h392q31 0 51 -20t20 -51v-317h-192v317h-271v71zM83 116h706v46h-706v74h888v-191h-706v-48h708v-79h-830q-60 0 -60 60v138z" />
    <glyph glyph-name="uniAC2C" unicode="&#xac2c;" 
d="M735 682v-165h62v165h173v-421h-173v175h-62v-175h-164v421h164zM58 672h393q31 0 51 -20.5t20 -51.5l-3 -339h-192l4 340h-273v71zM83 204h891v-286h-771q-59 0 -89.5 31t-30.5 94v161zM265 37q0 -40 40 -40h487v131h-527v-91z" />
    <glyph glyph-name="uniAC2D" unicode="&#xac2d;" 
d="M736 682v-168h61v168h173v-426h-173v177h-61v-177h-164v426h164zM58 672h389q31 0 51 -20t20 -51v-345h-192v345h-268v71zM88 212h182v-55h515v55h182v-294h-759q-59 0 -89.5 31t-30.5 94v169zM270 37q0 -40 40 -40h475v83h-515v-43z" />
    <glyph glyph-name="uniAC2F" unicode="&#xac2f;" 
d="M734 682v-191h63v191h173v-456h-173v184h-63v-184h-164v456h164zM58 672h386q31 0 51 -20t20 -51v-375h-192v375h-265v71zM145 66q26 52 65 78t99 26h662v-252h-180v178h-391q-29 0 -48.5 -13t-33.5 -39l-64 -126h-183z" />
    <glyph glyph-name="uniAC30" unicode="&#xac30;" 
d="M737 682v-191h60v191h173v-460h-173v188h-60v-188h-164v460h164zM125 66q26 52 65 78t99 26h679v-252h-180v178h-102q-44 0 -56 -42l-40 -136h-173l62 178h-99q-29 0 -48.5 -13t-33.5 -39l-64 -126h-183zM58 672h386q31 0 51 -20t20 -51v-379h-192v379h-265v71z" />
    <glyph glyph-name="uniAC31" unicode="&#xac31;" 
d="M733 682v-196h54v196h173v-438h-173v161h-54v-161h-164v438h164zM58 672h386q31 0 51 -20t20 -51v-357h-192v357h-265v71zM133 53q0 69 41 104.5t119 35.5h534q78 0 119 -35.5t41 -104.5t-41 -104.5t-119 -35.5h-534q-78 0 -119 35.5t-41 104.5zM327 47q0 -60 60 -60h345
q60 0 60 60v12q0 60 -60 60h-345q-60 0 -60 -60v-12z" />
    <glyph glyph-name="uniAC38" unicode="&#xac38;" 
d="M436 -74l4 675h-382v71h501q31 0 51.5 -20.5t20.5 -51.5l-3 -674h-192zM697 682h182v-189h113v-81h-113v-140h113v-81h-113v-273h-182v764z" />
    <glyph glyph-name="uniAC39" unicode="&#xac39;" 
d="M451 215l4 386h-397v71h518q31 0 51 -20t20 -51v-386h-196zM101 168h791v-250h-186v173h-605v77zM707 682h182v-109h104v-81h-104v-80h104v-81h-104v-116h-182v467z" />
    <glyph glyph-name="uniAC3C" unicode="&#xac3c;" 
d="M454 214v387h-396v71h517q31 0 51 -20t20 -51v-387h-192zM101 182h182v-188h620v-76h-742q-60 0 -60 60v204zM707 682h182v-143h104v-81h-104v-103h104v-81h-104v-166h-182v574z" />
    <glyph glyph-name="uniAC40" unicode="&#xac40;" 
d="M455 291v310h-397v71h518q31 0 51 -20t20 -51v-310h-192zM95 120h614v50h-614v74h796v-195h-614v-52h616v-79h-738q-60 0 -60 60v142zM707 682h182v-83h104v-81h-104v-61h104v-81h-104v-85h-182v391z" />
    <glyph glyph-name="uniAC4B" unicode="&#xac4b;" 
d="M889 -82h-180v178h-321q-29 0 -48.5 -12.5t-33.5 -39.5l-67 -126h-183l77 148q27 52 65.5 78t98.5 26h592v-252zM58 672h518q31 0 51 -20t20 -51v-384h-192v384h-397v71zM707 682h182v-96h104v-81h-104v-80h104v-81h-104v-127h-182v465z" />
    <glyph glyph-name="uniAC4D" unicode="&#xac4d;" 
d="M340 119q-60 0 -60 -60v-12q0 -60 60 -60h340q60 0 60 60v12q0 60 -60 60h-340zM58 672h518q31 0 51 -20t20 -51v-367h-192v367h-397v71zM86 53q0 69 41 104.5t119 35.5h529q78 0 119 -35.5t41 -104.5t-41 -104.5t-119 -35.5h-529q-78 0 -119 35.5t-41 104.5zM707 682
h182v-99h104v-81h-104v-80h104v-81h-104v-107h-182v448z" />
    <glyph glyph-name="uniAC54" unicode="&#xac54;" 
d="M723 682v-195h74v195h173v-764h-173v251h-74v-251h-164v764h164zM58 672h369q31 0 51 -20t20 -51v-683h-192l10 683h-258v71zM797 250v156h-74v-156h74z" />
    <glyph glyph-name="uniAC58" unicode="&#xac58;" 
d="M731 682v-129h66v129h173v-545h-173v131h-66v-131h-164v545h164zM58 672h389q31 0 51 -20t20 -51v-358h-192v358h-268v71zM88 182h182v-188h703v-76h-825q-60 0 -60 60v204zM797 349v123h-66v-123h66z" />
    <glyph glyph-name="uniAC5C" unicode="&#xac5c;" 
d="M734 682v-82h63v82h173v-398h-173v77h-63v-77h-164v398h164zM58 672h379q31 0 51 -20t20 -51v-317h-192v317h-258v71zM83 116h706v46h-706v74h888v-191h-706v-48h708v-79h-830q-60 0 -60 60v138zM797 442v77h-63v-77h63z" />
    <glyph glyph-name="uniAC65" unicode="&#xac65;" 
d="M741 682v-91h56v91h173v-426h-173v80h-56v-80h-164v426h164zM58 672h376q31 0 51 -20t20 -51v-345h-192v345h-255v71zM88 212h182v-55h515v55h182v-294h-759q-59 0 -89.5 31t-30.5 94v169zM270 37q0 -40 40 -40h475v83h-515v-43zM797 417v93h-56v-93h56z" />
    <glyph glyph-name="uniAC70" unicode="&#xac70;" 
d="M951 682v-764h-182v362h-130v-354h-192l5 675h-396v71h513q70 0 70 -70v-224h130v304h182z" />
    <glyph glyph-name="uniAC71" unicode="&#xac71;" 
d="M951 682v-463h-182v165h-77v-165h-192v382h-442v71h563q31 0 51 -20t20 -51v-120h77v201h182zM84 168h867v-250h-186v173h-681v77z" />
    <glyph glyph-name="uniAC74" unicode="&#xac74;" 
d="M951 682v-578h-182v257h-129v-247h-192v487h-390v71h512q70 0 70 -70v-144h129v224h182zM100 174h182v-180h680v-76h-802q-60 0 -60 60v196z" />
    <glyph glyph-name="uniAC77" unicode="&#xac77;" 
d="M951 682v-441h-182v165h-91v-165h-192v360h-428v71h549q31 0 51 -20t20 -51v-98h91v179h182zM92 192h857v-76h-675v-122h677v-76h-799q-60 0 -60 60v214z" />
    <glyph glyph-name="uniAC78" unicode="&#xac78;" 
d="M951 682v-400h-182v135h-89v-135h-192v319h-430v71h551q31 0 51 -20t20 -51v-87h89v168h182zM89 121l678 1v48h-678v74h860v-193l-678 -1v-54l680 1v-79l-802 -1q-60 0 -60 60v144z" />
    <glyph glyph-name="uniAC7A" unicode="&#xac7a;" 
d="M951 682v-400h-182v142h-91v-142h-192v319h-428v71h549q31 0 51 -20t20 -51v-80h91v161h182zM89 121h216v49h-216v74h398v-193l-216 -1v-54l218 1v-79l-340 -1q-60 0 -60 60v144zM549 243l402 1v-326h-402v325zM789 -7v177h-78v-177h78z" />
    <glyph glyph-name="uniAC80" unicode="&#xac80;" 
d="M951 682v-428h-182v166h-99v-166h-192v347h-420v71h541q31 0 51 -20t20 -51v-84h99v165h182zM97 208h854v-290h-734q-59 0 -89.5 31t-30.5 94v165zM279 37q0 -40 40 -40h450v135h-490v-95z" />
    <glyph glyph-name="uniAC81" unicode="&#xac81;" 
d="M951 682v-420h-182v165h-96v-165h-192v339h-423v71h544q31 0 51 -20t20 -51v-77h96v158h182zM100 220h182v-55h487v55h182v-302h-731q-59 0 -89.5 31t-30.5 94v177zM282 37q0 -40 40 -40h447v91h-487v-51z" />
    <glyph glyph-name="uniAC82" unicode="&#xac82;" 
d="M951 682v-409h-182v161h-102v-149h-192v316h-417v71h538q31 0 51 -20t20 -51v-70h102v151h182zM101 235h142v-70h120v70h142v-317h-404v317zM363 -11v105h-120v-105h120zM586 156q15 79 98 79h268v-317h-140v246h-72q-19 0 -22 -18l-42 -228h-134z" />
    <glyph glyph-name="uniAC83" unicode="&#xac83;" 
d="M951 682v-461h-182v176h-101v-176h-192v380h-418v71h539q31 0 51 -20t20 -51v-107h101v188h182zM164 65q27 52 65.5 78t98.5 26h623v-251h-180v177h-348q-29 0 -48.5 -12.5t-33.5 -39.5l-67 -125h-187z" />
    <glyph glyph-name="uniAC84" unicode="&#xac84;" 
d="M951 682v-462h-182v187h-126v-187h-192v381h-393v71h514q31 0 51 -20t20 -51v-97h126v178h182zM125 66q26 52 65 78t99 26h661v-252h-180v178h-92q-44 0 -56 -42l-40 -136h-173l62 178h-91q-29 0 -48.5 -13t-33.5 -39l-64 -126h-183z" />
    <glyph glyph-name="uniAC85" unicode="&#xac85;" 
d="M927 682v-440h-182v167h-101v-167h-192v359h-394v71h515q31 0 51 -20t20 -51v-95h101v176h182zM80 53q0 69 41 104.5t119 35.5h551q78 0 119 -35.5t41 -104.5t-41 -104.5t-119 -35.5h-551q-78 0 -119 35.5t-41 104.5zM265 47q0 -60 60 -60h380q60 0 60 60v12q0 60 -60 60
h-380q-60 0 -60 -60v-12z" />
    <glyph glyph-name="uniAC86" unicode="&#xac86;" 
d="M927 682v-451h-182v173h-105v-173h-192v370h-390v71h511q31 0 51 -20t20 -51v-100h105v181h182zM57 181h885v-74h-64v-189h-180v189h-248q-29 0 -47 -13.5t-35 -38.5l-94 -137h-187l104 159q10 16 21 30h-155v74z" />
    <glyph glyph-name="uniAC89" unicode="&#xac89;" 
d="M951 682v-410h-182v149h-98v-149h-192v329h-421v71h542q31 0 51 -20t20 -51v-83h98v164h182zM89 224h863v-72h-681v-39h678v-76h-678v-41h683v-78h-805q-60 0 -60 60v246z" />
    <glyph glyph-name="uniAC8A" unicode="&#xac8a;" 
d="M927 682v-411h-182v150h-104v-150h-192v330h-391v71h512q31 0 51 -20t20 -51v-83h104v164h182zM100 -11h500l27 93l-119 -54h-191q-22 0 -36.5 8.5t-19.5 22.5l-43 103h-118v71h827v-71h-514l39 -93l112 56h209q26 0 37.5 -10.5t7.5 -23.5l-29 -102h138v-71h-827v71z" />
    <glyph glyph-name="uniAC8B" unicode="&#xac8b;" 
d="M927 682v-403h-182v156h-102v-98h-192v264h-393v71h514q31 0 51 -20t20 -51v-69h102v150h182zM70 15q0 44 28.5 72.5t73.5 28.5h656q45 0 73.5 -28.5t28.5 -72.5q0 -45 -28.5 -73.5t-73.5 -28.5h-656q-45 0 -73.5 28.5t-28.5 73.5zM76 230h321v57h182v-57h344v-76h-847
v76zM261 10q0 -8 6 -14t14 -6h438q8 0 14 6t6 14v9q0 8 -6 14t-14 6h-438q-8 0 -14 -6t-6 -14v-9z" />
    <glyph glyph-name="uniAC8C" unicode="&#xac8c;" 
d="M540 370v311h181v-756h-181v348h-67v-347h-174v674h-268v76h371q31 0 51 -20t20 -51v-235h67zM780 682h187v-764h-187v764z" />
    <glyph glyph-name="uniAC8D" unicode="&#xac8d;" 
d="M740 682v-463h-164v175h-60v-175h-192v382h-266v71h387q31 0 51 -20t20 -51v-110h60v191h164zM85 168h887v-250h-186v173h-701v77zM797 682h173v-463h-173v463z" />
    <glyph glyph-name="uniAC90" unicode="&#xac90;" 
d="M741 682v-575h-164v281h-66v-258h-192v471h-261v71h382q31 0 51 -20t20 -51v-116h66v197h164zM88 182h182v-188h703v-76h-825q-60 0 -60 60v204zM797 682h173v-575h-173v575z" />
    <glyph glyph-name="uniAC94" unicode="&#xac94;" 
d="M744 682v-399h-164v137h-69v-137h-192v318h-261v71h382q31 0 51 -20t20 -51v-84h69v165h164zM83 116h706v46h-706v74h888v-191h-706v-48h708v-79h-830q-60 0 -60 60v138zM797 682h173v-399h-173v399z" />
    <glyph glyph-name="uniAC9C" unicode="&#xac9c;" 
d="M745 682v-427h-164v163h-69v-163h-192v346h-262v71h383q31 0 51 -20t20 -51v-86h69v167h164zM83 204h891v-286h-771q-59 0 -89.5 31t-30.5 94v161zM265 37q0 -40 40 -40h487v131h-527v-91zM797 682h173v-427h-173v427z" />
    <glyph glyph-name="uniAC9D" unicode="&#xac9d;" 
d="M748 682v-426h-164v151h-67v-151h-192v345h-267v71h388q31 0 51 -20t20 -51v-98h67v179h164zM88 212h182v-55h515v55h182v-294h-759q-59 0 -89.5 31t-30.5 94v169zM270 37q0 -40 40 -40h475v83h-515v-43zM797 682h173v-426h-173v426z" />
    <glyph glyph-name="uniAC9F" unicode="&#xac9f;" 
d="M747 682v-456h-164v183h-65v-183h-193v375h-267v71h388q31 0 51 -19.5t20 -51.5l1 -96h65v177h164zM145 66q26 52 65 78t99 26h662v-252h-180v178h-391q-29 0 -48.5 -13t-33.5 -39l-64 -126h-183zM797 682h173v-456h-173v456z" />
    <glyph glyph-name="uniACA0" unicode="&#xaca0;" 
d="M747 682v-460h-164v186h-66v-186h-192v379h-267v71h388q31 0 51 -20t20 -51v-97h66v178h164zM125 66q26 52 65 78t99 26h679v-252h-180v178h-102q-44 0 -56 -42l-40 -136h-173l62 178h-99q-29 0 -48.5 -13t-33.5 -39l-64 -126h-183zM797 682h173v-460h-173v460z" />
    <glyph glyph-name="uniACA1" unicode="&#xaca1;" 
d="M734 682v-438h-164v164h-65v-164h-192v357h-255v71h376q31 0 51 -20t20 -51v-97h65v178h164zM102 53q0 69 41 104.5t119 35.5h563q78 0 119 -35.5t41 -104.5t-41 -104.5t-119 -35.5h-563q-78 0 -119 35.5t-41 104.5zM296 47q0 -60 60 -60h374q60 0 60 60v12q0 60 -60 60
h-374q-60 0 -60 -60v-12zM787 682h173v-438h-173v438z" />
    <glyph glyph-name="uniACA8" unicode="&#xaca8;" 
d="M951 682v-764h-182v235h-116v-227h-192v675h-403v71h524q31 0 51 -20t20 -51v-123h116v204h182zM769 249v133h-116v-133h116z" />
    <glyph glyph-name="uniACA9" unicode="&#xaca9;" 
d="M951 682v-463h-182v82h-116v-82h-192v382h-403v71h524q31 0 51 -20t20 -51v-37h116v118h182zM84 168h867v-250h-186v173h-681v77zM769 386v93h-116v-93h116z" />
    <glyph glyph-name="uniACAA" unicode="&#xacaa;" 
d="M951 682v-463h-182v82h-116v-82h-192v382h-403v71h524q31 0 51 -20t20 -51v-57h116v138h182zM80 168h871v-250h-186v173h-241v-173h-186v173h-258v77zM769 386v73h-116v-73h116z" />
    <glyph glyph-name="uniACAC" unicode="&#xacac;" 
d="M951 682v-543h-182v160h-126v-97h-192v399h-393v71h514q31 0 51 -20t20 -51v-49h126v130h182zM90 160h182v-166h679v-76h-801q-60 0 -60 60v182zM769 384v83h-126v-83h126z" />
    <glyph glyph-name="uniACAF" unicode="&#xacaf;" 
d="M951 682v-441h-182v79h-126v-79h-192v360h-393v71h514q31 0 51 -20t20 -51v-48h126v129h182zM79 192h870v-76h-688v-122h690v-76h-812q-60 0 -60 60v214zM769 405v63h-126v-63h126z" />
    <glyph glyph-name="uniACB0" unicode="&#xacb0;" 
d="M951 682v-400h-182v76h-136v-76h-192v319h-383v71h504q31 0 51 -20t20 -51v-10h136v91h182zM89 121l678 1v48h-678v74h860v-193l-678 -1v-54l680 1v-79l-802 -1q-60 0 -60 60v144zM769 443v63h-136v-63h136z" />
    <glyph glyph-name="uniACB7" unicode="&#xacb7;" 
d="M951 682v-349h-182v42h-126v-38h-192v264h-393v71h514q31 0 51 -20t20 -51v-22h126v103h182zM89 138h250v62h-250v74h402v-206l-250 -1v-71l252 1v-79l-344 -1q-60 0 -60 60v161zM546 263h139v43h128v-43h138v-70h-405v70zM547 55q0 55 30 83.5t82 28.5h179
q49 0 80.5 -31.5t31.5 -80.5v-25q0 -49 -31.5 -80.5t-80.5 -31.5h-179q-49 0 -80.5 31.5t-31.5 80.5v25zM769 456v42h-126v-42h126zM697 22q0 -13 9 -22t22 -9h41q13 0 22 9t9 22v41q0 13 -9 22t-22 9h-41q-13 0 -22 -9t-9 -22v-41z" />
    <glyph glyph-name="uniACB8" unicode="&#xacb8;" 
d="M951 682v-418h-182v73h-96v-73h-192v337h-423v71h544q31 0 51 -20t20 -51v-22h96v103h182zM97 208h854v-290h-734q-59 0 -89.5 31t-30.5 94v165zM279 37q0 -40 40 -40h450v135h-490v-95zM769 422v72h-96v-72h96z" />
    <glyph glyph-name="uniACB9" unicode="&#xacb9;" 
d="M951 682v-406h-182v70h-106v-70h-192v325h-413v71h534q31 0 51 -20t20 -51v-24h106v105h182zM100 220h182v-55h487v55h182v-302h-731q-59 0 -89.5 31t-30.5 94v177zM282 37q0 -40 40 -40h447v91h-487v-51zM769 430v63h-106v-63h106z" />
    <glyph glyph-name="uniACBB" unicode="&#xacbb;" 
d="M951 682v-461h-182v86h-116v-86h-192v380h-403v71h524q31 0 51 -20t20 -51v-48h116v129h182zM164 66q27 52 65.5 78t98.5 26h623v-252h-180v178h-352q-29 0 -48.5 -12.5t-33.5 -39.5l-67 -126h-183zM769 391v78h-116v-78h116z" />
    <glyph glyph-name="uniACBC" unicode="&#xacbc;" 
d="M951 682v-463h-182v95h-116v-95h-192v382h-403v71h524q31 0 51 -20t20 -51v-34h116v115h182zM125 66q26 52 65 78t99 26h661v-252h-180v178h-92q-44 0 -56 -42l-40 -136h-173l62 178h-91q-29 0 -48.5 -13t-33.5 -39l-64 -126h-183zM769 400v81h-116v-81h116z" />
    <glyph glyph-name="uniACBD" unicode="&#xacbd;" 
d="M927 682v-440h-182v73h-116v-73h-192v359h-379v71h500q31 0 51 -20t20 -51v-41h116v122h182zM80 53q0 69 41 104.5t119 35.5h551q78 0 119 -35.5t41 -104.5t-41 -104.5t-119 -35.5h-551q-78 0 -119 35.5t-41 104.5zM265 47q0 -60 60 -60h380q60 0 60 60v12q0 60 -60 60
h-380q-60 0 -60 -60v-12zM745 401v73h-116v-73h116z" />
    <glyph glyph-name="uniACBF" unicode="&#xacbf;" 
d="M927 682v-462h-182v103h-116v-62h-192l7 340h-386v71h500q31 0 51 -20t20 -51v-32h116v113h182zM88 165h355v57h182v-57h312v-74h-60v-173h-180v173h-224q-29 0 -45.5 -13.5t-36.5 -38.5l-94 -121h-187l104 143q6 8 11.5 15.5t11.5 14.5h-149v74zM745 409v74h-116v-74
h116z" />
    <glyph glyph-name="uniACC1" unicode="&#xacc1;" 
d="M927 682v-407h-182v62h-96v-62h-192v326h-399v71h520q31 0 51 -20t20 -51v-33h96v114h182zM95 228h836v-72h-654v-40h651v-76h-651v-44h656v-78h-778q-60 0 -60 60v250zM745 421v63h-96v-63h96z" />
    <glyph glyph-name="uniACC4" unicode="&#xacc4;" 
d="M539 478v203h181v-756h-181v227h-67v-226h-193v674h-248v76h370q31 0 51 -20t20 -51v-127h67zM539 250v130h-67v-130h67zM780 682h187v-764h-187v764z" />
    <glyph glyph-name="uniACC8" unicode="&#xacc8;" 
d="M747 682v-581h-162v187h-77v-156h-198l6 469h-258v71h379q31 0 51 -20t20 -51v-49h77v130h162zM88 182h182v-188h703v-76h-825q-60 0 -60 60v204zM585 376v88h-77v-88h77zM799 682h171v-581h-171v581z" />
    <glyph glyph-name="uniACCC" unicode="&#xaccc;" 
d="M751 682v-398h-161v76h-75v-76h-178v317h-279v71h386q31 0 51 -20t20 -51v-26h75v107h161zM83 116h706v46h-706v74h888v-191h-706v-48h708v-79h-830q-60 0 -60 60v138zM590 441v53h-75v-53h75zM800 682h170v-398h-170v398z" />
    <glyph glyph-name="uniACD5" unicode="&#xacd5;" 
d="M751 682v-426h-161v90h-69v-90h-192v345h-271v71h392q31 0 51 -20t20 -51v-33h69v114h161zM88 212h182v-55h515v55h182v-294h-759q-59 0 -89.5 31t-30.5 94v169zM270 37q0 -40 40 -40h475v83h-515v-43zM590 427v60h-69v-60h69zM800 682h170v-426h-170v426z" />
    <glyph glyph-name="uniACD7" unicode="&#xacd7;" 
d="M749 682v-456h-164v110h-65v-110h-192v375h-270v71h391q31 0 51 -20t20 -51v-37h65v118h164zM145 66q26 52 65 78t99 26h662v-252h-180v178h-391q-29 0 -48.5 -13t-33.5 -39l-64 -126h-183zM585 422v56h-65v-56h65zM797 682h173v-456h-173v456z" />
    <glyph glyph-name="uniACD8" unicode="&#xacd8;" 
d="M749 682v-460h-164v103h-67v-103h-192v379h-268v71h389q31 0 51 -20t20 -51v-40h67v121h164zM125 66q26 52 65 78t99 26h680v-252h-180v178h-103q-44 0 -56 -42l-40 -136h-173l62 178h-99q-29 0 -48.5 -13t-33.5 -39l-64 -126h-183zM585 411v64h-67v-64h67zM797 682h173
v-460h-173v460z" />
    <glyph glyph-name="uniACE0" unicode="&#xace0;" 
d="M719 118v481h-608v77h702q40 0 66 -26t26 -66v-466h-186zM52 5h276v284h186v-284h452v-76h-914v76z" />
    <glyph glyph-name="uniACE1" unicode="&#xace1;" 
d="M719 330v269h-608v77h700q40 0 66 -26t26 -66v-254h-184zM52 292h267v173h186v-173h461v-77h-914v77zM81 170h822v-252h-186v175h-636v77z" />
    <glyph glyph-name="uniACE4" unicode="&#xace4;" 
d="M330 264v179h184v-179h440v-76h-908v76h284zM96 149h182v-155h638v-76h-760q-60 0 -60 60v171zM111 676h700q40 0 66 -26t26 -66v-269h-184v284h-608v77z" />
    <glyph glyph-name="uniACE7" unicode="&#xace7;" 
d="M719 338v261h-608v77h702q40 0 66 -26t26 -66v-246h-186zM52 295h267v160h186v-160h461v-77h-914v77zM92 174l816 1v-76l-634 -1v-105l634 1v-76l-756 -1q-60 0 -60 60v197z" />
    <glyph glyph-name="uniACE8" unicode="&#xace8;" 
d="M719 379v220h-608v77h702q40 0 66 -26t26 -66v-205h-186zM52 338h277v137h186v-137h451v-77h-914v77zM106 223h802v-183h-617v-43h619v-79h-741q-60 0 -60 60v129h617v44h-620v72z" />
    <glyph glyph-name="uniACEA" unicode="&#xacea;" 
d="M332 108v36h-226v72h383v-176h-226v-44h228v-78h-325q-60 0 -60 60v130h226zM52 336h277v147h186v-147h451v-77h-914v77zM111 676h702q40 0 66 -26t26 -66v-209h-186v224h-608v77zM538 220h362v-303h-362v303zM758 -6v149h-78v-149h78z" />
    <glyph glyph-name="uniACEC" unicode="&#xacec;" 
d="M326 105v46h-220v72h377v-186h-220v-41h222v-78h-319q-60 0 -60 60v127h220zM52 343h307v142h186v-142h421v-77h-914v77zM111 676h702q40 0 66 -26t26 -66v-202h-186v217h-608v77zM558 151q15 79 98 79h234v-312h-140v241h-38q-19 0 -22 -18l-42 -223h-134z" />
    <glyph glyph-name="uniACEF" unicode="&#xacef;" 
d="M717 386v213h-606v77h700q40 0 66 -26t26 -66v-198h-186zM52 350h307v135h186v-135h421v-77h-914v77zM106 109h220v42h-220v72h377v-182h-220v-45h222v-78h-319q-60 0 -60 60v131zM524 20q0 40 26 66t66 26h195q40 0 66 -26t26 -66v-10q0 -40 -26 -66t-66 -26h-195
q-40 0 -66 26t-26 66v10zM525 205h125v37h128v-37h124v-69h-377v69zM674 12q0 -11 7 -18t18 -7h29q11 0 18 7t7 18v6q0 11 -7 18t-18 7h-28q-11 0 -18.5 -7t-7.5 -18v-6z" />
    <glyph glyph-name="uniACF0" unicode="&#xacf0;" 
d="M719 340v259h-608v77h702q40 0 66 -26t26 -66v-244h-186zM52 300h277v152h186v-152h451v-77h-914v77zM95 187h810v-269h-690q-59 0 -89.5 30t-30.5 97v142zM277 34q0 -40 40 -40h406v117h-446v-77z" />
    <glyph glyph-name="uniACF1" unicode="&#xacf1;" 
d="M909 198v-280h-699q-59 0 -89.5 31t-30.5 94v155h182v-47h455v47h182zM52 314h267v154h186v-154h461v-77h-914v77zM111 676h702q40 0 66 -26t26 -66v-227h-186v242h-608v77zM272 37q0 -40 40 -40h415v77h-455v-37z" />
    <glyph glyph-name="uniACF3" unicode="&#xacf3;" 
d="M719 329v270h-608v77h702q40 0 66 -26t26 -66v-255h-186zM107 68q21 54 62.5 79t101.5 25h645v-254h-180v180h-364q-61 0 -82 -49l-56 -131h-185zM52 290h277v148h186v-148h451v-77h-914v77z" />
    <glyph glyph-name="uniACF5" unicode="&#xacf5;" 
d="M717 358v241h-634v77h728q40 0 66 -26t26 -66v-226h-186zM52 312h284v142h186v-142h444v-77h-914v77zM71 53q0 69 41 104.5t119 35.5h542q78 0 119 -35.5t41 -104.5t-41 -104.5t-119 -35.5h-542q-78 0 -119 35.5t-41 104.5zM261 47q0 -60 60 -60h363q60 0 60 60v12
q0 60 -60 60h-363q-60 0 -60 -60v-12z" />
    <glyph glyph-name="uniACF6" unicode="&#xacf6;" 
d="M719 327v272h-608v77h702q40 0 66 -26t26 -66v-257h-186zM52 283h257v151h186v-151h471v-77h-914v77zM78 158h871v-74h-62v-166h-180v166h-252q-29 0 -45.5 -14t-36.5 -38l-94 -114h-187l104 136q12 16 24 30h-142v74z" />
    <glyph glyph-name="uniACF9" unicode="&#xacf9;" 
d="M719 366v233h-608v77h702q40 0 66 -26t26 -66v-218h-186zM52 330h267v141h186v-141h461v-77h-914v77zM96 214h820v-67h-638v-40h631v-71h-631v-45h638v-73h-760q-60 0 -60 60v236z" />
    <glyph glyph-name="uniACFC" unicode="&#xacfc;" 
d="M344 269v-265l300 -1v-76l-592 1v76h108v265h184zM58 672h505q31 0 51 -20t20 -51v-490h-188v490h-388v71zM707 682h182v-316h104v-81h-104v-367h-182v764z" />
    <glyph glyph-name="uniACFD" unicode="&#xacfd;" 
d="M150 280v181h184v-181h328v-76h-611v76h99zM58 672h526q70 0 70 -70v-282h-192v281h-404v71zM64 168h825v-250h-186v173h-639v77zM707 682h182v-207h104v-81h-104v-190h-182v478z" />
    <glyph glyph-name="uniAD00" unicode="&#xad00;" 
d="M150 274v186h184v-186h330v-76h-613v76h99zM58 672h525q31 0 51 -20t20 -51v-282h-192v282h-404v71zM101 154h182v-160h610v-76h-732q-60 0 -60 60v176zM707 682h182v-227h104v-81h-104v-298h-182v606z" />
    <glyph glyph-name="uniAD04" unicode="&#xad04;" 
d="M130 345v141h184v-141h346v-76h-609v76h79zM58 672h525q31 0 51 -20t20 -51v-213h-192v213h-404v71zM96 110h606v38h-606v74h788v-183h-606v-42h608v-79h-730q-60 0 -60 60v132zM707 682h182v-177h104v-81h-104v-155h-182v413z" />
    <glyph glyph-name="uniAD06" unicode="&#xad06;" 
d="M130 342v136h184v-136h351v-76h-614v76h79zM58 672h522q31 0 51 -20t20 -51v-218h-192l-3 218h-398v71zM96 110h226v38h-226v74h388v-183h-226v-42h228v-79h-330q-60 0 -60 60v132zM526 226h360v-308h-360v308zM744 -11v166h-76v-166h76zM707 682h182v-167h104v-81h-104
v-168h-182v416z" />
    <glyph glyph-name="uniAD0C" unicode="&#xad0c;" 
d="M130 322v160h184v-160h343v-76h-606v76h79zM58 672h525q31 0 51 -20t20 -51v-239h-192v239h-404v71zM83 204h799v-286h-679q-59 0 -89.5 31t-30.5 94v161zM265 37q0 -40 40 -40h395v131h-435v-91zM707 682h182v-184h104v-81h-104v-171h-182v436z" />
    <glyph glyph-name="uniAD0D" unicode="&#xad0d;" 
d="M886 212v-294h-678q-59 0 -89.5 31t-30.5 94v169h182v-55h434v55h182zM51 331h79v157h184v-157h348v-76h-611v76zM58 672h518q31 0 51 -20t20 -51v-224h-192v224h-397v71zM270 37q0 -40 40 -40h394v83h-434v-43zM707 682h182v-175h104v-81h-104v-171h-182v427z" />
    <glyph glyph-name="uniAD0F" unicode="&#xad0f;" 
d="M140 289v175h184v-175h334v-76h-607v76h89zM58 677l524 -4q31 0 51 -20.5t20 -51.5v-271h-192v271h-403v76zM137 66q26 52 65 78t99 26h589v-252h-180v178h-318q-29 0 -48.5 -13t-33.5 -39l-64 -126h-183zM707 682h182v-187h104v-81h-104v-201h-182v469z" />
    <glyph glyph-name="uniAD10" unicode="&#xad10;" 
d="M140 289v185h184v-185h335v-76h-608v76h89zM125 66q26 52 65 78t99 26h600v-252h-180v178h-61q-44 0 -56 -42l-40 -136h-173l62 178h-61q-29 0 -48.5 -13t-33.5 -39l-64 -126h-183zM58 677l529 -4q31 0 51 -20.5t20 -51.5v-264h-192v264h-408v76zM707 682h182v-187h104
v-81h-104v-201h-182v469z" />
    <glyph glyph-name="uniAD11" unicode="&#xad11;" 
d="M130 311v163h184v-163h341v-76h-604v76h79zM58 677l523 -4q31 0 51 -20.5t20 -51.5v-242h-192v242h-402v76zM62 53q0 69 41 104.5t119 35.5h529q78 0 119 -35.5t41 -104.5t-41 -104.5t-119 -35.5h-529q-78 0 -119 35.5t-41 104.5zM256 47q0 -60 60 -60h340q60 0 60 60v12
q0 60 -60 60h-340q-60 0 -60 -60v-12zM707 682h182v-173h104v-81h-104v-193h-182v447z" />
    <glyph glyph-name="uniAD12" unicode="&#xad12;" 
d="M130 279v198h184v-198h333v-76h-596v76h79zM58 677l515 -4q31 0 51 -20.5t20 -51.5v-282h-192v282h-394v76zM72 157h837v-74h-62v-165h-180v165h-218q-29 0 -46 -14t-36 -38l-94 -113h-187l104 135q12 16 24 30h-142v74zM707 682h182v-183h104v-81h-104v-215h-182v479z
" />
    <glyph glyph-name="uniAD18" unicode="&#xad18;" 
d="M741 682v-315h61v315h168v-764h-168v358h-61v-358h-159v764h159zM52 3h58v257h168v-257h253v-76h-479v76zM58 672h410q31 0 51 -20t20 -51v-513h-176v513h-305v71z" />
    <glyph glyph-name="uniAD1C" unicode="&#xad1c;" 
d="M741 682v-253h61v253h168v-608h-168v264h-61v-264h-159v608h159zM51 249h59v181h168v-181h251v-76h-478v76zM58 672h407q31 0 51 -20t20 -51v-312h-183v312h-295v71zM101 137h182v-143h693v-76h-815q-60 0 -60 60v159z" />
    <glyph glyph-name="uniAD20" unicode="&#xad20;" 
d="M741 682v-177h61v177h168v-417h-168v144h-61v-144h-159v417h159zM51 341h59v146h168v-146h261v-76h-488v76zM58 672h410q31 0 51 -20t20 -51v-220h-183v220h-298v71zM96 110h693v38h-693v74h875v-183h-693v-42h695v-79h-817q-60 0 -60 60v132z" />
    <glyph glyph-name="uniAD22" unicode="&#xad22;" 
d="M741 682v-172h61v172h168v-411h-168v147h-61v-147h-159v411h159zM51 345h59v132h168v-132h253v-76h-480v76zM58 672h410q31 0 51 -20t20 -51v-216h-183v216h-298v71zM96 110h271v38h-271v74h433v-183h-271v-42h273v-79h-375q-60 0 -60 60v132zM571 226h405v-308h-405v308
zM834 -11v166h-121v-166h121z" />
    <glyph glyph-name="uniAD29" unicode="&#xad29;" 
d="M741 682v-183h61v183h168v-432h-168v163h-61v-163h-159v432h159zM51 326h59v143h168v-143h264v-76h-491v76zM58 672h410q31 0 51 -20t20 -51v-235h-183v235h-298v71zM88 212h182v-55h521v55h182v-294h-765q-59 0 -89.5 31t-30.5 94v169zM270 37q0 -40 40 -40h481v83h-521
v-43z" />
    <glyph glyph-name="uniAD2C" unicode="&#xad2c;" 
d="M741 682v-184h61v184h168v-467h-168v197h-61v-197h-159v467h159zM125 66q26 52 65 78t99 26h680v-252h-180v178h-103q-44 0 -56 -42l-40 -136h-173l62 178h-99q-29 0 -48.5 -13t-33.5 -39l-64 -126h-183zM51 291h39v177h168v-177h280v-76h-487v76zM58 672h420
q31 0 51 -20t20 -51v-270h-183v270h-308v71z" />
    <glyph glyph-name="uniAD2D" unicode="&#xad2d;" 
d="M741 682v-181h61v181h168v-447h-168v167h-61v-167h-159v447h159zM51 311h39v153h168v-153h284v-76h-491v76zM58 672h410q31 0 51 -20t20 -51v-250h-183v250h-298v71zM62 53q0 69 41 104.5t119 35.5h597q78 0 119 -35.5t41 -104.5t-41 -104.5t-119 -35.5h-597
q-78 0 -119 35.5t-41 104.5zM256 47q0 -60 60 -60h408q60 0 60 60v12q0 60 -60 60h-408q-60 0 -60 -60v-12z" />
    <glyph glyph-name="uniAD34" unicode="&#xad34;" 
d="M344 257v-253l357 -1v-76l-649 1v76h108v253h184zM58 672h564q31 0 51 -20t20 -51v-490h-192v490h-443v71zM757 682h182v-764h-182v764z" />
    <glyph glyph-name="uniAD35" unicode="&#xad35;" 
d="M160 288v171h184v-171h358v-76h-651v76h109zM58 672h556q31 0 51 -20t20 -51v-267h-192v267h-435v71zM64 168h875v-250h-186v173h-689v77zM757 682h182v-470h-182v470z" />
    <glyph glyph-name="uniAD38" unicode="&#xad38;" 
d="M283 154v-160h664v-76h-786q-60 0 -60 60v176h182zM51 268h119v189h184v-189h351v-77h-654v77zM58 672h546q31 0 51 -20t20 -51v-289h-192v289h-425v71zM757 682h182v-594h-182v594z" />
    <glyph glyph-name="uniAD3C" unicode="&#xad3c;" 
d="M164 348v140h184v-140h356v-76h-653v76h113zM58 672h562q31 0 51 -20t20 -51v-213h-192v213h-441v71zM96 112h664v44h-664v74h846v-189h-664v-44h666v-79h-788q-60 0 -60 60v134zM757 682h182v-410h-182v410z" />
    <glyph glyph-name="uniAD44" unicode="&#xad44;" 
d="M172 327v156h184v-156h342v-76h-651v76h125zM58 672h556q31 0 51 -20t20 -51v-229h-192v229h-435v71zM83 204h859v-286h-739q-59 0 -89.5 31t-30.5 94v161zM265 37q0 -40 40 -40h455v131h-495v-91zM757 682h182l-4 -431h-182z" />
    <glyph glyph-name="uniAD45" unicode="&#xad45;" 
d="M176 331v139h184v-139h352v-76h-661v76h125zM58 672h556q31 0 51 -20t20 -51v-226h-192v226h-435v71zM88 212h182v-55h485v55h182v-294h-729q-59 0 -89.5 31t-30.5 94v169zM270 37q0 -40 40 -40h445v83h-485v-43zM757 682h182v-427h-182v427z" />
    <glyph glyph-name="uniAD47" unicode="&#xad47;" 
d="M176 289v165h184v-165h352v-76h-661v76h125zM58 672h554q31 0 51 -20t20 -51v-268h-192v268h-433v71zM137 66q26 52 65 78t99 26h639v-252h-180v178h-368q-29 0 -48.5 -13t-33.5 -39l-64 -126h-183zM757 682h182v-469h-182v469z" />
    <glyph glyph-name="uniAD49" unicode="&#xad49;" 
d="M176 310v179h184v-179h352v-76h-661v76h125zM58 672h556q31 0 51 -20t20 -51v-248h-192v248h-435v71zM62 53q0 69 41 104.5t119 35.5h569q78 0 119 -35.5t41 -104.5t-41 -104.5t-119 -35.5h-569q-78 0 -119 35.5t-41 104.5zM256 47q0 -60 60 -60h380q60 0 60 60v12
q0 60 -60 60h-380q-60 0 -60 -60v-12zM757 682h182v-448h-182v448z" />
    <glyph glyph-name="uniAD50" unicode="&#xad50;" 
d="M721 105v494h-610v77h702q40 0 66 -26t26 -66v-479h-184zM52 5h116v249h174v-249h73v249h174v-249h377v-76h-914v76z" />
    <glyph glyph-name="uniAD54" unicode="&#xad54;" 
d="M719 326v273h-608v77h702q40 0 66 -26t26 -66v-258h-186zM52 273h133v199h179v-199h61v199h179v-199h362v-77h-914v77zM111 154h182v-160h614v-76h-736q-60 0 -60 60v176z" />
    <glyph glyph-name="uniAD58" unicode="&#xad58;" 
d="M719 406v193h-608v77h702q40 0 66 -26t26 -66v-178h-186zM52 356h138v143h179v-143h65v143h179v-143h353v-77h-914v77zM103 234h803v-186h-618v-51h620v-79h-742q-60 0 -60 60v137h618v47h-621v72z" />
    <glyph glyph-name="uniAD60" unicode="&#xad60;" 
d="M719 353v246h-608v77h702q40 0 66 -26t26 -66v-231h-186zM52 309h133v152h179v-152h65v152h179v-152h358v-77h-914v77zM96 187h816v-269h-696q-59 0 -89.5 30t-30.5 97v142zM278 34q0 -40 40 -40h412v117h-452v-77z" />
    <glyph glyph-name="uniAD61" unicode="&#xad61;" 
d="M719 372v227h-608v77h702q40 0 66 -26t26 -66v-212h-186zM52 321h133v145h179v-145h75v145h179v-145h348v-77h-914v77zM110 201h182v-60h435v60h182v-283h-679q-59 0 -89.5 31t-30.5 94v158zM292 37q0 -40 40 -40h395v67h-435v-27z" />
    <glyph glyph-name="uniAD63" unicode="&#xad63;" 
d="M719 336v263h-608v77h702q40 0 66 -26t26 -66v-248h-186zM107 62q21 53 62.5 78.5t101.5 25.5h645v-248h-180v174h-364q-61 0 -82 -49l-56 -125h-185zM52 288h133v157h179v-157h65v157h179v-157h358v-77h-914v77z" />
    <glyph glyph-name="uniAD65" unicode="&#xad65;" 
d="M719 359v240h-608v77h702q40 0 66 -26t26 -66v-225h-186zM52 313h117v159h179v-159h65v159h179v-159h374v-77h-914v77zM79 53q0 69 41 104.5t119 35.5h542q78 0 119 -35.5t41 -104.5t-41 -104.5t-119 -35.5h-542q-78 0 -119 35.5t-41 104.5zM269 47q0 -60 60 -60h363
q60 0 60 60v12q0 60 -60 60h-363q-60 0 -60 -60v-12z" />
    <glyph glyph-name="uniAD6C" unicode="&#xad6c;" 
d="M719 325v274h-608v77h702q40 0 66 -26t26 -66v-259h-186zM68 273h882v-77h-348v-278h-186v278h-348v77z" />
    <glyph glyph-name="uniAD6D" unicode="&#xad6d;" 
d="M717 318v281h-606v77h722q70 0 70 -70v-288h-186zM68 276h882v-77h-348v-66h301v-215h-186v138h-606v77h305v66h-348v77z" />
    <glyph glyph-name="uniAD70" unicode="&#xad70;" 
d="M719 339v260h-608v77h702q40 0 66 -26t26 -66v-245h-186zM68 293h882v-77h-348v-131h-186v131h-348v77zM106 156h182v-162h633v-76h-755q-60 0 -60 60v178z" />
    <glyph glyph-name="uniAD73" unicode="&#xad73;" 
d="M719 354v245h-608v77h702q40 0 66 -26t26 -66v-230h-186zM52 308h914v-77h-377v-56h314v-76l-629 -1v-105l634 1v-76l-756 -1q-60 0 -60 60v197h311v57h-351v77z" />
    <glyph glyph-name="uniAD74" unicode="&#xad74;" 
d="M719 387v212h-608v77h702q40 0 66 -26t26 -66v-197h-186zM52 349h914v-77h-371v-49h314v-183h-617v-43h619v-79h-741q-60 0 -60 60v129h617v44h-620v72h302v49h-357v77z" />
    <glyph glyph-name="uniAD75" unicode="&#xad75;" 
d="M717 392v207h-606v77h722q70 0 70 -70v-214h-186zM52 354h914v-77h-371v-52h308v-307h-186v230h-176v31h-28v-139h-229v-43h231v-79h-343q-60 0 -60 60v129h229v44h-232v72h300v54h-357v77z" />
    <glyph glyph-name="uniAD76" unicode="&#xad76;" 
d="M341 108v36h-232v72h300v49h-357v77h914v-77h-371v-45h314v-303h-362v269h-49v-146h-232v-44h234v-78h-331q-60 0 -60 60v130h232zM111 676h702q40 0 66 -26t26 -66v-199h-186v214h-608v77zM767 -6v149h-78v-149h78z" />
    <glyph glyph-name="uniAD7B" unicode="&#xad7b;" 
d="M719 399v200h-608v77h702q40 0 66 -26t26 -66v-185h-186zM52 355h914v-77h-381v-73h65v37h128v-37h124v-69h-377v41h-42v-136h-220v-45h222v-78h-319q-60 0 -60 60v131h220v42h-220v72h293v55h-347v77zM524 20q0 40 26 66t66 26h195q40 0 66 -26t26 -66v-10
q0 -40 -26 -66t-66 -26h-195q-40 0 -66 26t-26 66v10zM674 12q0 -11 7 -18t18 -7h29q11 0 18 7t7 18v6q0 11 -7 18t-18 7h-28q-11 0 -18.5 -7t-7.5 -18v-6z" />
    <glyph glyph-name="uniAD7C" unicode="&#xad7c;" 
d="M719 376v223h-608v77h702q40 0 66 -26t26 -66v-208h-186zM52 324h914v-77h-381v-60h320v-269h-690q-59 0 -89.5 30t-30.5 97v142h304v60h-347v77zM277 34q0 -40 40 -40h406v117h-446v-77z" />
    <glyph glyph-name="uniAD7D" unicode="&#xad7d;" 
d="M909 198v-280h-699q-59 0 -89.5 31t-30.5 94v155h182v-52h455v52h182zM52 324h914v-77h-371v-63h-186v63h-357v77zM111 676h702q40 0 66 -26t26 -66v-214h-186v229h-608v77zM272 37q0 -40 40 -40h415v72h-455v-32z" />
    <glyph glyph-name="uniAD7F" unicode="&#xad7f;" 
d="M719 359v240h-608v77h702q40 0 66 -26t26 -66v-225h-186zM107 66q21 54 62.5 79t101.5 25h138v55h-358v77h914v-77h-370v-55h321v-252h-180v178h-364q-61 0 -82 -49l-56 -129h-185z" />
    <glyph glyph-name="uniAD81" unicode="&#xad81;" 
d="M719 368v231h-608v77h702q40 0 66 -26t26 -66v-216h-186zM52 322h914v-77h-373v-52h188q78 0 119 -35.5t41 -104.5t-41 -104.5t-119 -35.5h-542q-78 0 -119 35.5t-41 104.5t41 104.5t119 35.5h168v52h-355v77zM269 47q0 -60 60 -60h363q60 0 60 60v12q0 60 -60 60h-363
q-60 0 -60 -60v-12z" />
    <glyph glyph-name="uniAD82" unicode="&#xad82;" 
d="M52 316h914v-77h-371v-71h354v-74h-62v-176h-180v176h-252q-29 0 -46 -13.5t-36 -38.5l-94 -124h-187l104 146l22 30h-140v74h331v71h-357v77zM719 362v237h-608v77h702q40 0 66 -26t26 -66v-222h-186z" />
    <glyph glyph-name="uniAD83" unicode="&#xad83;" 
d="M719 402v197h-608v77h702q40 0 66 -26t26 -66v-182h-186zM52 366h914v-77h-373v-68h-186v68h-355v77zM78 148h329v47h186v-47h356v-74h-62v-156h-180v156h-252q-29 0 -45 -14.5t-37 -37.5l-94 -104h-187l104 126l25 30h-143v74z" />
    <glyph glyph-name="uniAD88" unicode="&#xad88;" 
d="M497 252v347h-386v77h480q40 0 66 -26t26 -66v-332h-186zM68 210h642v-77h-228v-215h-186v215h-228v77zM591 79h178v603h182v-764h-182v73h-178v88z" />
    <glyph glyph-name="uniAD89" unicode="&#xad89;" 
d="M769 534v148h182v-506h-182v277h-86v-87h-186v233h-386v77h480q40 0 66 -26t26 -66v-50h86zM68 330h652v-77h-238v-77h-186v77h-228v77zM109 138h842v-220h-186v143h-656v77z" />
    <glyph glyph-name="uniAD8C" unicode="&#xad8c;" 
d="M507 358v241h-396v77h490q40 0 66 -26t26 -66v-226h-186zM68 315h652v-77h-188v-160h-186v160h-278v77zM101 147h182v-153h674v-76h-796q-60 0 -60 60v169zM591 196h178v486h182v-614h-182v47h-178v81z" />
    <glyph glyph-name="uniAD90" unicode="&#xad90;" 
d="M769 558v124h182v-426h-182v221h-86v-76h-186v198h-386v77h480q40 0 66 -26t26 -66v-26h86zM68 361h658v-77h-226v-62h453v-183h-665v-42h667v-79h-789q-60 0 -60 60v132h665v38h-665v74h208v62h-246v77z" />
    <glyph glyph-name="uniAD9C" unicode="&#xad9c;" 
d="M769 540v142h182v-472h-182v249h-86v-73h-186v213h-386v77h501q31 0 51 -20t20 -51v-65h86zM125 66q26 52 65 78t99 26h661v-252h-180v178h-92q-44 0 -56 -42l-40 -136h-173l62 178h-91q-29 0 -48.5 -13t-33.5 -39l-64 -126h-183zM68 353h652v-77h-220v-75h-186v75h-246
v77z" />
    <glyph glyph-name="uniAD9D" unicode="&#xad9d;" 
d="M769 538v144h182v-450h-182v225h-86v-90h-186v232h-386v77h501q31 0 51 -20t20 -51v-67h86zM62 53q0 69 41 104.5t119 35.5h112v57h-266v77h649v-77h-197v-57h299q78 0 119 -35.5t41 -104.5t-41 -104.5t-119 -35.5h-597q-78 0 -119 35.5t-41 104.5zM256 47q0 -60 60 -60
h408q60 0 60 60v12q0 60 -60 60h-408q-60 0 -60 -60v-12z" />
    <glyph glyph-name="uniADA4" unicode="&#xada4;" 
d="M336 247v352h-246v77h361q31 0 51 -20t20 -51v-358h-186zM68 205h482v-77h-153v-210h-186v210h-143v77zM450 74h138v608h159v-764h-159v65h-138v91zM802 682h168v-764h-168v764z" />
    <glyph glyph-name="uniADB7" unicode="&#xadb7;" 
d="M588 537v145h159v-482h-159v246h-66v-75h-186v228h-246v77h361q31 0 51 -20t20 -51v-68h66zM107 58q43 104 164 104h701v-244h-180v170h-420q-59 0 -82 -49l-56 -121h-185zM68 335h473v-77h-124v-58h-186v58h-163v77zM802 682h168v-482h-168v482z" />
    <glyph glyph-name="uniADB8" unicode="&#xadb8;" 
d="M578 545v137h159v-480h-159v252h-66v-67h-186v212h-246v77h361q31 0 51 -20t20 -51v-60h66zM125 66q26 52 65 78t99 26h670v-252h-180v178h-96q-44 0 -56 -42l-40 -136h-173l62 178h-96q-29 0 -48.5 -13t-33.5 -39l-64 -126h-183zM58 350h474v-77h-125v-71h-186v71h-163
v77zM792 682h168v-480h-168v480z" />
    <glyph glyph-name="uniADC0" unicode="&#xadc0;" 
d="M493 253v346h-382v77h497q31 0 51 -20t20 -51v-352h-186zM68 214h632v-77h-213v-219h-186v219h-233v77zM757 682h182v-764h-182v764z" />
    <glyph glyph-name="uniADC1" unicode="&#xadc1;" 
d="M493 366v233h-382v77h497q31 0 51 -20t20 -51v-239h-186zM68 333h638v-77h-219v-87h-186v87h-233v77zM101 140h839v-222h-186v145h-653v77zM757 682h182v-513h-182v513z" />
    <glyph glyph-name="uniADC4" unicode="&#xadc4;" 
d="M493 312v287h-382v77h497q31 0 51 -20t20 -51v-293h-186zM68 274h641v-77h-162v-101h-186v101h-293v77zM101 152h182v-158h674v-76h-796q-60 0 -60 60v174zM757 682h182v-584h-182v584z" />
    <glyph glyph-name="uniADC8" unicode="&#xadc8;" 
d="M493 419v180h-382v77h497q31 0 51 -20t20 -51v-186h-186zM68 384h642v-77h-233v-58h-186v58h-223v77zM106 107h650v41h-650v74h832v-186h-650v-39h652v-79h-774q-60 0 -60 60v129zM757 682h182v-431h-182v431z" />
    <glyph glyph-name="uniADD0" unicode="&#xadd0;" 
d="M941 187v-269h-726q-59 0 -89.5 30t-30.5 97v142h846zM68 354h635v-77h-226v-59h-186v59h-223v77zM111 676h497q31 0 51 -20t20 -51v-216h-186v210h-382v77zM277 34q0 -40 40 -40h442v117h-482v-77zM757 682h182v-462h-182v462z" />
    <glyph glyph-name="uniADD1" unicode="&#xadd1;" 
d="M493 387v212h-382v77h497q31 0 51 -20t20 -51v-218h-186zM68 350h631v-77h-162v-84h-186v84h-283v77zM90 198h182v-52h486v52h182v-280h-730q-59 0 -89.5 31t-30.5 94v155zM272 37q0 -40 40 -40h446v72h-486v-32zM757 682h182v-437h-182v437z" />
    <glyph glyph-name="uniADD3" unicode="&#xadd3;" 
d="M493 390v209h-382v77h497q31 0 51 -20t20 -51v-215h-186zM107 58q43 104 164 104h673v-244h-180v170h-392q-59 0 -82 -49l-56 -121h-185zM68 353h632v-77h-223v-81h-186v81h-223v77zM757 682h182v-487h-182v487z" />
    <glyph glyph-name="uniADD5" unicode="&#xadd5;" 
d="M493 421v178h-382v77h497q31 0 51 -20t20 -51v-184h-186zM62 53q0 69 41 104.5t119 35.5h567q78 0 119 -35.5t41 -104.5t-41 -104.5t-119 -35.5h-567q-78 0 -119 35.5t-41 104.5zM68 382h635v-77h-226v-77h-186v77h-223v77zM256 47q0 -60 60 -60h378q60 0 60 60v12
q0 60 -60 60h-378q-60 0 -60 -60v-12zM757 682h182v-454h-182v454z" />
    <glyph glyph-name="uniADDC" unicode="&#xaddc;" 
d="M717 266v333h-606v77h702q40 0 66 -26t26 -66v-318h-188zM46 219h908v-76h-158v-225h-190v225h-185l-92 -227h-190l92 227h-185v76z" />
    <glyph glyph-name="uniADE0" unicode="&#xade0;" 
d="M719 350v249h-608v77h702q40 0 66 -26t26 -66v-234h-186zM68 309h882v-77h-170v-140h-176v140h-89v-145h-176v145h-271v77zM106 149h182v-155h618v-76h-740q-60 0 -60 60v171z" />
    <glyph glyph-name="uniADE4" unicode="&#xade4;" 
d="M719 430v169h-608v77h702q40 0 66 -26t26 -66v-154h-186zM68 386h882v-77h-173v-75h129v-186h-618v-51h620v-79h-742q-60 0 -60 60v137h618v47h-621v72h140v75h-175v77zM601 234v75h-182v-75h182z" />
    <glyph glyph-name="uniADEC" unicode="&#xadec;" 
d="M719 396v203h-608v77h702q40 0 66 -26t26 -66v-188h-186zM68 346h882v-77h-173v-82h126v-269h-686q-59 0 -89.5 30t-30.5 97v142h146v82h-175v77zM279 34q0 -40 40 -40h402v117h-442v-77zM601 187v82h-182v-82h182z" />
    <glyph glyph-name="uniADED" unicode="&#xaded;" 
d="M719 396v203h-608v77h702q40 0 66 -26t26 -66v-188h-186zM68 346h882v-77h-212v-66h172v-285h-699q-59 0 -89.5 31t-30.5 94v160h171v66h-194v77zM273 37q0 -40 40 -40h415v53h-455v-13zM728 127v41h-162v101h-132v-101h-161v-41h455z" />
    <glyph glyph-name="uniADF8" unicode="&#xadf8;" 
d="M717 107v487h-606v77h702q40 0 66 -26t26 -66v-472h-188zM52 5h914v-76h-914v76z" />
    <glyph glyph-name="uniADF9" unicode="&#xadf9;" 
d="M719 336v263h-608v77h702q40 0 66 -26t26 -66v-248h-186zM68 286h882v-77h-882v77zM95 167h812v-249h-186v172h-626v77z" />
    <glyph glyph-name="uniADFC" unicode="&#xadfc;" 
d="M719 328v271h-608v77h702q40 0 66 -26t26 -66v-256h-186zM68 278h882v-77h-882v77zM106 159h182v-165h618v-76h-740q-60 0 -60 60v181z" />
    <glyph glyph-name="uniADFF" unicode="&#xadff;" 
d="M719 349v250h-608v77h702q40 0 66 -26t26 -66v-235h-186zM52 307h914v-77h-914v77zM102 189l808 1v-76l-626 -1v-120l631 1v-76l-753 -1q-60 0 -60 60v212z" />
    <glyph glyph-name="uniAE00" unicode="&#xae00;" 
d="M719 384v215h-608v77h702q40 0 66 -26t26 -66v-200h-186zM52 349h914v-77h-914v77zM99 235h805v-189h-620v-49h622v-79h-744q-60 0 -60 60v135h620v50h-623v72z" />
    <glyph glyph-name="uniAE01" unicode="&#xae01;" 
d="M719 372v227h-608v77h702q40 0 66 -26t26 -66v-212h-186zM52 337h914v-77h-914v77zM109 223h404v-183h-233v-43h235v-79h-343q-60 0 -60 60v129h233v44h-236v72zM541 225h362v-307h-186v230h-176v77z" />
    <glyph glyph-name="uniAE02" unicode="&#xae02;" 
d="M341 108v36h-232v72h389v-176h-232v-44h234v-78h-331q-60 0 -60 60v130h232zM52 334h914v-77h-914v77zM111 676h702q40 0 66 -26t26 -66v-214h-186v229h-608v77zM547 220h362v-303h-362v303zM767 -6v149h-78v-149h78z" />
    <glyph glyph-name="uniAE07" unicode="&#xae07;" 
d="M719 393v206h-608v77h702q40 0 66 -26t26 -66v-191h-186zM52 352h914v-77h-914v77zM110 109h220v42h-220v72h377v-182h-220v-45h222v-78h-319q-60 0 -60 60v131zM528 20q0 40 26 66t66 26h195q40 0 66 -26t26 -66v-10q0 -40 -26 -66t-66 -26h-195q-40 0 -66 26t-26 66v10
zM529 205h125v37h128v-37h124v-69h-377v69zM678 12q0 -11 7 -18t18 -7h29q11 0 18 7t7 18v6q0 11 -7 18t-18 7h-28q-11 0 -18.5 -7t-7.5 -18v-6z" />
    <glyph glyph-name="uniAE08" unicode="&#xae08;" 
d="M719 337v262h-608v77h702q40 0 66 -26t26 -66v-247h-186zM52 300h914v-77h-914v77zM95 187h810v-269h-690q-59 0 -89.5 30t-30.5 97v142zM277 34q0 -40 40 -40h406v117h-446v-77z" />
    <glyph glyph-name="uniAE09" unicode="&#xae09;" 
d="M909 198v-280h-699q-59 0 -89.5 31t-30.5 94v155h182v-52h455v52h182zM52 311h914v-77h-914v77zM111 676h702q40 0 66 -26t26 -66v-233h-186v248h-608v77zM272 37q0 -40 40 -40h415v72h-455v-32z" />
    <glyph glyph-name="uniAE0B" unicode="&#xae0b;" 
d="M719 335v264h-608v77h702q40 0 66 -26t26 -66v-249h-186zM107 68q20 54 62 79t102 25h645v-254h-180v180h-364q-61 0 -82 -49l-56 -131h-185zM52 293h914v-77h-914v77z" />
    <glyph glyph-name="uniAE0D" unicode="&#xae0d;" 
d="M719 347v252h-608v77h702q40 0 66 -26t26 -66v-237h-186zM52 309h914v-77h-914v77zM79 53q0 69 41 104.5t119 35.5h542q78 0 119 -35.5t41 -104.5t-41 -104.5t-119 -35.5h-542q-78 0 -119 35.5t-41 104.5zM269 47q0 -60 60 -60h363q60 0 60 60v12q0 60 -60 60h-363
q-60 0 -60 -60v-12z" />
    <glyph glyph-name="uniAE0F" unicode="&#xae0f;" 
d="M719 373v226h-608v77h702q40 0 66 -26t26 -66v-211h-186zM52 335h914v-77h-914v77zM78 158h329v67h186v-67h356v-74h-62v-166h-180v166h-252q-29 0 -46 -14t-36 -38l-94 -114h-187l104 136q12 16 24 30h-142v74z" />
    <glyph glyph-name="uniAE11" unicode="&#xae11;" 
d="M719 384v215h-608v77h702q40 0 66 -26t26 -66v-200h-186zM52 348h914v-77h-914v77zM96 234h820v-67h-638v-50h631v-71h-631v-55h638v-73h-760q-60 0 -60 60v256z" />
    <glyph glyph-name="uniAE13" unicode="&#xae13;" 
d="M284 39q-10 0 -16.5 -6.5t-6.5 -16.5v-3q0 -10 6.5 -16.5t16.5 -6.5h453q10 0 16.5 6.5t6.5 16.5v3q0 10 -6.5 16.5t-16.5 6.5h-453zM52 398h914v-77h-914v77zM69 231h350v57h182v-57h350v-79h-882v79zM74 24q0 40 26 66t66 26h689q40 0 66 -26t26 -66v-19q0 -40 -26 -66
t-66 -26h-689q-40 0 -66 26t-26 66v19zM111 676h702q40 0 66 -26t26 -66v-147h-186v162h-608v77z" />
    <glyph glyph-name="uniAE14" unicode="&#xae14;" 
d="M517 68v531h-406v77h521q31 0 51 -20t20 -51v-537h-186zM62 5h653v-76h-653v76zM769 682h182v-764h-182v764z" />
    <glyph glyph-name="uniAE18" unicode="&#xae18;" 
d="M517 306v293h-406v77h521q31 0 51 -20t20 -51v-299h-186zM62 266h663v-76h-663v76zM101 149h182v-155h674v-76h-796q-60 0 -60 60v171zM769 682h182v-574h-182v574z" />
    <glyph glyph-name="uniAE29" unicode="&#xae29;" 
d="M517 348v251h-406v77h521q31 0 51 -20t20 -51v-257h-186zM60 53q0 69 41 104.5t119 35.5h579q78 0 119 -35.5t41 -104.5t-41 -104.5t-119 -35.5h-579q-78 0 -119 35.5t-41 104.5zM62 310h661v-76h-661v76zM254 47q0 -60 60 -60h390q60 0 60 60v12q0 60 -60 60h-390
q-60 0 -60 -60v-12zM769 682h182v-448h-182v448z" />
    <glyph glyph-name="uniAE30" unicode="&#xae30;" 
d="M495 -75l2 674h-406v77h521q31 0 51 -20t20 -51v-680h-188zM769 682h182v-764h-182v764z" />
    <glyph glyph-name="uniAE31" unicode="&#xae31;" 
d="M517 219v380h-439v77h554q31 0 51 -20t20 -51v-386h-186zM88 160h864v-242h-186v165h-678v77zM769 682h182v-464h-182v464z" />
    <glyph glyph-name="uniAE34" unicode="&#xae34;" 
d="M517 169v430h-426v77h541q31 0 51 -20t20 -51v-436h-186zM81 149h182v-155h694v-76h-816q-60 0 -60 60v171zM769 682h182v-564h-182v564z" />
    <glyph glyph-name="uniAE37" unicode="&#xae37;" 
d="M517 248v351h-436v77h551q31 0 51 -20t20 -51v-357h-186zM95 192h854v-76h-672v-122h674v-76h-796q-60 0 -60 60v214zM769 682h182v-440h-182v440z" />
    <glyph glyph-name="uniAE38" unicode="&#xae38;" 
d="M507 291v308h-426v77h541q31 0 51 -20t20 -51v-314h-186zM116 122h659v51h-659v74h841v-196h-659v-54h661v-79h-783q-60 0 -60 60v144zM769 682h182v-391h-182v391z" />
    <glyph glyph-name="uniAE3A" unicode="&#xae3a;" 
d="M359 110v38h-254v74h416v-183h-254v-42h256v-79h-358q-60 0 -60 60v132h254zM91 676h541q31 0 51 -20t20 -51v-329h-186v323h-426v77zM573 226h380v-308h-380v308zM811 -11v166h-96v-166h96zM769 682h182v-404h-182v404z" />
    <glyph glyph-name="uniAE40" unicode="&#xae40;" 
d="M956 187v-269h-741q-59 0 -89.5 30t-30.5 97v142h861zM81 676h551q31 0 51 -20t20 -51v-364h-186v358h-436v77zM277 34q0 -40 40 -40h457v117h-497v-77zM769 682h182v-441h-182v441z" />
    <glyph glyph-name="uniAE41" unicode="&#xae41;" 
d="M955 198v-280h-725q-59 0 -89.5 31t-30.5 94v155h182v-52h481v52h182zM81 676h551q31 0 51 -20t20 -51v-352h-189l3 346h-436v77zM292 37q0 -40 40 -40h441v72h-481v-32zM769 682h182v-429h-182v429z" />
    <glyph glyph-name="uniAE43" unicode="&#xae43;" 
d="M517 233v366h-436v77h551q31 0 51 -20t20 -51v-372h-186zM107 63q22 54 63 79t101 25h673v-249h-180v175h-392q-61 0 -82 -49l-56 -126h-185zM769 682h182v-454h-182v454z" />
    <glyph glyph-name="uniAE44" unicode="&#xae44;" 
d="M509 215v384h-428v77h543q31 0 51 -20t20 -51v-390h-186zM125 66q26 52 65 78t99 26h661v-252h-180v178h-92q-44 0 -56 -42l-40 -136h-173l62 178h-91q-29 0 -48.5 -13t-33.5 -39l-64 -126h-183zM769 682h182v-474h-182v474z" />
    <glyph glyph-name="uniAE45" unicode="&#xae45;" 
d="M517 248v351h-436v77h551q31 0 51 -20t20 -51v-357h-186zM112 53q0 69 41 104.5t119 35.5h543q78 0 119 -35.5t41 -104.5t-41 -104.5t-119 -35.5h-543q-78 0 -119 35.5t-41 104.5zM306 47q0 -60 60 -60h354q60 0 60 60v12q0 60 -60 60h-354q-60 0 -60 -60v-12zM769 682
h182v-434h-182v434z" />
    <glyph glyph-name="uniAE46" unicode="&#xae46;" 
d="M517 247v352h-436v77h551q31 0 51 -20t20 -51v-358h-186zM81 188h878v-74h-62v-196h-180v196h-259q-29 0 -47 -13t-35 -39l-94 -144h-187l104 166q10 16 21 30h-139v74zM769 682h182v-435h-182v435z" />
    <glyph glyph-name="uniAE4A" unicode="&#xae4a;" 
d="M517 275v324h-436v77h551q31 0 51 -20t20 -51v-330h-186zM93 -11h529l14 90l-122 -55h-191q-22 0 -36.5 8.5t-19.5 22.5l-32 97h-142v71h860v-71h-523l32 -90l118 59h196q26 0 36.5 -10.5t8.5 -23.5l-11 -98h143v-71h-860v71zM769 682h182v-407h-182v407z" />
    <glyph glyph-name="uniAE4C" unicode="&#xae4c;" 
d="M471 -75v671h-78v-671h-178v671h-142v76h503q31 0 51 -20t20 -51v-676h-176zM703 682h182v-312h104v-81h-104v-371h-182v764z" />
    <glyph glyph-name="uniAE4D" unicode="&#xae4d;" 
d="M471 241v355h-84v-355h-178v355h-136v76h503q31 0 51 -20t20 -51v-360h-176zM90 192h798v-274h-186v198h-612v76zM703 682h182v-196h104v-81h-104v-164h-182v441z" />
    <glyph glyph-name="uniAE4E" unicode="&#xae4e;" 
d="M885 682v-189h104v-81h-104v-170h-182v440h182zM73 672h513q31 0 51 -20t20 -51v-359h-176v354h-84v-354h-178v354h-146v76zM94 192h794v-274h-176v198h-189v-198h-176v198h-253v76z" />
    <glyph glyph-name="uniAE50" unicode="&#xae50;" 
d="M885 682v-224h104v-81h-104v-274h-182v579h182zM71 182h182v-188h650v-76h-772q-60 0 -60 60v204zM73 672h507q31 0 51 -20t20 -51v-365h-176v360h-84v-360h-178v360h-140v76z" />
    <glyph glyph-name="uniAE54" unicode="&#xae54;" 
d="M469 297v299h-66v-299h-178v299h-152v76h501q31 0 51 -20t20 -51v-304h-176zM95 120h610v50h-610v74h792v-195h-610v-52h612v-79h-734q-60 0 -60 60v142zM703 682h182v-167h104v-81h-104v-137h-182v385z" />
    <glyph glyph-name="uniAE56" unicode="&#xae56;" 
d="M885 682v-166h104v-81h-104v-154h-182v401h182zM73 672h506q31 0 51 -20t20 -51v-320h-176v315h-84v-315h-178v315h-139v76zM95 114h212v47h-212v71h383v-184h-212v-57h215v-73h-326q-60 0 -60 60v136zM530 234h364v-312h-364v312zM746 -7v170h-68v-170h68z" />
    <glyph glyph-name="uniAE5C" unicode="&#xae5c;" 
d="M889 210v-292h-663q-59 0 -89.5 31t-30.5 94v167h783zM73 672h504q31 0 51 -20t20 -51v-346h-176v341h-84v-341h-178v341h-137v76zM288 37q0 -40 40 -40h379v137h-419v-97zM703 682h182v-172h104v-81h-104v-174h-182v427z" />
    <glyph glyph-name="uniAE5D" unicode="&#xae5d;" 
d="M885 682v-175h104v-81h-104v-155h-182v411h182zM73 672h503q31 0 51 -20t20 -51v-330h-176v325h-84v-325h-178v325h-136v76zM96 220h182v-64h429v64h182v-302h-673q-59 0 -89.5 31t-30.5 94v177zM278 37q0 -40 40 -40h389v82h-429v-42z" />
    <glyph glyph-name="uniAE5F" unicode="&#xae5f;" 
d="M885 682v-177h104v-81h-104v-191h-182v449h182zM133 76q26 53 65 78.5t99 25.5h592v-262h-180v188h-321q-56 0 -82 -52l-67 -136h-183zM73 672h501q31 0 51 -20t20 -51v-368h-176v363h-84v-363h-178v363h-134v76z" />
    <glyph glyph-name="uniAE60" unicode="&#xae60;" 
d="M885 682v-181h104v-81h-104v-198h-182v460h182zM125 66q26 52 65 78t99 26h600v-252h-180v178h-61q-44 0 -56 -42l-40 -136h-173l62 178h-61q-29 0 -48.5 -13t-33.5 -39l-64 -126h-183zM73 672h505q31 0 51 -20t20 -51v-379h-176v374h-84v-374h-178v374h-138v76z" />
    <glyph glyph-name="uniAE61" unicode="&#xae61;" 
d="M885 682v-186h104v-81h-104v-175h-182v442h182zM73 672h502q31 0 51 -20t20 -51v-361h-176v356h-84v-356h-178v356h-135v76zM79 53q0 69 41 104.5t119 35.5h519q78 0 119 -35.5t41 -104.5t-41 -104.5t-119 -35.5h-519q-78 0 -119 35.5t-41 104.5zM273 47q0 -60 60 -60
h330q60 0 60 60v12q0 60 -60 60h-330q-60 0 -60 -60v-12z" />
    <glyph glyph-name="uniAE65" unicode="&#xae65;" 
d="M885 682v-174h104v-81h-104v-152h-182v407h182zM73 672h501q31 0 51 -20t20 -51v-326h-176v321h-84v-321h-178v321h-134v76zM119 228h770v-72h-588v-40h585v-76h-585v-44h590v-78h-712q-60 0 -60 60v250z" />
    <glyph glyph-name="uniAE68" unicode="&#xae68;" 
d="M394 -75v671h-58v-671h-148v671h-118v76h400q31 0 51 -20t20 -51v-676h-147zM590 682h154v-282h59v282h163v-764h-163v381h-59v-381h-154v764z" />
    <glyph glyph-name="uniAE69" unicode="&#xae69;" 
d="M394 243v353h-58v-353h-148v353h-118v76h400q31 0 51 -20t20 -51v-358h-147zM98 192h871v-274h-186v198h-685v76zM590 682h154v-164h59v164h163v-439h-163v174h-59v-174h-154v439z" />
    <glyph glyph-name="uniAE6C" unicode="&#xae6c;" 
d="M394 238v358h-58v-358h-148v358h-118v76h400q31 0 51 -20t20 -51v-363h-147zM101 182h182v-188h680v-76h-802q-60 0 -60 60v204zM590 682h154v-204h59v204h163v-594h-163v289h-59v-289h-154v594z" />
    <glyph glyph-name="uniAE6F" unicode="&#xae6f;" 
d="M394 250v346h-58v-346h-148v346h-118v76h400q31 0 51 -20t20 -51v-351h-147zM102 192h869v-76h-687v-122h689v-76h-811q-60 0 -60 60v214zM590 682h154v-155h59v155h163v-432h-163v176h-59v-176h-154v432z" />
    <glyph glyph-name="uniAE70" unicode="&#xae70;" 
d="M394 295v301h-58v-301h-148v301h-118v76h400q31 0 51 -20t20 -51v-306h-147zM110 120h674v50h-674v74h856v-195h-674v-52h676v-79h-798q-60 0 -60 60v142zM590 682h154v-134h59v134h163v-387h-163v152h-59v-152h-154v387z" />
    <glyph glyph-name="uniAE78" unicode="&#xae78;" 
d="M394 265v331h-58v-331h-148v331h-118v76h400q31 0 51 -20t20 -51v-336h-147zM106 210h859v-292h-739q-59 0 -89.5 31t-30.5 94v167zM288 37q0 -40 40 -40h455v137h-495v-97zM590 682h154v-151h59v151h163v-417h-163v165h-59v-165h-154v417z" />
    <glyph glyph-name="uniAE79" unicode="&#xae79;" 
d="M394 272v324h-58v-324h-148v324h-118v76h400q31 0 51 -20t20 -51v-329h-147zM105 220h182v-64h497v64h182v-302h-741q-59 0 -89.5 31t-30.5 94v177zM287 37q0 -40 40 -40h457v82h-497v-42zM590 682h154v-146h59v146h163v-410h-163v163h-59v-163h-154v410z" />
    <glyph glyph-name="uniAE7B" unicode="&#xae7b;" 
d="M394 231v365h-58v-365h-148v365h-118v76h400q31 0 51 -20t20 -51v-370h-147zM133 67q27 52 65.5 78t98.5 26h668v-253h-180v179h-397q-29 0 -48.5 -12.5t-33.5 -39.5l-67 -127h-183zM590 682h154v-158h59v158h163v-451h-163v192h-59v-192h-154v451z" />
    <glyph glyph-name="uniAE7C" unicode="&#xae7c;" 
d="M394 228v368h-58v-368h-148v368h-118v76h400q31 0 51 -20t20 -51v-373h-147zM125 66q26 52 65 78t99 26h679v-252h-180v178h-102q-44 0 -56 -42l-40 -136h-173l62 178h-99q-29 0 -48.5 -13t-33.5 -39l-64 -126h-183zM590 682h154v-162h59v162h163v-454h-163v191h-59v-191
h-154v454z" />
    <glyph glyph-name="uniAE7D" unicode="&#xae7d;" 
d="M394 241v355h-58v-355h-148v355h-118v76h400q31 0 51 -20t20 -51v-360h-147zM117 53q0 69 41 104.5t119 35.5h539q78 0 119 -35.5t41 -104.5t-41 -104.5t-119 -35.5h-539q-78 0 -119 35.5t-41 104.5zM311 47q0 -60 60 -60h350q60 0 60 60v12q0 60 -60 60h-350
q-60 0 -60 -60v-12zM590 682h154v-156h59v156h163v-441h-163v184h-59v-184h-154v441z" />
    <glyph glyph-name="uniAE84" unicode="&#xae84;" 
d="M461 -75v671h-78v-671h-178v671h-132v76h493q31 0 51 -20t20 -51v-676h-176zM703 682h182v-200h104v-81h-104v-126h104v-81h-104v-276h-182v764z" />
    <glyph glyph-name="uniAE85" unicode="&#xae85;" 
d="M471 248v348h-78v-348h-178v348h-142v76h503q31 0 51 -20t20 -51v-353h-176zM80 192h808v-274h-186v198h-622v76zM703 682h182v-93h104v-81h-104v-75h104v-81h-104v-104h-182v434z" />
    <glyph glyph-name="uniAE86" unicode="&#xae86;" 
d="M885 682v-102h104v-81h-104v-64h104v-81h-104v-114h-182v442h182zM73 672h513q31 0 51 -20t20 -51v-361h-176v356h-84v-356h-178v356h-146v76zM84 192h804v-274h-176v198h-189v-198h-176v198h-263v76z" />
    <glyph glyph-name="uniAE8C" unicode="&#xae8c;" 
d="M461 297v299h-66v-299h-178v299h-144v76h493q31 0 51 -20t20 -51v-304h-176zM85 120h620v50h-620v74h802v-195h-620v-52h622v-79h-744q-60 0 -60 60v142zM703 682h182v-92h104v-81h-104v-56h104v-81h-104v-75h-182v385z" />
    <glyph glyph-name="uniAE8D" unicode="&#xae8d;" 
d="M461 289v307h-66v-307h-178v307h-144v76h493q31 0 51 -20t20 -51v-312h-176zM91 120h208v50h-208v74h370v-195h-208v-52h210v-79h-312q-60 0 -60 60v142zM508 244h377v-326h-182v252h-195v74zM703 682h182v-82h104v-81h-104v-60h104v-81h-104v-89h-182v393z" />
    <glyph glyph-name="uniAEA0" unicode="&#xaea0;" 
d="M393 -75v671h-58v-671h-148v671h-117v76h399q31 0 51 -20t20 -51v-676h-147zM586 682h154v-172h63v172h163v-764h-163v232h-63v-232h-154v764zM803 247v166h-63v-166h63z" />
    <glyph glyph-name="uniAEA4" unicode="&#xaea4;" 
d="M383 241v355h-58v-355h-148v355h-107v76h389q31 0 51 -20t20 -51v-360h-147zM101 182h182v-188h680v-76h-802q-60 0 -60 60v204zM584 682h154v-133h65v133h163v-581h-163v141h-65v-141h-154v581zM803 339v113h-65v-113h65z" />
    <glyph glyph-name="uniAEBC" unicode="&#xaebc;" 
d="M951 682v-764h-182v344h-75v-337h-176v671h-96v-671h-178v671h-171v76h550q31 0 51 -20t20 -51v-248h75v329h182z" />
    <glyph glyph-name="uniAEBD" unicode="&#xaebd;" 
d="M951 682v-441h-182v176h-72v-176h-176v355h-86v-355h-178v355h-184v76h553q31 0 51 -20t20 -51v-93h72v174h182zM107 192h844v-274h-186v198h-658v76z" />
    <glyph glyph-name="uniAEBE" unicode="&#xaebe;" 
d="M951 682v-441h-182v187h-72v-187h-176v355h-86v-355h-178v355h-184v76h553q31 0 51 -20t20 -51v-82h72v163h182zM114 192h836v-274h-176v198h-221v-198h-176v198h-263v76z" />
    <glyph glyph-name="uniAEC0" unicode="&#xaec0;" 
d="M951 682v-551h-182v272h-82v-162h-176v355h-86v-355h-178v355h-174v76h543q31 0 51 -20t20 -51v-107h82v188h182zM101 182h182v-188h670v-76h-792q-60 0 -60 60v204z" />
    <glyph glyph-name="uniAEC4" unicode="&#xaec4;" 
d="M951 682v-386h-182v142h-77v-142h-176v300h-86v-300h-178v300h-179v76h548q31 0 51 -20t20 -51v-72h77v153h182zM115 120h655v50h-655v74h837v-195h-655v-52h657v-79h-779q-60 0 -60 60v142z" />
    <glyph glyph-name="uniAECC" unicode="&#xaecc;" 
d="M951 682v-414h-182v163h-78v-163h-176v328h-86v-328h-178v328h-178v76h547q31 0 51 -20t20 -51v-79h78v160h182zM106 210h844v-292h-724q-59 0 -89.5 31t-30.5 94v167zM288 37q0 -40 40 -40h440v137h-480v-97z" />
    <glyph glyph-name="uniAECD" unicode="&#xaecd;" 
d="M952 220v-302h-732q-59 0 -89.5 31t-30.5 94v177h182v-64h488v64h182zM73 672h548q31 0 51 -20t20 -51v-74h77v155h182v-409h-182v163h-77v-163h-176v323h-86v-323h-178v323h-179v76zM282 37q0 -40 40 -40h448v82h-488v-42z" />
    <glyph glyph-name="uniAECF" unicode="&#xaecf;" 
d="M951 682v-456h-182v190h-82v-190h-176v370h-86v-370h-178v370h-174v76h543q31 0 51 -20t20 -51v-94h82v175h182zM164 66q27 52 65.5 78t98.5 26h623v-252h-180v178h-352q-29 0 -48.5 -12.5t-33.5 -39.5l-67 -126h-183z" />
    <glyph glyph-name="uniAED0" unicode="&#xaed0;" 
d="M951 682v-452h-182v196h-82v-196h-176v366h-86v-366h-178v366h-174v76h543q31 0 51 -20t20 -51v-84h82v165h182zM125 66q26 52 65 78t99 26h661v-252h-180v178h-92q-44 0 -56 -42l-40 -136h-173l62 178h-91q-29 0 -48.5 -13t-33.5 -39l-64 -126h-183z" />
    <glyph glyph-name="uniAED1" unicode="&#xaed1;" 
d="M345 119q-60 0 -60 -60v-12q0 -60 60 -60h380q60 0 60 60v12q0 60 -60 60h-380zM73 672h543q31 0 51 -20t20 -51v-88h82v169h182v-442h-182v182h-82v-182h-176v356h-86v-356h-178v356h-174v76zM100 53q0 69 41 104.5t119 35.5h551q78 0 119 -35.5t41 -104.5t-41 -104.5
t-119 -35.5h-551q-78 0 -119 35.5t-41 104.5z" />
    <glyph glyph-name="uniAED3" unicode="&#xaed3;" 
d="M73 672h543q31 0 51 -20t20 -51v-91h82v172h182v-432h-182v169h-82v-169h-176v346h-86v-346h-178v346h-174v76zM955 94h-60v-176h-212v176h-223q-29 0 -46 -13.5t-36 -38.5l-94 -124h-187l104 146l22 30h-148v74h355v57h182v-57h343v-74z" />
    <glyph glyph-name="uniAED5" unicode="&#xaed5;" 
d="M958 228v-72h-669v-40h666v-76h-666v-44h671v-78h-793q-60 0 -60 60v250h851zM73 672h553q31 0 51 -20t20 -51v-84h72v165h182v-407h-182v151h-72v-151h-176v321h-86v-321h-178v321h-184v76z" />
    <glyph glyph-name="uniAED8" unicode="&#xaed8;" 
d="M588 395v287h159v-764h-159v371h-57v-364h-143v671h-68v-671h-145v671h-122v76h407q31 0 51 -20t20 -51v-206h57zM798 682h168v-764h-168v764z" />
    <glyph glyph-name="uniAED9" unicode="&#xaed9;" 
d="M588 501v181h159v-431h-159v154h-53v-154h-143v345h-68v-345h-145v345h-126v76h411q31 0 51 -20t20 -51v-100h53zM100 192h867v-274h-186v198h-681v76zM798 682h168v-431h-168v431z" />
    <glyph glyph-name="uniAEDC" unicode="&#xaedc;" 
d="M283 182v-188h680v-76h-802q-60 0 -60 60v204h182zM53 672h403q31 0 51 -20t20 -51v-110h57v191h159v-554h-159v267h-57v-154h-143v355h-68v-355h-145v355h-118v76zM798 682h168v-554h-168v554z" />
    <glyph glyph-name="uniAEE8" unicode="&#xaee8;" 
d="M588 502v180h159v-419h-159v143h-61v-143h-143v333h-68v-333h-145v333h-118v76h403q31 0 51 -20t20 -51v-99h61zM106 210h862v-292h-742q-59 0 -89.5 31t-30.5 94v167zM288 37q0 -40 40 -40h458v137h-498v-97zM798 682h168v-419h-168v419z" />
    <glyph glyph-name="uniAEEB" unicode="&#xaeeb;" 
d="M585 489v193h159v-455h-159v166h-58v-166h-143v369h-68v-369h-145v369h-118v76h403q31 0 51 -20t20 -51v-112h58zM133 66q27 52 65.5 78t98.5 26h666v-252h-180v178h-395q-29 0 -48.5 -12.5t-33.5 -39.5l-67 -126h-183zM798 682h168v-455h-168v455z" />
    <glyph glyph-name="uniAEED" unicode="&#xaeed;" 
d="M583 489v193h159v-445h-159v156h-56v-156h-143v359h-68v-359h-145v359h-118v76h403q31 0 51 -20t20 -51v-112h56zM107 53q0 69 41 104.5t119 35.5h549q78 0 119 -35.5t41 -104.5t-41 -104.5t-119 -35.5h-549q-78 0 -119 35.5t-41 104.5zM301 47q0 -60 60 -60h360
q60 0 60 60v12q0 60 -60 60h-360q-60 0 -60 -60v-12zM798 682h168v-445h-168v445z" />
    <glyph glyph-name="uniAEF4" unicode="&#xaef4;" 
d="M951 682v-764h-182v232h-82v-225h-176v671h-86v-671h-178v671h-174v76h543q31 0 51 -20t20 -51v-128h82v209h182zM769 244v135h-82v-135h82z" />
    <glyph glyph-name="uniAEF8" unicode="&#xaef8;" 
d="M951 682v-551h-182v182h-82v-62h-176v345h-86v-345h-178v345h-174v76h543q31 0 51 -20t20 -51v-30h82v111h182zM101 182h182v-188h670v-76h-792q-60 0 -60 60v204zM769 407v70h-82v-70h82z" />
    <glyph glyph-name="uniAEFC" unicode="&#xaefc;" 
d="M951 682v-386h-182v39h-82v-39h-176v300h-86v-300h-178v300h-174v76h543q31 0 51 -20t20 -51v-27h82v108h182zM115 120h655v50h-655v74h837v-195h-655v-52h657v-79h-779q-60 0 -60 60v142zM769 426v57h-82v-57h82z" />
    <glyph glyph-name="uniAF07" unicode="&#xaf07;" 
d="M951 682v-472h-182v87h-76v-87h-176v386h-86v-386h-178v386h-180v76h549q31 0 51 -20t20 -51v-52h76v133h182zM164 66q27 52 65.5 78t98.5 26h623v-252h-180v178h-352q-29 0 -48.5 -12.5t-33.5 -39.5l-67 -126h-183zM769 388v70h-76v-70h76z" />
    <glyph glyph-name="uniAF08" unicode="&#xaf08;" 
d="M951 682v-466h-182v83h-72v-83h-176v380h-86v-380h-178v380h-184v76h553q31 0 51 -20t20 -51v-50h72v131h182zM125 66q26 52 65 78t99 26h661v-252h-180v178h-92q-44 0 -56 -42l-40 -136h-173l62 178h-91q-29 0 -48.5 -13t-33.5 -39l-64 -126h-183zM769 390v70h-72v-70
h72z" />
    <glyph glyph-name="uniAF09" unicode="&#xaf09;" 
d="M951 682v-453h-182v75h-72v-75h-176v367h-86v-367h-178v367h-184v76h553q31 0 51 -20t20 -51v-45h72v126h182zM107 53q0 69 41 104.5t119 35.5h549q78 0 119 -35.5t41 -104.5t-41 -104.5t-119 -35.5h-549q-78 0 -119 35.5t-41 104.5zM301 47q0 -60 60 -60h360q60 0 60 60
v12q0 60 -60 60h-360q-60 0 -60 -60v-12zM769 395v70h-72v-70h72z" />
    <glyph glyph-name="uniAF0D" unicode="&#xaf0d;" 
d="M951 682v-406h-182v64h-72v-64h-176v320h-86v-320h-178v320h-184v76h553q31 0 51 -20t20 -51v-24h72v105h182zM107 228h844v-72h-662v-40h659v-76h-659v-44h664v-78h-786q-60 0 -60 60v250zM769 427v63h-72v-63h72z" />
    <glyph glyph-name="uniAF10" unicode="&#xaf10;" 
d="M584 495v187h159v-764h-159v242h-61v-235h-143v671h-58v-671h-145v671h-124v76h399q31 0 51 -20t20 -51v-106h61zM584 256v143h-61v-143h61zM798 682h168v-764h-168v764z" />
    <glyph glyph-name="uniAF2C" unicode="&#xaf2c;" 
d="M717 115v484h-272v-330h123v-264h398v-76h-914v76h344v110h-137v484h-178v77h730q40 0 66 -26t26 -66v-469h-186z" />
    <glyph glyph-name="uniAF2D" unicode="&#xaf2d;" 
d="M717 375v224h-265v-125h162v-154h352v-76h-914v76h382v55h-168v224h-185v77h730q40 0 66 -26t26 -66v-209h-186zM111 182h792v-264h-186v187h-606v77z" />
    <glyph glyph-name="uniAF30" unicode="&#xaf30;" 
d="M717 350v249h-245v-149h127v-164h367v-76h-914v76h381v64h-147v249h-205v77h730q40 0 66 -26t26 -66v-234h-186zM106 149h182v-155h628v-76h-750q-60 0 -60 60v171z" />
    <glyph glyph-name="uniAF32" unicode="&#xaf32;" 
d="M717 395v204h-235v-107h147v-148h337v-76h-914v76h421v51h-177v204h-215v77h730q40 0 66 -26t26 -66v-189h-186zM139 223h172v-229h174v-76h-286q-60 0 -60 60v245zM524 20q0 40 26 66t66 26h195q40 0 66 -26t26 -66v-10q0 -40 -26 -66t-66 -26h-195q-40 0 -66 26t-26 66
v10zM525 205h125v37h128v-37h124v-69h-377v69zM674 12q0 -11 7 -18t18 -7h29q11 0 18 7t7 18v6q0 11 -7 18t-18 7h-28q-11 0 -18.5 -7t-7.5 -18v-6z" />
    <glyph glyph-name="uniAF33" unicode="&#xaf33;" 
d="M908 175v-76l-604 -1v-105l604 1v-76l-726 -1q-60 0 -60 60v197zM52 311h405v52h-161v236h-215v77h730q40 0 66 -26t26 -66v-221h-186v236h-235v-134h141v-154h343v-76h-914v76z" />
    <glyph glyph-name="uniAF34" unicode="&#xaf34;" 
d="M726 107v44h-620v72h802v-183h-617v-43h619v-79h-741q-60 0 -60 60v129h617zM52 354h379v46h-125v199h-225v77h730q40 0 66 -26t26 -66v-184h-186v199h-225v-102h125v-143h349v-76h-914v76z" />
    <glyph glyph-name="uniAF3C" unicode="&#xaf3c;" 
d="M717 373v226h-217v-129h115v-146h351v-76h-914v76h377v49h-115v226h-233v77h730q40 0 66 -26t26 -66v-211h-186zM115 187h800v-269h-680q-59 0 -89.5 30t-30.5 97v142zM297 34q0 -40 40 -40h396v117h-436v-77z" />
    <glyph glyph-name="uniAF3D" unicode="&#xaf3d;" 
d="M909 201v-283h-669q-59 0 -89.5 31t-30.5 94v158h182v-60h425v60h182zM52 324h382v49h-140v226h-213v77h730q40 0 66 -26t26 -66v-211h-186v226h-237v-121h140v-154h346v-76h-914v76zM302 37q0 -40 40 -40h385v67h-425v-27z" />
    <glyph glyph-name="uniAF3F" unicode="&#xaf3f;" 
d="M717 358v241h-235v-146h139v-144h345v-76h-914v76h383v49h-139v241h-215v77h730q40 0 66 -26t26 -66v-226h-186zM107 78q20 54 62 79t102 25h645v-264h-180v190h-364q-29 0 -50.5 -12.5t-31.5 -36.5l-56 -141h-185z" />
    <glyph glyph-name="uniAF41" unicode="&#xaf41;" 
d="M327 119q-60 0 -60 -60v-12q0 -60 60 -60h369q60 0 60 60v12q0 60 -60 60h-369zM52 324h387v45h-143v230h-215v77h730q40 0 66 -26t26 -66v-215h-186v230h-235v-131h142v-144h342v-76h-914v76zM77 53q0 69 41 104.5t119 35.5h548q78 0 119 -35.5t41 -104.5t-41 -104.5
t-119 -35.5h-548q-78 0 -119 35.5t-41 104.5z" />
    <glyph glyph-name="uniAF42" unicode="&#xaf42;" 
d="M717 367v232h-229v-132h122v-144h356v-76h-914v76h372v44h-122v232h-221v77h730q40 0 66 -26t26 -66v-217h-186zM78 187h871v-74h-62v-195h-180v195h-252q-29 0 -47 -13t-35 -39l-94 -143h-187l104 165l20 30h-138v74z" />
    <glyph glyph-name="uniAF43" unicode="&#xaf43;" 
d="M945 84h-58v-166h-180v166h-252q-29 0 -46 -14t-36 -38l-94 -114h-187l104 136l24 30h-146v74h342v67h186v-67h343v-74zM52 340h396v43h-162v216h-205v77h750q40 0 66 -26t26 -66v-201h-186v216h-265v-125h163v-134h331v-76h-914v76z" />
    <glyph glyph-name="uniAF45" unicode="&#xaf45;" 
d="M930 222v-67h-640v-47h633v-71h-633v-46h640v-73h-762q-60 0 -60 60v244h822zM52 349h377v43h-143v207h-205v77h730q40 0 66 -26t26 -66v-192h-186v207h-245v-115h143v-135h351v-76h-914v76z" />
    <glyph glyph-name="uniAF48" unicode="&#xaf48;" 
d="M889 682v-312h104v-81h-104v-371h-182v764h182zM42 4h222v106h-100v486h-106v76h217q26 0 43.5 -17.5t17.5 -43.5v-390h114v-218h218v-76l-626 1v76zM377 672h229q26 0 43.5 -17.5t17.5 -43.5v-501h-166v486h-124v76z" />
    <glyph glyph-name="uniAF49" unicode="&#xaf49;" 
d="M279 299v50h-124v247h-97v76h204q26 0 43.5 -17.5t17.5 -43.5v-155h117v-157h232v-76h-621v76h228zM83 168h806v-250h-186v173h-620v77zM358 672h249q26 0 43.5 -17.5t17.5 -43.5v-262h-166v247h-144v76zM707 682h182v-198h104v-81h-104v-180h-182v459z" />
    <glyph glyph-name="uniAF4C" unicode="&#xaf4c;" 
d="M282 292v44h-102v260h-107v76h214q26 0 43.5 -17.5t17.5 -43.5v-165h98v-154h229v-76h-624v76h231zM101 154h182v-160h610v-76h-732q-60 0 -60 60v176zM380 672h230q26 0 43.5 -17.5t17.5 -43.5v-275h-166v260h-125v76zM707 682h182v-201h104v-81h-104v-324h-182v606z
" />
    <glyph glyph-name="uniAF50" unicode="&#xaf50;" 
d="M278 347v43h-113v206h-92v74h198q26 0 43.5 -17.5t17.5 -43.5v-133h107v-129h233v-76h-621v76h227zM96 110h606v38h-606v74h788v-183h-606v-42h608v-79h-730q-60 0 -60 60v132zM369 672h239q26 0 43.5 -17.5t17.5 -43.5v-221h-166v206h-134v76zM707 682h182v-177h104v-81
h-104v-153h-182v411z" />
    <glyph glyph-name="uniAF5C" unicode="&#xaf5c;" 
d="M284 295v43h-108v258h-103v76h210q26 0 43.5 -17.5t17.5 -43.5v-167h92v-149h237v-76h-622v76h233zM125 66q26 52 65 78t99 26h600v-252h-180v178h-61q-44 0 -56 -42l-40 -136h-173l62 178h-61q-29 0 -48.5 -13t-33.5 -39l-64 -126h-183zM381 672h230q26 0 43.5 -17.5
t17.5 -43.5v-273h-166v258h-125v76zM707 682h182v-182h104v-81h-104v-200h-182v463z" />
    <glyph glyph-name="uniAF5D" unicode="&#xaf5d;" 
d="M288 313v36h-109v247h-121v76h228q26 0 43.5 -17.5t17.5 -43.5v-151h93v-147h232v-76h-621v76h237zM62 53q0 69 41 104.5t119 35.5h529q78 0 119 -35.5t41 -104.5t-41 -104.5t-119 -35.5h-529q-78 0 -119 35.5t-41 104.5zM256 47q0 -60 60 -60h340q60 0 60 60v12
q0 60 -60 60h-340q-60 0 -60 -60v-12zM380 672h235q26 0 43.5 -17.5t17.5 -43.5v-262h-166v247h-130v76zM707 682h182v-179h104v-81h-104v-185h-182v445z" />
    <glyph glyph-name="uniAF64" unicode="&#xaf64;" 
d="M767 682v-315h45v315h158v-764h-158v358h-45v-358h-150v764h150zM46 672h184q26 0 43.5 -17.5t17.5 -43.5v-389h86v-219h201v-76h-526v76h187v104h-98v489h-95v76zM324 672h193q26 0 43.5 -17.5t17.5 -43.5v-504h-156v489h-98v76z" />
    <glyph glyph-name="uniAF65" unicode="&#xaf65;" 
d="M764 682v-200h46v200h160v-465h-160v174h-46v-174h-151v465h151zM45 672h172q26 0 43.5 -17.5t17.5 -43.5v-162h86v-156h207v-76h-520v76h165v43h-94v260h-77v76zM71 162h898v-244h-186v168h-712v76zM312 672h203q26 0 43.5 -17.5t17.5 -43.5v-275h-154v260h-110v76z" />
    <glyph glyph-name="uniAF68" unicode="&#xaf68;" 
d="M758 682v-209h52v209h160v-566h-160v266h-52v-266h-151v566h151zM47 672h174q26 0 43.5 -17.5t17.5 -43.5v-167h74v-142h221v-76h-526v76h167v40h-92v254h-79v76zM101 165h182v-171h680v-76h-802q-60 0 -60 60v187zM311 672h204q26 0 43.5 -17.5t17.5 -43.5v-269h-154
v254h-111v76z" />
    <glyph glyph-name="uniAF78" unicode="&#xaf78;" 
d="M758 682v-188h52v188h160v-458h-160v179h-52v-179h-151v458h151zM41 672h190q26 0 43.5 -17.5t17.5 -43.5v-162h68v-149h221v-76h-530v76h166v37h-81v259h-95v76zM125 66q26 52 65 78t99 26h680v-252h-180v178h-103q-44 0 -56 -42l-40 -136h-173l62 178h-99
q-29 0 -48.5 -13t-33.5 -39l-64 -126h-183zM322 672h192q26 0 43.5 -17.5t17.5 -43.5v-274h-154v259h-99v76z" />
    <glyph glyph-name="uniAF79" unicode="&#xaf79;" 
d="M758 682v-186h52v186h160v-436h-160v159h-52v-159h-151v436h151zM45 672h176q26 0 43.5 -17.5t17.5 -43.5v-143h86v-146h212v-76h-529v76h179v36h-104v238h-81v76zM80 53q0 69 41 104.5t119 35.5h582q78 0 119 -35.5t41 -104.5t-41 -104.5t-119 -35.5h-582
q-78 0 -119 35.5t-41 104.5zM265 47q0 -60 60 -60h411q60 0 60 60v12q0 60 -60 60h-411q-60 0 -60 -60v-12zM311 672h202q26 0 43.5 -17.5t17.5 -43.5v-253h-154v238h-109v76z" />
    <glyph glyph-name="uniAF80" unicode="&#xaf80;" 
d="M951 682v-764h-182v764h182zM42 3h260v116h-129v477h-115v76h236q26 0 43.5 -17.5t17.5 -43.5v-370h120v-238h248v-76h-681v76zM395 672h273q26 0 43.5 -17.5t17.5 -43.5v-492h-180v477h-154v76z" />
    <glyph glyph-name="uniAF84" unicode="&#xaf84;" 
d="M951 682v-577h-182v577h182zM62 288h264v57h-140v251h-112v76h223q26 0 43.5 -17.5t17.5 -43.5v-171h135v-152h243v-76h-674v76zM101 165h182v-171h673v-76h-795q-60 0 -60 60v187zM397 672h271q26 0 43.5 -17.5t17.5 -43.5v-266h-168v251h-164v76z" />
    <glyph glyph-name="uniAF88" unicode="&#xaf88;" 
d="M951 682v-411h-182v411h182zM62 347h245v40h-106v209h-128v76h245q26 0 43.5 -17.5t17.5 -43.5v-127h106v-137h248v-76h-671v76zM106 110h663v38h-663v74h845v-183h-663v-42h665v-79h-787q-60 0 -60 60v132zM415 672h253q26 0 43.5 -17.5t17.5 -43.5v-224h-175v209h-139
v76z" />
    <glyph glyph-name="uniAF90" unicode="&#xaf90;" 
d="M951 682v-442h-182v442h182zM62 316h238v41h-104v239h-124v76h239q26 0 43.5 -17.5t17.5 -43.5v-157h106v-138h257v-76h-673v76zM104 187h850v-269h-730q-59 0 -89.5 30t-30.5 97v142zM286 34q0 -40 40 -40h446v117h-486v-77zM406 672h264q26 0 43.5 -17.5t17.5 -43.5
v-254h-174v239h-151v76z" />
    <glyph glyph-name="uniAF91" unicode="&#xaf91;" 
d="M951 682v-439h-182v439h182zM62 319h245v37h-123v240h-112v76h225q26 0 43.5 -17.5t17.5 -43.5v-153h126v-139h251v-76h-673v76zM110 198h182v-52h481v52h182v-280h-725q-59 0 -89.5 31t-30.5 94v155zM292 37q0 -40 40 -40h441v72h-481v-32zM392 672h275q26 0 43.5 -17.5
t17.5 -43.5v-255h-174v240h-162v76z" />
    <glyph glyph-name="uniAF95" unicode="&#xaf95;" 
d="M951 682v-438h-182v438h182zM62 320h249v32h-109v244h-130v76h243q26 0 43.5 -17.5t17.5 -43.5v-141h112v-150h247v-76h-673v76zM88 53q0 69 41 104.5t119 35.5h556q78 0 119 -35.5t41 -104.5t-41 -104.5t-119 -35.5h-556q-78 0 -119 35.5t-41 104.5zM282 47
q0 -60 60 -60h367q60 0 60 60v12q0 60 -60 60h-367q-60 0 -60 -60v-12zM409 672h259q26 0 43.5 -17.5t17.5 -43.5v-259h-174v244h-146v76z" />
    <glyph glyph-name="uniAF9C" unicode="&#xaf9c;" 
d="M735 170v-165h231v-76h-914v76h246v165h-46v429h-194v77h321q26 0 43.5 -17.5t17.5 -43.5v-361h47v-249h59v249h169v345h-228v77h355q26 0 43.5 -17.5t17.5 -43.5v-445h-168z" />
    <glyph glyph-name="uniAFB8" unicode="&#xafb8;" 
d="M697 282v317h-191v-317h-186v317h-239v77h730q40 0 66 -26t26 -66v-302h-206zM68 243h882v-77h-314v-248h-186v248h-382v77z" />
    <glyph glyph-name="uniAFB9" unicode="&#xafb9;" 
d="M717 336v263h-217v-263h-186v263h-233v77h730q40 0 66 -26t26 -66v-248h-186zM68 297h882v-77h-344v-105h297v-197h-186v120h-606v77h309v105h-352v77z" />
    <glyph glyph-name="uniAFBC" unicode="&#xafbc;" 
d="M717 332v267h-221v-267h-186v267h-229v77h730q40 0 66 -26t26 -66v-252h-186zM68 293h882v-77h-315v-135h-186v135h-381v77zM106 136h182v-142h622v-76h-744q-60 0 -60 60v158z" />
    <glyph glyph-name="uniAFC0" unicode="&#xafc0;" 
d="M737 412v187h-241v-187h-186v187h-239v77h760q40 0 66 -26t26 -66v-172h-186zM68 371h882v-77h-344v-59h298v-189h-620v-49h622v-79h-744q-60 0 -60 60v135h620v50h-623v72h321v59h-352v77z" />
    <glyph glyph-name="uniAFC7" unicode="&#xafc7;" 
d="M717 389v210h-201v-210h-186v210h-249v77h730q40 0 66 -26t26 -66v-195h-186zM68 350h882v-77h-344v-68h44v37h128v-37h124v-69h-377v48h-42v-143h-220v-45h222v-78h-319q-60 0 -60 60v131h220v42h-220v72h314v50h-352v77zM524 20q0 40 26 66t66 26h195q40 0 66 -26
t26 -66v-10q0 -40 -26 -66t-66 -26h-195q-40 0 -66 26t-26 66v10zM674 12q0 -11 7 -18t18 -7h29q11 0 18 7t7 18v6q0 11 -7 18t-18 7h-28q-11 0 -18.5 -7t-7.5 -18v-6z" />
    <glyph glyph-name="uniAFC8" unicode="&#xafc8;" 
d="M717 378v221h-211v-221h-186v221h-239v77h730q40 0 66 -26t26 -66v-206h-186zM68 335h882v-77h-354v-71h309v-269h-690q-59 0 -89.5 30t-30.5 97v142h315v71h-342v77zM277 34q0 -40 40 -40h406v117h-446v-77z" />
    <glyph glyph-name="uniAFC9" unicode="&#xafc9;" 
d="M717 373v226h-211v-226h-186v226h-239v77h730q40 0 66 -26t26 -66v-211h-186zM68 333h882v-77h-344v-70h-186v70h-352v77zM100 198h182v-52h445v52h182v-280h-689q-59 0 -89.5 31t-30.5 94v155zM282 37q0 -40 40 -40h405v72h-445v-32z" />
    <glyph glyph-name="uniAFCB" unicode="&#xafcb;" 
d="M916 -82h-180v190h-364q-29 0 -50.5 -12.5t-31.5 -36.5l-56 -141h-185l58 160q20 54 62 79t102 25h149v65h-352v77h882v-77h-344v-65h310v-264zM81 676h730q40 0 66 -26t26 -66v-222h-186v237h-241v-237h-186v237h-209v77z" />
    <glyph glyph-name="uniAFCD" unicode="&#xafcd;" 
d="M336 119q-60 0 -60 -60v-12q0 -60 60 -60h363q60 0 60 60v12q0 60 -60 60h-363zM69 336h882v-77h-348v-66h186q78 0 119 -35.5t41 -104.5t-41 -104.5t-119 -35.5h-542q-78 0 -119 35.5t-41 104.5t41 104.5t119 35.5h170v66h-348v77zM81 676h730q40 0 66 -26t26 -66v-213
h-186v228h-211v-228h-186v228h-239v77z" />
    <glyph glyph-name="uniAFCE" unicode="&#xafce;" 
d="M949 114h-62v-196h-180v196h-252q-29 0 -47 -13t-35 -39l-94 -144h-187l104 166l20 30h-138v74h339v66h-348v77h882v-77h-348v-66h346v-74zM81 676h730q40 0 66 -26t26 -66v-216h-186v231h-221v-231h-186v231h-229v77z" />
    <glyph glyph-name="uniAFCF" unicode="&#xafcf;" 
d="M949 64h-62v-146h-180v146h-252q-29 0 -44.5 -15t-37.5 -37l-94 -94h-187l104 116l26 30h-144v74h329v48h186v-48h356v-74zM69 352h882v-77h-358v-65h-186v65h-338v77zM81 676h730q40 0 66 -26t26 -66v-196h-186v211h-221v-211h-186v211h-229v77z" />
    <glyph glyph-name="uniAFD4" unicode="&#xafd4;" 
d="M951 682v-764h-182v93h-201v91h201v580h182zM727 246l1 -83h-240v-245h-188v245h-237l-1 83h665zM72 672h244q26 0 43.5 -17.5t17.5 -43.5v-333h-172v318h-133v76zM416 672h247q26 0 43.5 -17.5t17.5 -43.5v-333h-170v318h-138v76z" />
    <glyph glyph-name="uniAFD8" unicode="&#xafd8;" 
d="M951 682v-598h-182v49h-193v79h193v470h182zM62 326h666v-76h-200v-154h-188v154h-278v76zM74 672h244q26 0 43.5 -17.5t17.5 -43.5v-254h-172v239h-133v76zM101 170h182v-176h673v-76h-795q-60 0 -60 60v192zM419 672h247q26 0 43.5 -17.5t17.5 -43.5v-254h-170v239
h-138v76z" />
    <glyph glyph-name="uniAFDC" unicode="&#xafdc;" 
d="M951 682v-435h-182v204h-56v-62h-180v207h-118v76h237q26 0 43.5 -17.5t17.5 -43.5v-78h56v149h182zM62 364h663v-76h-197v-45h-188v45h-278v76zM73 672h249q26 0 43.5 -17.5t17.5 -43.5v-222h-182v207h-128v76zM106 108h663v40h-663v74h845v-185h-663v-40h665v-79h-787
q-60 0 -60 60v130z" />
    <glyph glyph-name="uniAFE8" unicode="&#xafe8;" 
d="M951 682v-483h-182v274h-60v-115h-180v238h-124v76h243q26 0 43.5 -17.5t17.5 -43.5v-62h60v133h182zM125 66q26 52 65 78t99 26h661v-252h-180v178h-92q-44 0 -56 -42l-40 -136h-173l62 178h-91q-29 0 -48.5 -13t-33.5 -39l-64 -126h-183zM62 328h653v-76h-187v-57h-188
v57h-278v76zM73 672h236q26 0 43.5 -17.5t17.5 -43.5v-253h-182v238h-115v76z" />
    <glyph glyph-name="uniAFE9" unicode="&#xafe9;" 
d="M951 682v-449h-182v236h-63v-61h-180v188h-121v76h240q26 0 43.5 -17.5t17.5 -43.5v-66h63v137h182zM62 375h660v-76h-194v-70h-188v70h-278v76zM73 672h236q26 0 43.5 -17.5t17.5 -43.5v-203h-182v188h-115v76zM85 53q0 69 41 104.5t119 35.5h562q78 0 119 -35.5
t41 -104.5t-41 -104.5t-119 -35.5h-562q-78 0 -119 35.5t-41 104.5zM279 47q0 -60 60 -60h373q60 0 60 60v12q0 60 -60 60h-373q-60 0 -60 -60v-12z" />
    <glyph glyph-name="uniAFF0" unicode="&#xaff0;" 
d="M758 682v-764h-151v93h-139v91h139v580h151zM46 672h182q26 0 43.5 -17.5t17.5 -43.5v-330h-156v315h-87v76zM51 246h520v-76h-170v-252h-158v252h-192v76zM319 672h190q26 0 43.5 -17.5t17.5 -43.5v-330h-154v315h-97v76zM810 682h160v-764h-160v764z" />
    <glyph glyph-name="uniAFF1" unicode="&#xaff1;" 
d="M758 682v-487h-151v279h-40v-91h-154v213h-97v76h190q26 0 43.5 -17.5t17.5 -43.5v-62h40v133h151zM47 672h179q26 0 43.5 -17.5t17.5 -43.5v-228h-156v213h-84v76zM51 353h519v-76h-169v-82h-158v82h-192v76zM71 162h898v-244h-186v168h-712v76zM810 682h160v-487h-160
v487z" />
    <glyph glyph-name="uniAFF4" unicode="&#xaff4;" 
d="M758 682v-569h-151v39h-155v91h155v439h151zM47 672h176q26 0 43.5 -17.5t17.5 -43.5v-231h-156v216h-81v76zM51 350h527v-76h-187v-161h-108v-119h680v-76h-802q-60 0 -60 60v197h132v99h-182v76zM314 672h193q26 0 43.5 -17.5t17.5 -43.5v-231h-154v216h-100v76z
M810 682h160v-569h-160v569z" />
    <glyph glyph-name="uniAFF8" unicode="&#xaff8;" 
d="M758 682v-431h-151v236h-41v-68h-154v177h-92v76h185q26 0 43.5 -17.5t17.5 -43.5v-49h41v120h151zM47 672h186q26 0 43.5 -17.5t17.5 -43.5v-192h-156v177h-91v76zM51 389h521v-76h-171v-62h-158v62h-192v76zM106 110h685v38h-685v74h867v-183h-685v-42h687v-79h-809
q-60 0 -60 60v132zM810 682h160v-431h-160v431z" />
    <glyph glyph-name="uniB000" unicode="&#xb000;" 
d="M758 682v-467h-151v262h-42v-97h-154v216h-93v76h186q26 0 43.5 -17.5t17.5 -43.5v-59h42v130h151zM47 672h184q26 0 43.5 -17.5t17.5 -43.5v-231h-156v216h-89v76zM51 348h527v-76h-177v-57h-158v57h-192v76zM104 187h868v-269h-748q-59 0 -89.5 30t-30.5 97v142z
M286 34q0 -40 40 -40h464v117h-504v-77zM810 682h160v-467h-160v467z" />
    <glyph glyph-name="uniB001" unicode="&#xb001;" 
d="M758 682v-458h-151v236h-43v-83h-154v219h-91v76h184q26 0 43.5 -17.5t17.5 -43.5v-76h43v147h151zM47 672h183q26 0 43.5 -17.5t17.5 -43.5v-234h-156v219h-88v76zM51 352h517v-76h-167v-52h-158v52h-192v76zM110 198h182v-52h499v52h182v-280h-743q-59 0 -89.5 31
t-30.5 94v155zM292 37q0 -40 40 -40h459v72h-499v-32zM810 682h160v-458h-160v458z" />
    <glyph glyph-name="uniB004" unicode="&#xb004;" 
d="M758 682v-475h-151v256h-44v-88h-154v221h-92v76h185q26 0 43.5 -17.5t17.5 -43.5v-71h44v142h151zM47 672h185q26 0 43.5 -17.5t17.5 -43.5v-236h-156v221h-90v76zM125 66q26 52 65 78t99 26h670v-252h-180v178h-96q-44 0 -56 -42l-40 -136h-173l62 178h-96
q-29 0 -48.5 -13t-33.5 -39l-64 -126h-183zM51 346h524v-76h-174v-63h-158v63h-192v76zM810 682h160v-475h-160v475z" />
    <glyph glyph-name="uniB00C" unicode="&#xb00c;" 
d="M951 682v-764h-182v764h182zM62 246h671v-76h-223v-252h-188v252h-260v76zM69 672h253q26 0 43.5 -17.5t17.5 -43.5v-329h-182v314h-132v76zM420 672h245q26 0 43.5 -17.5t17.5 -43.5v-329h-180v314h-126v76z" />
    <glyph glyph-name="uniB010" unicode="&#xb010;" 
d="M951 682v-614h-182v614h182zM62 296h673v-76h-183v-142h-188v142h-302v76zM73 672h242q26 0 43.5 -17.5t17.5 -43.5v-275h-182v260h-121v76zM101 165h182v-171h676v-76h-798q-60 0 -60 60v187zM413 672h256q26 0 43.5 -17.5t17.5 -43.5v-275h-180v260h-137v76z" />
    <glyph glyph-name="uniB014" unicode="&#xb014;" 
d="M951 682v-432h-182v432h182zM62 386h669v-76h-231v-60h-188v60h-250v76zM72 672h247q26 0 43.5 -17.5t17.5 -43.5v-195h-162v180h-146v76zM106 110h663v38h-663v74h845v-183h-663v-42h665v-79h-787q-60 0 -60 60v132zM420 672h249q26 0 43.5 -17.5t17.5 -43.5v-195h-166
v180h-144v76z" />
    <glyph glyph-name="uniB01C" unicode="&#xb01c;" 
d="M951 682v-464h-182v464h182zM62 354h673v-76h-225v-60h-188v60h-260v76zM73 672h254q26 0 43.5 -17.5t17.5 -43.5v-227h-182v212h-133v76zM104 187h850v-269h-730q-59 0 -89.5 30t-30.5 97v142zM286 34q0 -40 40 -40h446v117h-486v-77zM422 672h246q26 0 43.5 -17.5
t17.5 -43.5v-227h-180v212h-127v76z" />
    <glyph glyph-name="uniB01D" unicode="&#xb01d;" 
d="M951 682v-451h-182v451h182zM62 350h673v-76h-195v-91h-188v91h-290v76zM73 672h251q26 0 43.5 -17.5t17.5 -43.5v-234h-182v219h-130v76zM100 198h182v-52h490v52h182v-280h-734q-59 0 -89.5 31t-30.5 94v155zM282 37q0 -40 40 -40h450v72h-490v-32zM419 672h249
q26 0 43.5 -17.5t17.5 -43.5v-234h-180v219h-130v76z" />
    <glyph glyph-name="uniB028" unicode="&#xb028;" 
d="M717 293v306h-201v-306h-186v306h-249v77h730q40 0 66 -26t26 -66v-291h-186zM68 250h882v-77h-158v-255h-186v255h-162v-260h-186v260h-190v77z" />
    <glyph glyph-name="uniB030" unicode="&#xb030;" 
d="M717 399v200h-191v-200h-186v200h-259v77h730q40 0 66 -26t26 -66v-185h-186zM68 370h882v-77h-166v-58h120v-189h-620v-49h622v-79h-744q-60 0 -60 60v135h620v50h-623v72h151v58h-182v77zM598 235v58h-162v-58h162z" />
    <glyph glyph-name="uniB03C" unicode="&#xb03c;" 
d="M717 349v250h-191v-250h-186v250h-259v77h730q40 0 66 -26t26 -66v-235h-186zM117 66q18 46 51.5 71t81.5 31v68h-182v77h882v-77h-166v-66h110v-252h-180v178h-69q-44 0 -56 -42l-41 -136h-173l61 178h-64q-61 0 -82 -49l-56 -129h-175zM598 170v66h-162v-66h162z" />
    <glyph glyph-name="uniB044" unicode="&#xb044;" 
d="M721 105v494h-209v-494h-182v494h-219v77h700q40 0 66 -26t26 -66v-479h-182zM52 5h914v-76h-914v76z" />
    <glyph glyph-name="uniB045" unicode="&#xb045;" 
d="M717 332v267h-199v-267h-186v267h-221v77h700q40 0 66 -26t26 -66v-252h-186zM51 294h914v-76h-914v76zM121 148h782v-230h-186v153h-596v77z" />
    <glyph glyph-name="uniB048" unicode="&#xb048;" 
d="M717 326v273h-199v-273h-186v273h-221v77h700q40 0 66 -26t26 -66v-258h-186zM51 283h914v-76h-914v76zM122 156h182v-162h606v-76h-728q-60 0 -60 60v178z" />
    <glyph glyph-name="uniB04A" unicode="&#xb04a;" 
d="M717 375v224h-189v-224h-186v224h-231v77h700q40 0 66 -26t26 -66v-209h-186zM51 345h914v-76h-914v76zM139 238h172v-244h174v-76h-286q-60 0 -60 60v260zM524 20q0 40 26 66t66 26h195q40 0 66 -26t26 -66v-10q0 -40 -26 -66t-66 -26h-195q-40 0 -66 26t-26 66v10z
M525 205h125v37h128v-37h124v-69h-377v69zM674 12q0 -11 7 -18t18 -7h29q11 0 18 7t7 18v6q0 11 -7 18t-18 7h-28q-11 0 -18.5 -7t-7.5 -18v-6z" />
    <glyph glyph-name="uniB04C" unicode="&#xb04c;" 
d="M717 395v204h-199v-204h-186v204h-221v77h700q40 0 66 -26t26 -66v-189h-186zM51 355h914v-76h-914v76zM99 235h805v-189h-620v-49h622v-79h-744q-60 0 -60 60v135h620v50h-623v72z" />
    <glyph glyph-name="uniB04E" unicode="&#xb04e;" 
d="M341 108v36h-232v72h389v-176h-232v-44h234v-78h-331q-60 0 -60 60v130h232zM52 330h914v-77h-914v77zM111 676h700q40 0 66 -26t26 -66v-216h-186v231h-199v-231h-186v231h-221v77zM547 220h362v-303h-362v303zM767 -6v149h-78v-149h78z" />
    <glyph glyph-name="uniB053" unicode="&#xb053;" 
d="M950 349v-77h-882v77h882zM106 109h220v42h-220v72h377v-182h-220v-45h222v-78h-319q-60 0 -60 60v131zM111 676h700q40 0 66 -26t26 -66v-199h-186v214h-199v-214h-186v214h-221v77zM524 20q0 40 26 66t66 26h195q40 0 66 -26t26 -66v-10q0 -40 -26 -66t-66 -26h-195
q-40 0 -66 26t-26 66v10zM525 205h125v37h128v-37h124v-69h-377v69zM674 12q0 -11 7 -18t18 -7h29q11 0 18 7t7 18v6q0 11 -7 18t-18 7h-28q-11 0 -18.5 -7t-7.5 -18v-6z" />
    <glyph glyph-name="uniB054" unicode="&#xb054;" 
d="M905 187v-269h-690q-59 0 -89.5 30t-30.5 97v142h810zM101 676h730q40 0 66 -26t26 -66v-226h-186v241h-217v-241h-186v241h-233v77zM68 311h882v-77h-882v77zM277 34q0 -40 40 -40h406v117h-446v-77z" />
    <glyph glyph-name="uniB055" unicode="&#xb055;" 
d="M909 198v-280h-689q-59 0 -89.5 31t-30.5 94v155h182v-52h445v52h182zM68 328h882v-77h-882v77zM111 676h700q40 0 66 -26t26 -66v-216h-186v231h-199v-231h-186v231h-221v77zM282 37q0 -40 40 -40h405v72h-445v-32z" />
    <glyph glyph-name="uniB057" unicode="&#xb057;" 
d="M916 -82h-180v180h-364q-61 0 -82 -49l-56 -131h-185l58 150q20 54 62 79t102 25h645v-254zM68 285h882v-77h-882v77zM101 676h730q40 0 66 -26t26 -66v-267h-186v282h-209v-282h-186v282h-241v77z" />
    <glyph glyph-name="uniB059" unicode="&#xb059;" 
d="M356 119q-60 0 -60 -60v-12q0 -60 60 -60h343q60 0 60 60v12q0 60 -60 60h-343zM68 321h882v-77h-882v77zM101 676h730q40 0 66 -26t26 -66v-226h-186v241h-209v-241h-186v241h-241v77zM107 53q0 69 41 104.5t119 35.5h522q78 0 119 -35.5t41 -104.5t-41 -104.5
t-119 -35.5h-522q-78 0 -119 35.5t-41 104.5z" />
    <glyph glyph-name="uniB05D" unicode="&#xb05d;" 
d="M930 222v-67h-640v-47h633v-71h-633v-46h640v-73h-762q-60 0 -60 60v244h822zM52 350h914v-76h-914v76zM111 676h700q40 0 66 -26t26 -66v-199h-186v214h-219v-214h-186v214h-201v77z" />
    <glyph glyph-name="uniB060" unicode="&#xb060;" 
d="M951 682v-764h-182v764h182zM52 3h666v-76h-666v76zM73 672h579q31 0 51 -20t20 -51v-487h-180v482h-145v-482h-182v482h-143v76z" />
    <glyph glyph-name="uniB064" unicode="&#xb064;" 
d="M951 682v-611h-182v611h182zM62 296h659v-76h-659v76zM73 672h558q31 0 51 -20t20 -51v-262h-180v257h-124v-257h-182v257h-143v76zM101 160h182v-166h672v-76h-794q-60 0 -60 60v182z" />
    <glyph glyph-name="uniB07C" unicode="&#xb07c;" 
d="M951 682v-764h-182v764h182zM72 672h559q31 0 51 -20t20 -51v-683h-181v678h-114v-678h-182v678h-153v76z" />
    <glyph glyph-name="uniB07D" unicode="&#xb07d;" 
d="M951 682v-454h-182v454h182zM72 672h558q31 0 51 -20t20 -51v-355h-181v350h-116v-350h-182v350h-150v76zM114 168h837v-250h-186v173h-651v77z" />
    <glyph glyph-name="uniB080" unicode="&#xb080;" 
d="M951 682v-574h-182v574h182zM72 672h559q31 0 51 -20t20 -51v-377h-181v372h-116v-372h-182v372h-151v76zM141 160h182v-166h632v-76h-754q-60 0 -60 60v182z" />
    <glyph glyph-name="uniB084" unicode="&#xb084;" 
d="M951 682v-400h-182v400h182zM72 672h559q31 0 51 -20t20 -51v-314h-181v309h-116v-309h-182v309h-151v76zM136 110h633v38h-633v74h815v-183h-633v-42h635v-79h-757q-60 0 -60 60v132z" />
    <glyph glyph-name="uniB08C" unicode="&#xb08c;" 
d="M954 187v-269h-700q-59 0 -89.5 30t-30.5 97v142h820zM72 672h559q31 0 51 -20t20 -51v-343h-181v338h-116v-338h-182v338h-151v76zM316 34q0 -40 40 -40h416v117h-456v-77zM769 682h182v-432h-182v432z" />
    <glyph glyph-name="uniB08D" unicode="&#xb08d;" 
d="M951 682v-415h-182v415h182zM72 672h559q31 0 51 -20t20 -51v-326h-181v321h-116v-321h-182v321h-151v76zM130 198h182v-52h460v52h182v-280h-704q-59 0 -89.5 31t-30.5 94v155zM312 37q0 -40 40 -40h420v72h-460v-32z" />
    <glyph glyph-name="uniB08F" unicode="&#xb08f;" 
d="M951 682v-461h-182v461h182zM107 63q22 54 63 79t101 25h673v-249h-180v175h-392q-61 0 -82 -49l-56 -126h-185zM72 672h559q31 0 51 -20t20 -51v-362h-181v357h-116v-357h-182v357h-151v76z" />
    <glyph glyph-name="uniB090" unicode="&#xb090;" 
d="M951 682v-458h-182v458h182zM125 66q26 52 65 78t99 26h661v-252h-180v178h-92q-44 0 -56 -42l-40 -136h-173l62 178h-91q-29 0 -48.5 -13t-33.5 -39l-64 -126h-183zM72 672h549q31 0 51 -20t20 -51v-371h-181v366h-116v-366h-182v366h-141v76z" />
    <glyph glyph-name="uniB091" unicode="&#xb091;" 
d="M951 682v-436h-182v436h182zM72 672h559q31 0 51 -20t20 -51v-354h-181v349h-116v-349h-182v349h-151v76zM102 53q0 69 41 104.5t119 35.5h543q78 0 119 -35.5t41 -104.5t-41 -104.5t-119 -35.5h-543q-78 0 -119 35.5t-41 104.5zM296 47q0 -60 60 -60h354q60 0 60 60v12
q0 60 -60 60h-354q-60 0 -60 -60v-12z" />
    <glyph glyph-name="uniB098" unicode="&#xb098;" 
d="M885 682v-317h104v-81h-104v-366h-182v764h182zM89 672h192v-675h332v-71h-442q-35 0 -58.5 23.5t-23.5 58.5v664z" />
    <glyph glyph-name="uniB099" unicode="&#xb099;" 
d="M885 682v-193h104v-81h-104v-177h-182v451h182zM87 168h798v-250h-186v173h-612v77zM89 672h192v-371h349v-71h-459q-35 0 -58.5 23.5t-23.5 58.5v360z" />
    <glyph glyph-name="uniB09A" unicode="&#xb09a;" 
d="M885 682v-183h104v-81h-104v-188h-182v452h182zM87 172h798v-254h-186v177h-217v-177h-186v177h-209v77zM89 672h192v-369h349v-71h-459q-35 0 -58.5 23.5t-23.5 58.5v358z" />
    <glyph glyph-name="uniB09C" unicode="&#xb09c;" 
d="M885 682v-206h104v-81h-104v-265h-182v552h182zM89 672h192v-359h349v-71h-459q-35 0 -58.5 23.5t-23.5 58.5v348zM101 180h182v-186h602v-76h-724q-60 0 -60 60v202z" />
    <glyph glyph-name="uniB09F" unicode="&#xb09f;" 
d="M885 682v-173h104v-81h-104v-169h-182v423h182zM89 672h192v-340h349v-71h-459q-35 0 -58.5 23.5t-23.5 58.5v329zM95 195h790v-76h-608v-125h610v-76h-732q-60 0 -60 60v217z" />
    <glyph glyph-name="uniB0A0" unicode="&#xb0a0;" 
d="M885 682v-157h104v-81h-104v-145h-182v383h182zM89 672h192v-298h349v-71h-459q-35 0 -58.5 23.5t-23.5 58.5v287zM95 120h614v50h-614v74h796v-195h-614v-52h616v-79h-738q-60 0 -60 60v142z" />
    <glyph glyph-name="uniB0A1" unicode="&#xb0a1;" 
d="M885 682v-167h104v-81h-104v-152h-182v400h182zM89 672h192v-315h349v-71h-459q-35 0 -58.5 23.5t-23.5 58.5v304zM101 115h224v48h-224v71h395v-185h-224v-58h234v-73h-345q-60 0 -60 60v137zM541 232h354v-308h-180v231h-174v77z" />
    <glyph glyph-name="uniB0A2" unicode="&#xb0a2;" 
d="M885 682v-164h104v-81h-104v-150h-182v395h182zM89 672h192v-311h349v-71h-459q-35 0 -58.5 23.5t-23.5 58.5v300zM95 114h217v47h-217v71h388v-184h-217v-57h220v-73h-331q-60 0 -60 60v136zM535 234h359v-312h-359v312zM746 -7v170h-63v-170h63z" />
    <glyph glyph-name="uniB0A8" unicode="&#xb0a8;" 
d="M885 682v-174h104v-81h-104v-162h-182v417h182zM89 672h192v-333h349v-71h-459q-35 0 -58.5 23.5t-23.5 58.5v322zM100 210h789v-292h-669q-59 0 -89.5 31t-30.5 94v167zM282 37q0 -40 40 -40h385v137h-425v-97z" />
    <glyph glyph-name="uniB0A9" unicode="&#xb0a9;" 
d="M885 682v-171h104v-81h-104v-152h-182v404h182zM89 672h192v-320h349v-71h-459q-35 0 -58.5 23.5t-23.5 58.5v309zM100 220h182v-64h425v64h182v-302h-669q-59 0 -89.5 31t-30.5 94v177zM282 37q0 -40 40 -40h385v82h-425v-42z" />
    <glyph glyph-name="uniB0AB" unicode="&#xb0ab;" 
d="M885 682v-191h104v-81h-104v-175h-182v447h182zM133 66q27 52 65.5 78t98.5 26h592v-252h-180v178h-321q-29 0 -48.5 -12.5t-33.5 -39.5l-67 -126h-183zM89 672h192v-363h349v-71h-459q-35 0 -58.5 23.5t-23.5 58.5v352z" />
    <glyph glyph-name="uniB0AC" unicode="&#xb0ac;" 
d="M885 682v-181h104v-81h-104v-203h-182v465h182zM125 66q26 52 65 78t99 26h592v-252h-180v178h-58q-44 0 -56 -42l-40 -136h-173l62 178h-56q-29 0 -48.5 -13t-33.5 -39l-64 -126h-183zM89 672h192v-384h349v-71h-459q-35 0 -58.5 23.5t-23.5 58.5v373z" />
    <glyph glyph-name="uniB0AD" unicode="&#xb0ad;" 
d="M885 682v-171h104v-81h-104v-183h-182v435h182zM71 53q0 69 41 104.5t119 35.5h519q78 0 119 -35.5t41 -104.5t-41 -104.5t-119 -35.5h-519q-78 0 -119 35.5t-41 104.5zM89 672h192v-353h349v-71h-459q-35 0 -58.5 23.5t-23.5 58.5v342zM265 47q0 -60 60 -60h330
q60 0 60 60v12q0 60 -60 60h-330q-60 0 -60 -60v-12z" />
    <glyph glyph-name="uniB0AE" unicode="&#xb0ae;" 
d="M885 682v-169h104v-81h-104v-198h-182v448h182zM76 181h835v-74h-64v-189h-180v189h-218q-29 0 -47 -13.5t-35 -38.5l-94 -137h-187l104 159q10 16 21 30h-135v74zM89 672h192v-369h349v-71h-459q-35 0 -58.5 23.5t-23.5 58.5v358z" />
    <glyph glyph-name="uniB0AF" unicode="&#xb0af;" 
d="M88 173h355v57h182v-57h292v-74h-60v-181h-180v181h-204q-29 0 -46 -13t-36 -39l-94 -129h-187l104 151l22 30h-148v74zM89 672h192v-314h349v-71h-459q-35 0 -58.5 23.5t-23.5 58.5v303zM885 682v-171h104v-81h-104v-198h-182v450h182z" />
    <glyph glyph-name="uniB0B1" unicode="&#xb0b1;" 
d="M885 682v-160h104v-81h-104v-161h-182v402h182zM89 228h800v-72h-618v-40h615v-76h-615v-44h620v-78h-742q-60 0 -60 60v250zM89 672h192v-319h349v-71h-459q-35 0 -58.5 23.5t-23.5 58.5v308z" />
    <glyph glyph-name="uniB0B3" unicode="&#xb0b3;" 
d="M885 682v-154h104v-81h-104v-166h-182v401h182zM65 230h332v57h182v-57h315v-76h-829v76zM70 15q0 44 28.5 72.5t73.5 28.5h616q45 0 73.5 -28.5t28.5 -72.5q0 -45 -28.5 -73.5t-73.5 -28.5h-616q-45 0 -73.5 28.5t-28.5 73.5zM89 672h192v-275h349v-71h-459
q-35 0 -58.5 23.5t-23.5 58.5v264zM261 10q0 -8 6 -14t14 -6h398q8 0 14 6t6 14v9q0 8 -6 14t-14 6h-398q-8 0 -14 -6t-6 -14v-9z" />
    <glyph glyph-name="uniB0B4" unicode="&#xb0b4;" 
d="M281 -3h220v-71h-330q-35 0 -58.5 23.5t-23.5 58.5v664h192v-675zM565 682h164v-302h68v302h173v-764h-173v371h-68v-371h-164v764z" />
    <glyph glyph-name="uniB0B5" unicode="&#xb0b5;" 
d="M281 298h231v-71h-341q-35 0 -58.5 23.5t-23.5 58.5v363h192v-374zM95 168h877v-250h-186v173h-691v77zM565 682h164v-179h68v179h173v-456h-173v186h-68v-186h-164v456z" />
    <glyph glyph-name="uniB0B8" unicode="&#xb0b8;" 
d="M281 296h239v-71h-349q-35 0 -58.5 23.5t-23.5 58.5v365h192v-376zM88 177h182v-183h703v-76h-825q-60 0 -60 60v199zM565 682h164v-193h68v193h173v-556h-173v272h-68v-272h-164v556z" />
    <glyph glyph-name="uniB0BB" unicode="&#xb0bb;" 
d="M281 317h231v-71h-341q-35 0 -58.5 23.5t-23.5 58.5v344h192v-355zM84 187h886v-76h-704v-117h705v-76h-827q-60 0 -60 60v209zM565 682h164v-173h68v173h173v-440h-173v186h-68v-186h-164v440z" />
    <glyph glyph-name="uniB0BC" unicode="&#xb0bc;" 
d="M281 363h231v-71h-341q-35 0 -58.5 23.5t-23.5 58.5v298h192v-309zM83 116h706v46h-706v74h888v-191h-706v-48h708v-79h-830q-60 0 -60 60v138zM565 682h164v-155h68v155h173v-393h-173v157h-68v-157h-164v393z" />
    <glyph glyph-name="uniB0C4" unicode="&#xb0c4;" 
d="M281 328h231v-71h-341q-35 0 -58.5 23.5t-23.5 58.5v333h192v-344zM88 204h885v-286h-765q-59 0 -89.5 31t-30.5 94v161zM270 37q0 -40 40 -40h481v131h-521v-91zM565 682h164v-167h68v167h173v-428h-173v180h-68v-180h-164v428z" />
    <glyph glyph-name="uniB0C5" unicode="&#xb0c5;" 
d="M281 328h231v-71h-341q-35 0 -58.5 23.5t-23.5 58.5v333h192v-344zM88 212h182v-55h515v55h182v-294h-759q-59 0 -89.5 31t-30.5 94v169zM270 37q0 -40 40 -40h475v83h-515v-43zM565 682h164v-160h68v160h173v-427h-173v186h-68v-186h-164v427z" />
    <glyph glyph-name="uniB0C7" unicode="&#xb0c7;" 
d="M281 299h231v-71h-341q-35 0 -58.5 23.5t-23.5 58.5v362h192v-373zM145 66q26 52 65 78t99 26h662v-252h-180v178h-391q-29 0 -50.5 -10.5t-31.5 -31.5l-64 -136h-183zM565 682h164v-200h68v200h173v-460h-173v179h-68v-179h-164v460z" />
    <glyph glyph-name="uniB0C8" unicode="&#xb0c8;" 
d="M281 287h231v-71h-341q-35 0 -58.5 23.5t-23.5 58.5v374h192v-385zM125 66q26 52 65 78t99 26h681v-252h-180v178h-104q-44 0 -56 -42l-40 -136h-173l62 178h-99q-29 0 -48.5 -13t-33.5 -39l-64 -126h-183zM565 682h164v-195h68v195h173v-469h-173v193h-68v-193h-164v469
z" />
    <glyph glyph-name="uniB0C9" unicode="&#xb0c9;" 
d="M281 315h231v-71h-341q-35 0 -58.5 23.5t-23.5 58.5v346h192v-357zM103 53q0 69 41 104.5t119 35.5h563q78 0 119 -35.5t41 -104.5t-41 -104.5t-119 -35.5h-563q-78 0 -119 35.5t-41 104.5zM297 47q0 -60 60 -60h374q60 0 60 60v12q0 60 -60 60h-374q-60 0 -60 -60v-12z
M565 682h164v-165h68v165h173v-439h-173v193h-68v-193h-164v439z" />
    <glyph glyph-name="uniB0D0" unicode="&#xb0d0;" 
d="M879 682v-224h114v-81h-114v-140h114v-81h-114v-238h-182v764h182zM89 672h192v-675h332v-71h-442q-35 0 -58.5 23.5t-23.5 58.5v664z" />
    <glyph glyph-name="uniB0D1" unicode="&#xb0d1;" 
d="M885 682v-103h104v-81h-104v-84h104v-81h-104v-111h-182v460h182zM87 168h798v-250h-186v173h-612v77zM89 672h192v-372h349v-71h-459q-35 0 -58.5 23.5t-23.5 58.5v361z" />
    <glyph glyph-name="uniB0D4" unicode="&#xb0d4;" 
d="M885 682v-120h104v-81h-104v-88h104v-81h-104v-182h-182v552h182zM89 672h192v-379h349v-71h-459q-35 0 -58.5 23.5t-23.5 58.5v368zM101 180h182v-186h602v-76h-724q-60 0 -60 60v202z" />
    <glyph glyph-name="uniB0D7" unicode="&#xb0d7;" 
d="M885 682v-85h104v-81h-104v-84h104v-81h-104v-101h-182v432h182zM89 672h192v-347h349v-71h-459q-35 0 -58.5 23.5t-23.5 58.5v336zM95 195h790v-76h-608v-125h610v-76h-732q-60 0 -60 60v217z" />
    <glyph glyph-name="uniB0D8" unicode="&#xb0d8;" 
d="M885 682v-73h104v-81h-104v-74h104v-81h-104v-85h-182v394h182zM89 672h192v-308h349v-71h-459q-35 0 -58.5 23.5t-23.5 58.5v297zM95 120h614v50h-614v74h796v-195h-614v-52h616v-79h-738q-60 0 -60 60v142z" />
    <glyph glyph-name="uniB0E0" unicode="&#xb0e0;" 
d="M885 682v-90h104v-81h-104v-74h104v-81h-104v-99h-182v425h182zM89 672h192v-340h349v-71h-459q-35 0 -58.5 23.5t-23.5 58.5v329zM100 210h789v-292h-669q-59 0 -89.5 31t-30.5 94v167zM282 37q0 -40 40 -40h385v137h-425v-97z" />
    <glyph glyph-name="uniB0E1" unicode="&#xb0e1;" 
d="M885 682v-92h104v-81h-104v-74h104v-81h-104v-92h-182v420h182zM89 672h192v-337h349v-71h-459q-35 0 -58.5 23.5t-23.5 58.5v326zM100 220h182v-64h425v64h182v-302h-669q-59 0 -89.5 31t-30.5 94v177zM282 37q0 -40 40 -40h385v82h-425v-42z" />
    <glyph glyph-name="uniB0E3" unicode="&#xb0e3;" 
d="M885 682v-99h104v-81h-104v-74h104v-81h-104v-128h-182v463h182zM133 66q27 52 65.5 78t98.5 26h592v-252h-180v178h-321q-29 0 -48.5 -12.5t-33.5 -39.5l-67 -126h-183zM89 672h192v-379h349v-71h-459q-35 0 -58.5 23.5t-23.5 58.5v368z" />
    <glyph glyph-name="uniB0E5" unicode="&#xb0e5;" 
d="M885 682v-97h104v-81h-104v-74h104v-81h-104v-102h-182v435h182zM71 53q0 69 41 104.5t119 35.5h519q78 0 119 -35.5t41 -104.5t-41 -104.5t-119 -35.5h-519q-78 0 -119 35.5t-41 104.5zM89 672h192v-348h349v-71h-459q-35 0 -58.5 23.5t-23.5 58.5v337zM265 47
q0 -60 60 -60h330q60 0 60 60v12q0 60 -60 60h-330q-60 0 -60 -60v-12z" />
    <glyph glyph-name="uniB0EC" unicode="&#xb0ec;" 
d="M733 682v-193h64v193h173v-764h-173v232h-64v-232h-164v764h164zM89 672h192v-675h220v-71h-330q-35 0 -58.5 23.5t-23.5 58.5v664zM797 231v177h-64v-177h64z" />
    <glyph glyph-name="uniB108" unicode="&#xb108;" 
d="M951 682v-764h-182v351h-167v88h167v325h182zM89 672h192v-676h380v-71h-490q-35 0 -58.5 23.5t-23.5 58.5v665z" />
    <glyph glyph-name="uniB109" unicode="&#xb109;" 
d="M951 682v-461h-182v206h-167v88h167v167h182zM86 168h865v-250h-186v173h-679v77zM89 672h192v-375h380v-71h-490q-35 0 -58.5 23.5t-23.5 58.5v364z" />
    <glyph glyph-name="uniB10B" unicode="&#xb10b;" 
d="M951 682v-442h-182v201h-167v88h167v153h182zM89 672h192v-356h380v-71h-490q-35 0 -58.5 23.5t-23.5 58.5v345zM101 194h387v-276h-179v199h-208v77zM586 116q18 79 98 79h268v-277h-140v206h-72q-19 0 -22 -18l-42 -188h-134z" />
    <glyph glyph-name="uniB10C" unicode="&#xb10c;" 
d="M951 682v-564h-182v292h-167v88h167v184h182zM89 672h192v-387h390v-71h-500q-35 0 -58.5 23.5t-23.5 58.5v376zM90 160h182v-166h679v-76h-801q-60 0 -60 60v182z" />
    <glyph glyph-name="uniB10F" unicode="&#xb10f;" 
d="M951 682v-442h-182v194h-167v88h167v160h182zM79 192h870v-76h-688v-122h690v-76h-812q-60 0 -60 60v214zM89 672h192v-358h390v-71h-500q-35 0 -58.5 23.5t-23.5 58.5v347z" />
    <glyph glyph-name="uniB110" unicode="&#xb110;" 
d="M951 682v-398h-182v164h-167v88h167v146h182zM86 116h681v46h-681v74h863v-191h-681v-48h683v-79h-805q-60 0 -60 60v138zM89 672h192v-314h390v-71h-500q-35 0 -58.5 23.5t-23.5 58.5v303z" />
    <glyph glyph-name="uniB111" unicode="&#xb111;" 
d="M951 682v-402h-182v173h-167v88h167v141h182zM89 672h192v-318h390v-71h-500q-35 0 -58.5 23.5t-23.5 58.5v307zM106 116h230v46h-230v74h402v-191h-230v-48h232v-79h-344q-60 0 -60 60v138zM567 236h386v-318h-182v244h-204v74z" />
    <glyph glyph-name="uniB112" unicode="&#xb112;" 
d="M951 682v-391h-182v167h-167v88h167v136h182zM89 672h192v-303h390v-71h-500q-35 0 -58.5 23.5t-23.5 58.5v292zM106 124h230v49h-230v74h402v-194h-230v-56h232v-79h-344q-60 0 -60 60v146zM564 248h388v-330h-388v330zM810 -11v188h-104v-188h104z" />
    <glyph glyph-name="uniB113" unicode="&#xb113;" 
d="M951 682v-394h-182v168h-167v88h167v138h182zM89 672h192v-310h390v-71h-500q-35 0 -58.5 23.5t-23.5 58.5v299zM106 116h230v50h-230v74h402v-195h-230v-48h232v-79h-344q-60 0 -60 60v138zM567 241h142v-70h100v70h142v-323h-384v323zM809 -11v111h-100v-111h100z" />
    <glyph glyph-name="uniB118" unicode="&#xb118;" 
d="M951 682v-426h-182v188h-167v88h167v150h182zM89 672h192v-338h390v-71h-500q-35 0 -58.5 23.5t-23.5 58.5v327zM101 208h848v-290h-728q-59 0 -89.5 31t-30.5 94v165zM283 37q0 -40 40 -40h444v135h-484v-95z" />
    <glyph glyph-name="uniB119" unicode="&#xb119;" 
d="M951 682v-417h-182v173h-167v88h167v156h182zM89 672h192v-333h390v-71h-500q-35 0 -58.5 23.5t-23.5 58.5v322zM110 220h182v-55h477v55h182v-302h-721q-59 0 -89.5 31t-30.5 94v177zM292 37q0 -40 40 -40h437v91h-477v-51z" />
    <glyph glyph-name="uniB11B" unicode="&#xb11b;" 
d="M951 682v-455h-182v196h-167v88h167v171h182zM145 66q26 52 65 78t99 26h643v-252h-180v178h-372q-29 0 -48.5 -13t-33.5 -39l-64 -126h-183zM89 672h192v-370h390v-71h-500q-35 0 -58.5 23.5t-23.5 58.5v359z" />
    <glyph glyph-name="uniB11C" unicode="&#xb11c;" 
d="M951 682v-455h-182v187h-167v98h167v170h182zM125 66q26 52 65 78t99 26h661v-252h-180v178h-92q-44 0 -56 -42l-40 -136h-173l62 178h-91q-29 0 -48.5 -13t-33.5 -39l-64 -126h-183zM89 672h192v-370h390v-71h-500q-35 0 -58.5 23.5t-23.5 58.5v359z" />
    <glyph glyph-name="uniB11D" unicode="&#xb11d;" 
d="M951 682v-443h-182v185h-167v88h167v170h182zM80 53q0 69 41 104.5t119 35.5h564q78 0 119 -35.5t41 -104.5t-41 -104.5t-119 -35.5h-564q-78 0 -119 35.5t-41 104.5zM89 672h192v-356h390v-71h-500q-35 0 -58.5 23.5t-23.5 58.5v345zM265 47q0 -60 60 -60h393
q60 0 60 60v12q0 60 -60 60h-393q-60 0 -60 -60v-12z" />
    <glyph glyph-name="uniB122" unicode="&#xb122;" 
d="M951 682v-401h-182v173h-167v88h167v140h182zM89 672h192v-318h390v-71h-500q-35 0 -58.5 23.5t-23.5 58.5v307zM100 -11h574l31 105l-168 -67h-247q-22 0 -35.5 9t-20.5 22l-52 104h-82v71h854v-71h-577l47 -99l157 61h266q26 0 37.5 -10.5t7.5 -23.5l-29 -101h91v-71
h-854v71z" />
    <glyph glyph-name="uniB123" unicode="&#xb123;" 
d="M951 682v-407h-182v187h-167v88h167v132h182zM65 230h352v57h182v-57h352v-76h-886v76zM70 15q0 44 28.5 72.5t73.5 28.5h673q45 0 73.5 -28.5t28.5 -72.5q0 -45 -28.5 -73.5t-73.5 -28.5h-673q-45 0 -73.5 28.5t-28.5 73.5zM89 672h192v-275h390v-71h-500
q-35 0 -58.5 23.5t-23.5 58.5v264zM261 10q0 -8 6 -14t14 -6h455q8 0 14 6t6 14v9q0 8 -6 14t-14 6h-455q-8 0 -14 -6t-6 -14v-9z" />
    <glyph glyph-name="uniB124" unicode="&#xb124;" 
d="M281 -4h220v-71h-330q-35 0 -58.5 23.5t-23.5 58.5v665h192v-676zM421 358h144v324h164v-764h-164v349h-144v91zM797 682h173v-764h-173v764z" />
    <glyph glyph-name="uniB125" unicode="&#xb125;" 
d="M281 292h231v-71h-341q-35 0 -58.5 23.5t-23.5 58.5v369h192v-380zM95 168h877v-250h-186v173h-691v77zM443 472h122v210h164v-464h-164v173h-122v81zM797 682h173v-464h-173v464z" />
    <glyph glyph-name="uniB128" unicode="&#xb128;" 
d="M281 298h231v-71h-341q-35 0 -58.5 23.5t-23.5 58.5v363h192v-374zM88 177h182v-183h703v-76h-825q-60 0 -60 60v199zM443 466h122v216h164v-561h-164v264h-122v81zM797 682h173v-561h-173v561z" />
    <glyph glyph-name="uniB12B" unicode="&#xb12b;" 
d="M965 192v-76h-684v-122h683v-76h-805q-60 0 -60 60v214h866zM89 672h192v-356h231v-71h-341q-35 0 -58.5 23.5t-23.5 58.5v345zM443 489h122v193h164v-440h-164v166h-122v81zM797 682h173v-440h-173v440z" />
    <glyph glyph-name="uniB12C" unicode="&#xb12c;" 
d="M281 358h231v-71h-341q-35 0 -58.5 23.5t-23.5 58.5v303h192v-314zM86 116h703v46h-703v74h885v-191h-703v-48h705v-79h-827q-60 0 -60 60v138zM443 526h122v156h164v-402h-164v165h-122v81zM797 682h173v-402h-173v402z" />
    <glyph glyph-name="uniB134" unicode="&#xb134;" 
d="M281 330h231v-71h-341q-35 0 -58.5 23.5t-23.5 58.5v331h192v-342zM101 208h868v-290h-748q-59 0 -89.5 31t-30.5 94v165zM283 37q0 -40 40 -40h464v135h-504v-95zM443 492h122v190h164v-430h-164v159h-122v81zM797 682h173v-430h-173v430z" />
    <glyph glyph-name="uniB135" unicode="&#xb135;" 
d="M281 338h231v-71h-341q-35 0 -58.5 23.5t-23.5 58.5v323h192v-334zM120 220h182v-55h487v55h182v-302h-731q-59 0 -89.5 31t-30.5 94v177zM302 37q0 -40 40 -40h447v91h-487v-51zM443 502h122v180h164v-422h-164v161h-122v81zM797 682h173v-422h-173v422z" />
    <glyph glyph-name="uniB137" unicode="&#xb137;" 
d="M281 286h231v-71h-341q-35 0 -58.5 23.5t-23.5 58.5v375h192v-386zM145 66q26 52 65 78t99 26h662v-252h-180v178h-391q-29 0 -48.5 -13t-33.5 -39l-64 -126h-183zM443 505h122v177h164v-468h-164v210h-122v81zM797 682h173v-468h-173v468z" />
    <glyph glyph-name="uniB138" unicode="&#xb138;" 
d="M242 288h231v-71h-341q-35 0 -58.5 23.5t-23.5 58.5v373h192v-384zM125 66q26 52 65 78t99 26h641v-252h-180v178h-82q-44 0 -56 -42l-40 -136h-173l62 178h-81q-29 0 -48.5 -13t-33.5 -39l-64 -126h-183zM404 512h122v170h164v-467h-164v216h-122v81zM758 682h173v-467
h-173v467z" />
    <glyph glyph-name="uniB139" unicode="&#xb139;" 
d="M281 309h231v-71h-341q-35 0 -58.5 23.5t-23.5 58.5v352h192v-363zM97 53q0 69 41 104.5t119 35.5h574q78 0 119 -35.5t41 -104.5t-41 -104.5t-119 -35.5h-574q-78 0 -119 35.5t-41 104.5zM291 47q0 -60 60 -60h385q60 0 60 60v12q0 60 -60 60h-385q-60 0 -60 -60v-12z
M443 504h122v178h164v-447h-164v188h-122v81zM797 682h173v-447h-173v447z" />
    <glyph glyph-name="uniB13E" unicode="&#xb13e;" 
d="M281 351h231v-71h-341q-35 0 -58.5 23.5t-23.5 58.5v310h192v-321zM114 -11h536l15 95l-122 -55h-191q-22 0 -36.5 8.5t-19.5 22.5l-34 102h-148v71h854v-71h-510l33 -95l118 59h196q26 0 36.5 -10.5t8.5 -23.5l-11 -103h129v-71h-854v71zM423 509h142v173h164v-408h-164
v154h-142v81zM797 682h173v-408h-173v408z" />
    <glyph glyph-name="uniB140" unicode="&#xb140;" 
d="M951 682v-764h-182v229h-176v93h176v122h-176v93h176v227h182zM89 672h192v-676h380v-71h-490q-35 0 -58.5 23.5t-23.5 58.5v665z" />
    <glyph glyph-name="uniB141" unicode="&#xb141;" 
d="M951 682v-466h-182v122h-167v82h167v54h-167v82h167v126h182zM86 168h865v-250h-186v173h-679v77zM89 672h192v-386h380v-71h-490q-35 0 -58.5 23.5t-23.5 58.5v375z" />
    <glyph glyph-name="uniB144" unicode="&#xb144;" 
d="M951 682v-564h-182v216h-167v82h167v54h-167v82h167v130h182zM89 672h192v-389h390v-71h-500q-35 0 -58.5 23.5t-23.5 58.5v378zM90 160h182v-166h679v-76h-801q-60 0 -60 60v182z" />
    <glyph glyph-name="uniB147" unicode="&#xb147;" 
d="M951 682v-442h-182v131h-167v82h167v47h-167v82h167v100h182zM89 672h192v-360h390v-71h-500q-35 0 -58.5 23.5t-23.5 58.5v349zM96 192h853v-76h-671v-122h673v-76h-795q-60 0 -60 60v214z" />
    <glyph glyph-name="uniB148" unicode="&#xb148;" 
d="M951 682v-410h-182v126h-166v82h166v44h-166v82h166v76h182zM86 116h681v46h-681v74h863v-191h-681v-48h683v-79h-805q-60 0 -60 60v138zM89 672h192v-327h390v-71h-500q-35 0 -58.5 23.5t-23.5 58.5v316z" />
    <glyph glyph-name="uniB150" unicode="&#xb150;" 
d="M951 682v-437h-182v138h-167v82h167v44h-167v82h167v91h182zM89 672h192v-355h390v-71h-500q-35 0 -58.5 23.5t-23.5 58.5v344zM101 208h848v-290h-728q-59 0 -89.5 31t-30.5 94v165zM283 37q0 -40 40 -40h444v135h-484v-95z" />
    <glyph glyph-name="uniB151" unicode="&#xb151;" 
d="M951 682v-423h-182v130h-167v82h167v42h-167v82h167v87h182zM89 672h192v-338h390v-71h-500q-35 0 -58.5 23.5t-23.5 58.5v327zM110 220h182v-55h477v55h182v-302h-721q-59 0 -89.5 31t-30.5 94v177zM292 37q0 -40 40 -40h437v91h-477v-51z" />
    <glyph glyph-name="uniB154" unicode="&#xb154;" 
d="M951 682v-465h-182v162h-167v82h167v54h-167v82h167v85h182zM125 66q26 52 65 78t99 26h661v-252h-180v178h-92q-44 0 -56 -42l-40 -136h-173l62 178h-91q-29 0 -48.5 -13t-33.5 -39l-64 -126h-183zM89 672h192v-381h390v-71h-500q-35 0 -58.5 23.5t-23.5 58.5v370z" />
    <glyph glyph-name="uniB155" unicode="&#xb155;" 
d="M951 682v-445h-182v138h-167v82h167v46h-167v82h167v97h182zM80 53q0 69 41 104.5t119 35.5h564q78 0 119 -35.5t41 -104.5t-41 -104.5t-119 -35.5h-564q-78 0 -119 35.5t-41 104.5zM89 672h192v-358h390v-71h-500q-35 0 -58.5 23.5t-23.5 58.5v347zM265 47q0 -60 60 -60
h393q60 0 60 60v12q0 60 -60 60h-393q-60 0 -60 -60v-12z" />
    <glyph glyph-name="uniB158" unicode="&#xb158;" 
d="M951 682v-430h-182v125h-167v82h167v51h-167v82h167v90h182zM89 672h192v-345h380v-71h-490q-35 0 -58.5 23.5t-23.5 58.5v334zM104 208h846v-290h-186v77h-650v77h650v59h-660v77z" />
    <glyph glyph-name="uniB15C" unicode="&#xb15c;" 
d="M281 -3h220v-71h-330q-35 0 -58.5 23.5t-23.5 58.5v664h192v-675zM411 253h154v95h-154v81h154v253h164v-764h-164v254h-154v81zM797 682h173v-764h-173v764z" />
    <glyph glyph-name="uniB160" unicode="&#xb160;" 
d="M281 297h231v-71h-341q-35 0 -58.5 23.5t-23.5 58.5v364h192v-375zM88 177h182v-183h703v-76h-825q-60 0 -60 60v199zM423 449h142v58h-142v81h142v94h164v-561h-164v247h-142v81zM797 682h173v-561h-173v561z" />
    <glyph glyph-name="uniB171" unicode="&#xb171;" 
d="M281 309h231v-71h-341q-35 0 -58.5 23.5t-23.5 58.5v352h192v-363zM103 53q0 69 41 104.5t119 35.5h563q78 0 119 -35.5t41 -104.5t-41 -104.5t-119 -35.5h-563q-78 0 -119 35.5t-41 104.5zM297 47q0 -60 60 -60h374q60 0 60 60v12q0 60 -60 60h-374q-60 0 -60 -60v-12z
M423 466h142v58h-142v81h142v77h164v-447h-164v150h-142v81zM797 682h173v-447h-173v447z" />
    <glyph glyph-name="uniB178" unicode="&#xb178;" 
d="M607 7h359v-76h-914v76h369v142h186v-142zM121 672h192v-403h592v-71h-702q-35 0 -58.5 23.5t-23.5 58.5v392z" />
    <glyph glyph-name="uniB179" unicode="&#xb179;" 
d="M283 415h652v-71h-339v-63h358v-76h-908v76h364v63h-237q-35 0 -58.5 23.5t-23.5 58.5v246h192v-257zM82 155h841v-237h-186v160h-655v77z" />
    <glyph glyph-name="uniB17C" unicode="&#xb17c;" 
d="M283 408h652v-71h-339v-66h358v-76h-908v76h364v66h-237q-35 0 -58.5 23.5t-23.5 58.5v253h192v-264zM105 142h192v-153h632v-71h-824v224z" />
    <glyph glyph-name="uniB180" unicode="&#xb180;" 
d="M283 463h652v-71h-339v-49h358v-76h-908v76h364v49h-237q-35 0 -58.5 23.5t-23.5 58.5v198h192v-209zM106 223h802v-183h-617v-43h619v-79h-741q-60 0 -60 60v129h617v44h-620v72z" />
    <glyph glyph-name="uniB181" unicode="&#xb181;" 
d="M283 462h628v-71h-315v-51h370v-77h-914v77h358v51h-237q-35 0 -58.5 23.5t-23.5 58.5v199h192v-210zM109 223h404v-181h-233v-45h235v-79h-343q-60 0 -60 60v131h233v42h-236v72zM541 225h362v-307h-186v230h-176v77z" />
    <glyph glyph-name="uniB182" unicode="&#xb182;" 
d="M283 449h622v-71h-309v-44h370v-77h-914v77h358v44h-237q-35 0 -58.5 23.5t-23.5 58.5v212h192v-223zM109 105h232v39h-232v72h389v-179h-232v-41h234v-78h-331q-60 0 -60 60v127zM547 220h362v-303h-362v303zM767 -6v149h-78v-149h78z" />
    <glyph glyph-name="uniB188" unicode="&#xb188;" 
d="M914 187v-269h-690q-59 0 -89.5 30t-30.5 97v142h810zM46 305h364v45h-237q-35 0 -58.5 23.5t-23.5 58.5v240h192v-251h640v-71h-327v-45h358v-76h-908v76zM286 34q0 -40 40 -40h406v117h-446v-77z" />
    <glyph glyph-name="uniB189" unicode="&#xb189;" 
d="M920 198v-280h-699q-59 0 -89.5 31t-30.5 94v155h182v-47h455v47h182zM46 315h364v46h-237q-35 0 -58.5 23.5t-23.5 58.5v229h192v-240h635v-71h-322v-46h358v-76h-908v76zM283 37q0 -40 40 -40h415v77h-455v-37z" />
    <glyph glyph-name="uniB18B" unicode="&#xb18b;" 
d="M283 408h635v-71h-322v-47h358v-76h-908v76h364v47h-237q-35 0 -58.5 23.5t-23.5 58.5v253h192v-264zM107 68q20 54 62 79t102 25h641v-254h-180v180h-360q-61 0 -82 -49l-56 -131h-185z" />
    <glyph glyph-name="uniB18D" unicode="&#xb18d;" 
d="M283 421h632v-71h-319v-43h358v-76h-908v76h364v43h-237q-35 0 -58.5 23.5t-23.5 58.5v240h192v-251zM69 53q0 69 41 104.5t119 35.5h562q78 0 119 -35.5t41 -104.5t-41 -104.5t-119 -35.5h-562q-78 0 -119 35.5t-41 104.5zM259 47q0 -60 60 -60h383q60 0 60 60v12
q0 60 -60 60h-383q-60 0 -60 -60v-12z" />
    <glyph glyph-name="uniB191" unicode="&#xb191;" 
d="M283 452h632v-71h-311v-42h350v-76h-908v76h372v42h-245q-35 0 -58.5 23.5t-23.5 58.5v209h192v-220zM112 222h804v-67h-622v-47h615v-71h-615v-46h622v-73h-744q-60 0 -60 60v244z" />
    <glyph glyph-name="uniB192" unicode="&#xb192;" 
d="M283 454h632v-71h-319v-39h358v-76h-908v76h364v39h-237q-35 0 -58.5 23.5t-23.5 58.5v207h192v-218zM101 -11h504l20 91l-119 -55h-191q-22 0 -36.5 8.5t-19.5 22.5l-34 103h-124v71h819v-71h-500l32 -91l110 56h206q26 0 36.5 -10.5t8.5 -23.5l-20 -101h127v-71h-819
v71z" />
    <glyph glyph-name="uniB193" unicode="&#xb193;" 
d="M283 456h632v-71h-322v-46h361v-76h-363v-36h326v-76h-834v76h326v36h-363v76h361v46h-234q-35 0 -58.5 23.5t-23.5 58.5v205h192v-216zM88 15q0 44 28.5 72.5t73.5 28.5h621q45 0 73.5 -28.5t28.5 -72.5q0 -45 -28.5 -73.5t-73.5 -28.5h-621q-45 0 -73.5 28.5
t-28.5 73.5zM279 10q0 -8 6 -14t14 -6h403q8 0 14 6t6 14v9q0 8 -6 14t-14 6h-403q-8 0 -14 -6t-6 -14v-9z" />
    <glyph glyph-name="uniB194" unicode="&#xb194;" 
d="M885 682v-312h104v-81h-104v-371h-182v764h182zM42 4h225v140h-110q-35 0 -58.5 23.5t-23.5 58.5v446h192v-457h366v-71h-182v-141h205v-76l-614 1v76z" />
    <glyph glyph-name="uniB198" unicode="&#xb198;" 
d="M101 149h182v-155h610v-76h-732q-60 0 -60 60v171zM51 284h223v63h-103q-35 0 -58.5 23.5t-23.5 58.5v243h192v-254h366v-71h-189v-63h210v-76h-617v76zM703 682h182v-227h104v-81h-104v-298h-182v606z" />
    <glyph glyph-name="uniB19C" unicode="&#xb19c;" 
d="M885 682v-180h104v-81h-104v-158h-834v76h239v51h-119q-35 0 -58.5 23.5t-23.5 58.5v200h192v-211h366v-71h-173v-51h229v343h182zM96 110h606v38h-606v74h788v-183h-606v-42h608v-79h-730q-60 0 -60 60v132z" />
    <glyph glyph-name="uniB1A5" unicode="&#xb1a5;" 
d="M885 682v-190h104v-81h-104v-157h-834v76h229v55h-109q-35 0 -58.5 23.5t-23.5 58.5v205h192v-216h366v-71h-183v-55h239v352h182zM96 212h182v-55h426v55h182v-294h-670q-59 0 -89.5 31t-30.5 94v169zM278 37q0 -40 40 -40h386v83h-426v-43z" />
    <glyph glyph-name="uniB1A8" unicode="&#xb1a8;" 
d="M885 682v-211h104v-81h-104v-177h-182v469h182zM125 66q26 52 65 78t99 26h593v-252h-180v178h-60q-44 0 -56 -42l-40 -136h-173l62 178h-55q-29 0 -48.5 -13t-33.5 -39l-64 -126h-183zM51 289h223v58h-103q-35 0 -58.5 23.5t-23.5 58.5v243h192v-254h366v-71h-189v-58
h210v-76h-617v76z" />
    <glyph glyph-name="uniB1B0" unicode="&#xb1b0;" 
d="M271 215h237v-71h-118v-141h144v-76h-473v76h167v141h-67q-35 0 -58.5 23.5t-23.5 58.5v446h192v-457zM565 682h164v-322h68v322h173v-764h-173v351h-68v-351h-164v764z" />
    <glyph glyph-name="uniB1C4" unicode="&#xb1c4;" 
d="M273 418h217v-71h-110v-59h152v-76h-481v76h167v59h-55q-35 0 -58.5 23.5t-23.5 58.5v243h192v-254zM125 66q26 52 65 78t99 26h679v-252h-180v178h-102q-44 0 -56 -42l-40 -136h-173l62 178h-99q-29 0 -48.5 -13t-33.5 -39l-64 -126h-183zM565 682h164v-182h68v182h173
v-469h-173v196h-68v-196h-164v469z" />
    <glyph glyph-name="uniB1CC" unicode="&#xb1cc;" 
d="M951 682v-764h-182v764h182zM52 3h255v141h-136q-35 0 -58.5 23.5t-23.5 58.5v446h192v-457h407v-71h-209v-141h246v-76h-673v76z" />
    <glyph glyph-name="uniB1CD" unicode="&#xb1cd;" 
d="M951 682v-460h-182v460h182zM51 298h248v50h-136q-35 0 -58.5 23.5t-23.5 58.5v242h192v-253h407v-71h-209v-50h255v-76h-675v76zM79 168h873v-250h-186v173h-687v77z" />
    <glyph glyph-name="uniB1D0" unicode="&#xb1d0;" 
d="M951 682v-588h-182v588h182zM51 279h248v54h-136q-35 0 -58.5 23.5t-23.5 58.5v257h192v-268h407v-71h-209v-54h255v-76h-675v76zM101 154h182v-160h664v-76h-786q-60 0 -60 60v176z" />
    <glyph glyph-name="uniB1D4" unicode="&#xb1d4;" 
d="M951 682v-408h-182v408h182zM51 350h247v48h-136q-35 0 -58.5 23.5t-23.5 58.5v192h192v-203h407v-71h-209v-48h256v-76h-675v76zM96 112h676v44h-676v74h858v-189h-676v-44h678v-79h-800q-60 0 -60 60v134z" />
    <glyph glyph-name="uniB1DC" unicode="&#xb1dc;" 
d="M951 682v-434h-182v434h182zM51 324h249v50h-136q-35 0 -58.5 23.5t-23.5 58.5v216h192v-227h407v-71h-209v-50h254v-76h-675v76zM94 204h856v-286h-736q-59 0 -89.5 31t-30.5 94v161zM276 37q0 -40 40 -40h452v131h-492v-91z" />
    <glyph glyph-name="uniB1DD" unicode="&#xb1dd;" 
d="M951 682v-422h-182v422h182zM51 336h244v50h-136q-35 0 -58.5 23.5t-23.5 58.5v204h192v-215h407v-71h-209v-50h249v-76h-665v76zM93 220h182v-64h494v64h182v-302h-738q-59 0 -89.5 31t-30.5 94v177zM275 37q0 -40 40 -40h454v82h-494v-42z" />
    <glyph glyph-name="uniB1DF" unicode="&#xb1df;" 
d="M951 682v-466h-182v466h182zM51 292h250v56h-136q-35 0 -58.5 23.5t-23.5 58.5v242h192v-253h407v-71h-209v-56h253v-76h-675v76zM137 66q26 52 65 78t99 26h647v-252h-180v178h-376q-29 0 -48.5 -13t-33.5 -39l-64 -126h-183z" />
    <glyph glyph-name="uniB1E1" unicode="&#xb1e1;" 
d="M951 682v-449h-182v449h182zM51 309h251v50h-136q-35 0 -58.5 23.5t-23.5 58.5v231h192v-242h407v-71h-209v-50h247v-76h-670v76zM62 53q0 69 41 104.5t119 35.5h579q78 0 119 -35.5t41 -104.5t-41 -104.5t-119 -35.5h-579q-78 0 -119 35.5t-41 104.5zM256 47
q0 -60 60 -60h390q60 0 60 60v12q0 60 -60 60h-390q-60 0 -60 -60v-12z" />
    <glyph glyph-name="uniB1E8" unicode="&#xb1e8;" 
d="M774 5h192v-76h-914v76h202v144h186v-144h148v144h186v-144zM121 672h192v-403h592v-71h-702q-35 0 -58.5 23.5t-23.5 58.5v392z" />
    <glyph glyph-name="uniB1E9" unicode="&#xb1e9;" 
d="M254 295v69h-51q-35 0 -58.5 23.5t-23.5 58.5v226h192v-237h592v-71h-131v-69h192v-76h-914v76h202zM101 176h802v-258h-186v181h-616v77zM588 295v69h-148v-69h148z" />
    <glyph glyph-name="uniB1EC" unicode="&#xb1ec;" 
d="M254 286v76h-51q-35 0 -58.5 23.5t-23.5 58.5v228h192v-239h592v-71h-131v-76h192v-76h-914v76h202zM103 149h182v-155h631v-76h-753q-60 0 -60 60v171zM588 286v76h-148v-76h148z" />
    <glyph glyph-name="uniB1F0" unicode="&#xb1f0;" 
d="M254 351v58h-51q-35 0 -58.5 23.5t-23.5 58.5v181h192v-192h592v-71h-131v-58h192v-76h-914v76h202zM114 234h803v-186h-618v-51h620v-79h-742q-60 0 -60 60v137h618v47h-621v72zM588 351v58h-148v-58h148z" />
    <glyph glyph-name="uniB1F8" unicode="&#xb1f8;" 
d="M254 302v77h-51q-35 0 -58.5 23.5t-23.5 58.5v211h192v-222h592v-71h-131v-77h192v-76h-914v76h202zM104 187h816v-269h-696q-59 0 -89.5 30t-30.5 97v142zM286 34q0 -40 40 -40h412v117h-452v-77zM588 302v77h-148v-77h148z" />
    <glyph glyph-name="uniB1F9" unicode="&#xb1f9;" 
d="M254 314v77h-51q-35 0 -58.5 23.5t-23.5 58.5v199h192v-210h592v-71h-131v-77h192v-76h-914v76h202zM103 198h182v-52h455v52h182v-280h-699q-59 0 -89.5 31t-30.5 94v155zM285 37q0 -40 40 -40h415v72h-455v-32zM588 314v77h-148v-77h148z" />
    <glyph glyph-name="uniB1FB" unicode="&#xb1fb;" 
d="M254 291v77h-51q-35 0 -58.5 23.5t-23.5 58.5v222h192v-233h592v-71h-131v-77h192v-76h-914v76h202zM107 68q20 54 62 79t102 25h645v-254h-180v180h-364q-61 0 -82 -49l-56 -131h-185zM588 291v77h-148v-77h148z" />
    <glyph glyph-name="uniB1FD" unicode="&#xb1fd;" 
d="M254 313v82h-51q-35 0 -58.5 23.5t-23.5 58.5v195h192v-206h592v-71h-131v-82h192v-76h-914v76h202zM104 53q0 69 41 104.5t119 35.5h510q78 0 119 -35.5t41 -104.5t-41 -104.5t-119 -35.5h-510q-78 0 -119 35.5t-41 104.5zM294 47q0 -60 60 -60h331q60 0 60 60v12
q0 60 -60 60h-331q-60 0 -60 -60v-12zM588 313v82h-148v-82h148z" />
    <glyph glyph-name="uniB204" unicode="&#xb204;" 
d="M966 231v-76h-370v-237h-186v237h-358v76h914zM114 672h192v-322h603v-71h-713q-35 0 -58.5 23.5t-23.5 58.5v311z" />
    <glyph glyph-name="uniB205" unicode="&#xb205;" 
d="M966 292v-76h-370v-60h318v-238h-186v161h-627v77h309v60h-358v76h914zM114 672h192v-260h603v-71h-713q-35 0 -58.5 23.5t-23.5 58.5v249z" />
    <glyph glyph-name="uniB208" unicode="&#xb208;" 
d="M966 286v-76h-350v-121h-186v121h-378v76h914zM103 153h182v-159h631v-76h-753q-60 0 -60 60v175zM114 672h192v-262h603v-71h-713q-35 0 -58.5 23.5t-23.5 58.5v251z" />
    <glyph glyph-name="uniB20B" unicode="&#xb20b;" 
d="M966 299v-76h-370v-53h318v-76l-631 -1v-100l636 1v-76l-758 -1q-60 0 -60 60v192h309v54h-358v76h914zM114 672h192v-252h603v-71h-713q-35 0 -58.5 23.5t-23.5 58.5v241z" />
    <glyph glyph-name="uniB20C" unicode="&#xb20c;" 
d="M966 354v-76h-370v-44h321v-186h-618v-51h620v-79h-742q-60 0 -60 60v137h618v47h-621v72h296v44h-358v76h914zM114 672h192v-207h593v-71h-703q-35 0 -58.5 23.5t-23.5 58.5v196z" />
    <glyph glyph-name="uniB20D" unicode="&#xb20d;" 
d="M196 379q-35 0 -58.5 23.5t-23.5 58.5v211h192v-222h593v-71h-703zM52 341h914v-77h-370v-39h307v-307h-186v230h-176v36h-28v-142h-233v-45h235v-79h-343q-60 0 -60 60v131h233v42h-236v72h301v41h-358v77z" />
    <glyph glyph-name="uniB214" unicode="&#xb214;" 
d="M966 322v-76h-370v-59h318v-269h-690q-59 0 -89.5 30t-30.5 97v142h306v59h-358v76h914zM114 672h192v-238h603v-71h-713q-35 0 -58.5 23.5t-23.5 58.5v227zM286 34q0 -40 40 -40h406v117h-446v-77z" />
    <glyph glyph-name="uniB215" unicode="&#xb215;" 
d="M966 315v-76h-370v-58h-186v58h-358v76h914zM101 198h182v-47h455v47h182v-280h-699q-59 0 -89.5 31t-30.5 94v155zM114 672h192v-244h603v-71h-713q-35 0 -58.5 23.5t-23.5 58.5v233zM283 37q0 -40 40 -40h415v77h-455v-37z" />
    <glyph glyph-name="uniB217" unicode="&#xb217;" 
d="M966 293v-76h-370v-45h319v-254h-180v180h-363q-61 0 -82 -49l-56 -131h-185l58 150q20 54 62 79t102 25h139v45h-358v76h914zM114 672h192v-263h593v-71h-703q-35 0 -58.5 23.5t-23.5 58.5v252z" />
    <glyph glyph-name="uniB219" unicode="&#xb219;" 
d="M966 318v-76h-362v-49h187q78 0 119 -35.5t41 -104.5t-41 -104.5t-119 -35.5h-544q-78 0 -119 35.5t-41 104.5t41 104.5t119 35.5h171v49h-366v76h914zM114 672h192v-238h603v-71h-713q-35 0 -58.5 23.5t-23.5 58.5v227zM277 47q0 -60 60 -60h365q60 0 60 60v12
q0 60 -60 60h-365q-60 0 -60 -60v-12z" />
    <glyph glyph-name="uniB21D" unicode="&#xb21d;" 
d="M283 447h622v-71h-732q-35 0 -58.5 23.5t-23.5 58.5v214h192v-225zM46 340h908v-76h-338v-42h300v-67h-622v-47h615v-71h-615v-46h622v-73h-744q-60 0 -60 60v244h318v42h-384v76z" />
    <glyph glyph-name="uniB220" unicode="&#xb220;" 
d="M951 682v-764h-182v89h-206v76h206v599h182zM51 216h670v-76h-237v-222h-184v222h-249v76zM91 672h192v-345h392v-71h-502q-35 0 -58.5 23.5t-23.5 58.5v334z" />
    <glyph glyph-name="uniB234" unicode="&#xb234;" 
d="M951 682v-472h-182v253h-184v76h184v143h182zM125 66q26 52 65 78t99 26h11v40h-249v76h683v-76h-250v-40h466v-252h-180v178h-92q-44 0 -56 -42l-40 -136h-173l62 178h-91q-29 0 -48.5 -13t-33.5 -39l-64 -126h-183zM93 672h192v-276h392v-71h-502q-35 0 -58.5 23.5
t-23.5 58.5v265z" />
    <glyph glyph-name="uniB23C" unicode="&#xb23c;" 
d="M274 328h220v-71h-330q-35 0 -58.5 23.5t-23.5 58.5v333h192v-344zM51 218h478v-76h-143v-224h-184v224h-151v76zM446 75h127v607h164v-764h-164v81h-127v76zM797 682h173v-764h-173v764z" />
    <glyph glyph-name="uniB258" unicode="&#xb258;" 
d="M951 682v-764h-182v764h182zM51 216h670v-76h-222v-222h-184v222h-264v76zM91 672h192v-345h392v-71h-502q-35 0 -58.5 23.5t-23.5 58.5v334z" />
    <glyph glyph-name="uniB25C" unicode="&#xb25c;" 
d="M951 682v-584h-182v584h182zM51 282h670v-76h-165v-111h-184v111h-321v76zM94 672h192v-268h392v-71h-502q-35 0 -58.5 23.5t-23.5 58.5v257zM101 154h182v-160h674v-76h-796q-60 0 -60 60v176z" />
    <glyph glyph-name="uniB260" unicode="&#xb260;" 
d="M951 682v-408h-182v408h182zM51 350h670v-76h-182v-44h412v-189h-673v-44h675v-79h-797q-60 0 -60 60v134h673v44h-673v74h259v44h-304v76zM94 672h192v-211h392v-71h-502q-35 0 -58.5 23.5t-23.5 58.5v200z" />
    <glyph glyph-name="uniB268" unicode="&#xb268;" 
d="M951 682v-433h-182v433h182zM51 325h670v-76h-132v-45h364v-286h-739q-59 0 -89.5 31t-30.5 94v161h311v45h-354v76zM91 672h192v-233h382v-71h-492q-35 0 -58.5 23.5t-23.5 58.5v222zM276 37q0 -40 40 -40h455v131h-495v-91z" />
    <glyph glyph-name="uniB269" unicode="&#xb269;" 
d="M951 682v-421h-182v421h182zM51 337h670v-76h-160v-63h-184v63h-326v76zM92 672h192v-226h372v-71h-482q-35 0 -58.5 23.5t-23.5 58.5v215zM93 220h182v-64h494v64h182v-302h-738q-59 0 -89.5 31t-30.5 94v177zM275 37q0 -40 40 -40h454v82h-494v-42z" />
    <glyph glyph-name="uniB274" unicode="&#xb274;" 
d="M306 338h585v-71h-695q-35 0 -58.5 23.5t-23.5 58.5v323h192v-334zM46 220h908v-76h-158v-226h-190v226h-185l-92 -228h-190l92 228h-185v76z" />
    <glyph glyph-name="uniB275" unicode="&#xb275;" 
d="M966 309v-76h-228v-77h176v-238h-186v161h-627v77h161v77h-210v76h914zM114 672h192v-248h603v-71h-713q-35 0 -58.5 23.5t-23.5 58.5v237zM566 156v77h-132v-77h132z" />
    <glyph glyph-name="uniB27B" unicode="&#xb27b;" 
d="M966 318v-76h-211v-72h159v-76l-631 -1v-100l636 1v-76l-758 -1q-60 0 -60 60v192h146v73h-195v76h914zM114 672h192v-238h603v-71h-713q-35 0 -58.5 23.5t-23.5 58.5v227zM583 169v73h-164v-73h164z" />
    <glyph glyph-name="uniB27C" unicode="&#xb27c;" 
d="M966 373v-76h-218v-63h169v-186h-618v-51h620v-79h-742q-60 0 -60 60v137h618v47h-621v72h138v63h-200v76h914zM114 672h192v-187h593v-71h-703q-35 0 -58.5 23.5t-23.5 58.5v176zM576 234v63h-152v-63h152z" />
    <glyph glyph-name="uniB284" unicode="&#xb284;" 
d="M966 341v-76h-228v-78h176v-269h-690q-59 0 -89.5 30t-30.5 97v142h158v78h-210v76h914zM114 672h192v-222h603v-71h-713q-35 0 -58.5 23.5t-23.5 58.5v211zM286 34q0 -40 40 -40h406v117h-446v-77zM566 187v78h-132v-78h132z" />
    <glyph glyph-name="uniB285" unicode="&#xb285;" 
d="M966 343v-76h-228v-64h172v-285h-699q-59 0 -89.5 31t-30.5 94v160h171v64h-210v76h914zM114 672h192v-219h603v-71h-713q-35 0 -58.5 23.5t-23.5 58.5v208zM273 37q0 -40 40 -40h415v53h-455v-13zM728 127v41h-162v99h-132v-99h-161v-41h455z" />
    <glyph glyph-name="uniB289" unicode="&#xb289;" 
d="M966 331v-76h-188v-62h13q78 0 119 -35.5t41 -104.5t-41 -104.5t-119 -35.5h-544q-78 0 -119 35.5t-41 104.5t41 104.5t119 35.5h15v62h-210v76h914zM114 672h192v-224h603v-71h-713q-35 0 -58.5 23.5t-23.5 58.5v213zM277 47q0 -60 60 -60h365q60 0 60 60v12
q0 60 -60 60h-365q-60 0 -60 -60v-12zM606 193v62h-172v-62h172z" />
    <glyph glyph-name="uniB290" unicode="&#xb290;" 
d="M305 239h592v-71h-702q-35 0 -58.5 23.5t-23.5 58.5v422h192v-433zM52 5h914v-76h-914v76z" />
    <glyph glyph-name="uniB291" unicode="&#xb291;" 
d="M966 286v-76h-914v76h914zM101 173h802v-255h-186v178h-616v77zM121 672h192v-274h592v-71h-702q-35 0 -58.5 23.5t-23.5 58.5v263z" />
    <glyph glyph-name="uniB294" unicode="&#xb294;" 
d="M966 254v-71h-914v71h914zM115 140h185v-151h625v-71h-751q-60 0 -60 60zM115 672h192v-304h598v-71h-708q-35 0 -58.5 23.5t-23.5 58.5v293z" />
    <glyph glyph-name="uniB297" unicode="&#xb297;" 
d="M966 288v-76h-914v76h914zM101 173l813 1v-76l-631 -1v-104l636 1v-76l-758 -1q-60 0 -60 60v196zM114 672h192v-272h603v-71h-713q-35 0 -58.5 23.5t-23.5 58.5v261z" />
    <glyph glyph-name="uniB298" unicode="&#xb298;" 
d="M966 354v-76h-914v76h914zM114 234h803v-186h-618v-51h620v-79h-742q-60 0 -60 60v137h618v47h-621v72zM114 672h192v-205h603v-71h-713q-35 0 -58.5 23.5t-23.5 58.5v194z" />
    <glyph glyph-name="uniB299" unicode="&#xb299;" 
d="M306 444h603v-71h-713q-35 0 -58.5 23.5t-23.5 58.5v217h192v-228zM52 337h914v-77h-914v77zM109 223h404v-183h-233v-43h235v-79h-343q-60 0 -60 60v129h233v44h-236v72zM541 225h362v-307h-186v230h-176v77z" />
    <glyph glyph-name="uniB29A" unicode="&#xb29a;" 
d="M283 446h622v-71h-732q-35 0 -58.5 23.5t-23.5 58.5v215h192v-226zM52 334h914v-77h-914v77zM109 108h232v36h-232v72h389v-176h-232v-44h234v-78h-331q-60 0 -60 60v130zM547 220h362v-303h-362v303zM767 -6v149h-78v-149h78z" />
    <glyph glyph-name="uniB2A0" unicode="&#xb2a0;" 
d="M966 307v-76h-914v76h914zM104 187h810v-269h-690q-59 0 -89.5 30t-30.5 97v142zM114 672h192v-251h603v-71h-713q-35 0 -58.5 23.5t-23.5 58.5v240zM286 34q0 -40 40 -40h406v117h-446v-77z" />
    <glyph glyph-name="uniB2A1" unicode="&#xb2a1;" 
d="M966 313v-76h-914v76h914zM101 198h182v-47h455v47h182v-280h-699q-59 0 -89.5 31t-30.5 94v155zM114 672h192v-247h603v-71h-713q-35 0 -58.5 23.5t-23.5 58.5v236zM283 37q0 -40 40 -40h415v77h-455v-37z" />
    <glyph glyph-name="uniB2A3" unicode="&#xb2a3;" 
d="M966 297v-76h-914v76h914zM107 68q20 54 62 79t102 25h640v-254h-180v180h-359q-61 0 -82 -49l-56 -131h-185zM118 672h192v-259h596v-71h-706q-35 0 -58.5 23.5t-23.5 58.5v248z" />
    <glyph glyph-name="uniB2A5" unicode="&#xb2a5;" 
d="M966 313v-76h-914v76h914zM87 53q0 69 41 104.5t119 35.5h544q78 0 119 -35.5t41 -104.5t-41 -104.5t-119 -35.5h-544q-78 0 -119 35.5t-41 104.5zM114 672h192v-244h603v-71h-713q-35 0 -58.5 23.5t-23.5 58.5v233zM277 47q0 -60 60 -60h365q60 0 60 60v12q0 60 -60 60
h-365q-60 0 -60 -60v-12z" />
    <glyph glyph-name="uniB2A6" unicode="&#xb2a6;" 
d="M929 105h-62v-187h-180v187h-222q-29 0 -46.5 -13t-35.5 -39l-94 -135h-187l104 157q10 16 21 30h-139v74h841v-74zM52 293h914v-76h-914v76zM114 672h192v-263h603v-71h-713q-35 0 -58.5 23.5t-23.5 58.5v252z" />
    <glyph glyph-name="uniB2A7" unicode="&#xb2a7;" 
d="M949 78h-62v-160h-180v160h-252q-29 0 -45.5 -14t-36.5 -38l-94 -108h-187l104 130l25 30h-143v74h341v67h186v-67h344v-74zM52 324h914v-76h-914v76zM114 672h192v-237h603v-71h-713q-35 0 -58.5 23.5t-23.5 58.5v226z" />
    <glyph glyph-name="uniB2AA" unicode="&#xb2aa;" 
d="M283 452h622v-71h-732q-35 0 -58.5 23.5t-23.5 58.5v209h192v-220zM46 344h908v-76h-908v76zM101 -11h500l20 91l-119 -55h-191q-22 0 -36.5 8.5t-19.5 22.5l-34 103h-120v71h819v-71h-504l32 -91l110 56h206q26 0 36.5 -10.5t8.5 -23.5l-20 -101h131v-71h-819v71z" />
    <glyph glyph-name="uniB2AB" unicode="&#xb2ab;" 
d="M299 39q-8 0 -14 -6t-6 -14v-9q0 -8 6 -14t14 -6h403q8 0 14 6t6 14v9q0 8 -6 14t-14 6h-403zM46 386h908v-76h-908v76zM83 227h326v57h182v-57h326v-76h-834v76zM88 15q0 44 28.5 72.5t73.5 28.5h621q45 0 73.5 -28.5t28.5 -72.5q0 -45 -28.5 -73.5t-73.5 -28.5h-621
q-45 0 -73.5 28.5t-28.5 73.5zM91 672h192v-179h622v-71h-732q-35 0 -58.5 23.5t-23.5 58.5v168z" />
    <glyph glyph-name="uniB2AC" unicode="&#xb2ac;" 
d="M951 682v-764h-182v764h182zM52 3h677v-76h-677v76zM89 672h192v-488h407v-71h-517q-35 0 -58.5 23.5t-23.5 58.5v477z" />
    <glyph glyph-name="uniB2B0" unicode="&#xb2b0;" 
d="M951 682v-588h-182v588h182zM51 279h665v-76h-665v76zM89 672h192v-274h377v-71h-487q-35 0 -58.5 23.5t-23.5 58.5v263zM101 154h182v-160h664v-76h-786q-60 0 -60 60v176z" />
    <glyph glyph-name="uniB2B4" unicode="&#xb2b4;" 
d="M951 682v-410h-182v410h182zM51 348h672v-76h-672v76zM89 672h192v-214h387v-71h-497q-35 0 -58.5 23.5t-23.5 58.5v203zM96 112h676v44h-676v74h858v-189h-676v-44h678v-79h-800q-60 0 -60 60v134z" />
    <glyph glyph-name="uniB2BC" unicode="&#xb2bc;" 
d="M951 682v-435h-182v435h182zM53 323h655v-76h-655v76zM89 672h192v-234h377v-71h-487q-35 0 -58.5 23.5t-23.5 58.5v223zM94 204h856v-286h-736q-59 0 -89.5 31t-30.5 94v161zM276 37q0 -40 40 -40h452v131h-492v-91z" />
    <glyph glyph-name="uniB2BF" unicode="&#xb2bf;" 
d="M951 682v-469h-182v469h182zM51 289h665v-76h-665v76zM137 66q26 52 65 78t99 26h647v-252h-180v178h-376q-29 0 -48.5 -13t-33.5 -39l-64 -126h-183zM79 672h192v-270h397v-71h-507q-35 0 -58.5 23.5t-23.5 58.5v259z" />
    <glyph glyph-name="uniB2C1" unicode="&#xb2c1;" 
d="M951 682v-453h-182v453h182zM51 305h665v-76h-665v76zM62 53q0 69 41 104.5t119 35.5h579q78 0 119 -35.5t41 -104.5t-41 -104.5t-119 -35.5h-579q-78 0 -119 35.5t-41 104.5zM89 672h192v-254h387v-71h-497q-35 0 -58.5 23.5t-23.5 58.5v243zM256 47q0 -60 60 -60h390
q60 0 60 60v12q0 60 -60 60h-390q-60 0 -60 -60v-12z" />
    <glyph glyph-name="uniB2C8" unicode="&#xb2c8;" 
d="M951 682v-764h-182v764h182zM89 672h192v-676h380v-71h-490q-35 0 -58.5 23.5t-23.5 58.5v665z" />
    <glyph glyph-name="uniB2C9" unicode="&#xb2c9;" 
d="M951 682v-461h-182v461h182zM89 672h192v-375h401v-71h-511q-35 0 -58.5 23.5t-23.5 58.5v364zM114 168h838v-250h-186v173h-652v77z" />
    <glyph glyph-name="uniB2CC" unicode="&#xb2cc;" 
d="M294 172v-178h661v-76h-783q-60 0 -60 60v194h182zM89 672h192v-373h392v-71h-502q-35 0 -58.5 23.5t-23.5 58.5v362zM769 682h182v-548h-182v548z" />
    <glyph glyph-name="uniB2CF" unicode="&#xb2cf;" 
d="M952 177v-76l-659 -1v-107l664 1v-76l-786 -1q-60 0 -60 60v199zM89 672h192v-371h382v-71h-492q-35 0 -58.5 23.5t-23.5 58.5v360zM769 682h182v-459h-182v459z" />
    <glyph glyph-name="uniB2D0" unicode="&#xb2d0;" 
d="M951 682v-400h-182v400h182zM89 672h192v-317h401v-71h-511q-35 0 -58.5 23.5t-23.5 58.5v306zM116 117h656v50h-656v74h838v-195h-656v-49h658v-79h-780q-60 0 -60 60v139z" />
    <glyph glyph-name="uniB2D2" unicode="&#xb2d2;" 
d="M951 682v-405h-182v405h182zM89 672h192v-322h401v-71h-511q-35 0 -58.5 23.5t-23.5 58.5v311zM116 115h238v48h-238v74h410v-193h-238v-47h240v-79h-352q-60 0 -60 60v137zM582 238h370v-320h-370v320zM810 -11v178h-86v-178h86z" />
    <glyph glyph-name="uniB2D8" unicode="&#xb2d8;" 
d="M951 682v-426h-182v426h182zM89 672h192v-345h401v-71h-511q-35 0 -58.5 23.5t-23.5 58.5v334zM94 204h856v-286h-736q-59 0 -89.5 31t-30.5 94v161zM276 37q0 -40 40 -40h452v131h-492v-91z" />
    <glyph glyph-name="uniB2D9" unicode="&#xb2d9;" 
d="M951 220v-302h-738q-59 0 -89.5 31t-30.5 94v177h182v-64h494v64h182zM89 672h192v-336h401v-71h-511q-35 0 -58.5 23.5t-23.5 58.5v325zM275 37q0 -40 40 -40h454v82h-494v-42zM769 682h182v-418h-182v418z" />
    <glyph glyph-name="uniB2DB" unicode="&#xb2db;" 
d="M951 682v-459h-182v459h182zM137 66q26 52 65 78t99 26h647v-252h-180v178h-376q-29 0 -48.5 -13t-33.5 -39l-64 -126h-183zM89 672h192v-373h401v-71h-511q-35 0 -58.5 23.5t-23.5 58.5v362z" />
    <glyph glyph-name="uniB2DD" unicode="&#xb2dd;" 
d="M951 682v-443h-182v443h182zM76 53q0 69 41 104.5t119 35.5h569q78 0 119 -35.5t41 -104.5t-41 -104.5t-119 -35.5h-569q-78 0 -119 35.5t-41 104.5zM89 672h192v-358h401v-71h-511q-35 0 -58.5 23.5t-23.5 58.5v347zM270 47q0 -60 60 -60h380q60 0 60 60v12q0 60 -60 60
h-380q-60 0 -60 -60v-12z" />
    <glyph glyph-name="uniB2DE" unicode="&#xb2de;" 
d="M951 682v-436h-182v436h182zM89 672h192v-352h401v-71h-511q-35 0 -58.5 23.5t-23.5 58.5v341zM94 196h865v-74h-62v-204h-180v204h-252q-29 0 -47 -12.5t-35 -39.5l-94 -152h-187l104 174q5 8 9.5 15.5t9.5 14.5h-131v74z" />
    <glyph glyph-name="uniB2E0" unicode="&#xb2e0;" 
d="M951 682v-420h-182v420h182zM89 672h192v-333h401v-71h-511q-35 0 -58.5 23.5t-23.5 58.5v322zM104 217h846v-299h-186v77h-650v77h650v68h-660v77z" />
    <glyph glyph-name="uniB2E2" unicode="&#xb2e2;" 
d="M624 -11l22 96l-119 -55h-191q-22 0 -36.5 8.5t-19.5 22.5l-36 108h-123v71h829v-71h-511l34 -96l110 56h206q26 0 36.5 -10.5t8.5 -23.5l-21 -106h137v-71h-829v71h503zM89 672h192v-321h401v-71h-511q-35 0 -58.5 23.5t-23.5 58.5v310zM769 682h182v-402h-182v402z" />
    <glyph glyph-name="uniB2E4" unicode="&#xb2e4;" 
d="M619 672v-76h-356v-595h371v-76h-463q-44 0 -67 23t-23 67v657h538zM699 682h182v-316h104v-81h-104v-367h-182v764z" />
    <glyph glyph-name="uniB2E5" unicode="&#xb2e5;" 
d="M634 672v-76h-381v-303h381v-76h-473q-44 0 -67 23t-23 67v365h563zM77 168h808v-250h-186v173h-622v77zM699 682h182v-201h104v-81h-104v-185h-182v467z" />
    <glyph glyph-name="uniB2E6" unicode="&#xb2e6;" 
d="M634 672v-76h-381v-295h381v-76h-473q-44 0 -67 23t-23 67v357h563zM87 172h798v-254h-186v177h-211v-177h-186v177h-215v77zM699 682h182v-196h104v-81h-104v-186h-182v463z" />
    <glyph glyph-name="uniB2E8" unicode="&#xb2e8;" 
d="M885 682v-206h104v-81h-104v-279h-182v566h182zM71 672h552v-76h-370v-296h370v-76h-462q-44 0 -67 23t-23 67v358zM101 170h182v-176h607v-76h-729q-60 0 -60 60v192z" />
    <glyph glyph-name="uniB2EB" unicode="&#xb2eb;" 
d="M634 672v-76h-381v-257h381v-76h-473q-44 0 -67 23t-23 67v319h563zM85 204h796v-76h-614v-134h616v-76h-708q-44 0 -67 23t-23 67v196zM699 682h182v-187h104v-81h-104v-155h-182v423z" />
    <glyph glyph-name="uniB2EC" unicode="&#xb2ec;" 
d="M709 120v50h-614v74h796v-195h-614v-52h616v-79h-738q-60 0 -60 60v142h614zM71 672h563v-76h-381v-230h381v-76h-473q-44 0 -67 23t-23 67v292zM699 682h182v-167h104v-81h-104v-145h-182v393z" />
    <glyph glyph-name="uniB2ED" unicode="&#xb2ed;" 
d="M634 672v-76h-381v-244h381v-76h-473q-44 0 -67 23t-23 67v306h563zM101 115h214v48h-214v71h385v-185h-214v-58h224v-73h-335q-60 0 -60 60v137zM531 232h346v-308h-180v231h-166v77zM699 682h182v-176h104v-81h-104v-150h-182v407z" />
    <glyph glyph-name="uniB2EE" unicode="&#xb2ee;" 
d="M634 672v-76h-381v-237h381v-76h-473q-44 0 -67 23t-23 67v299h563zM95 114h209v47h-209v71h380v-184h-209v-57h212v-73h-323q-60 0 -60 60v136zM527 234h359v-312h-359v312zM738 -7v170h-63v-170h63zM699 682h182v-167h104v-81h-104v-156h-182v404z" />
    <glyph glyph-name="uniB2EF" unicode="&#xb2ef;" 
d="M634 672v-76h-381v-233h381v-76h-473q-44 0 -67 23t-23 67v295h563zM95 114h209v47h-209v71h380v-184h-209v-57h212v-73h-323q-60 0 -60 60v136zM525 231h146v-70h69v70h146v-309h-361v309zM740 -7v97h-69v-97h69zM699 682h182v-168h104v-81h-104v-151h-182v400z" />
    <glyph glyph-name="uniB2F3" unicode="&#xb2f3;" 
d="M634 672v-76h-381v-223h381v-76h-473q-44 0 -67 23t-23 67v285h563zM95 114h209v47h-209v71h380v-184h-209v-57h212v-73h-323q-60 0 -60 60v136zM514 217h123v43h138v-43h123v-73h-384v73zM519 20q0 45 23.5 70.5t68.5 25.5h191q45 0 68.5 -25.5t23.5 -70.5v-15
q0 -93 -92 -93h-191q-92 0 -92 93v15zM639 5q0 -20 20 -20h95q20 0 20 20v18q0 20 -20 20h-95q-20 0 -20 -20v-18zM699 682h182v-158h104v-81h-104v-153h-182v392z" />
    <glyph glyph-name="uniB2F4" unicode="&#xb2f4;" 
d="M634 672v-76h-381v-263h381v-76h-473q-44 0 -67 23t-23 67v325h563zM94 204h786v-286h-666q-59 0 -89.5 31t-30.5 94v161zM276 37q0 -40 40 -40h382v131h-422v-91zM699 682h182v-165h104v-81h-104v-183h-182v429z" />
    <glyph glyph-name="uniB2F5" unicode="&#xb2f5;" 
d="M884 220v-302h-667q-59 0 -89.5 31t-30.5 94v177h180v-64h427v64h180zM71 672h563v-76h-381v-255h381v-76h-473q-44 0 -67 23t-23 67v317zM277 37q0 -40 40 -40h387v82h-427v-42zM699 682h182v-162h104v-81h-104v-177h-182v420z" />
    <glyph glyph-name="uniB2F7" unicode="&#xb2f7;" 
d="M889 -82h-180v178h-321q-29 0 -48.5 -12.5t-33.5 -39.5l-67 -126h-183l77 148q27 52 65.5 78t98.5 26h592v-252zM71 672h563v-76h-381v-302h381v-76h-473q-44 0 -67 23t-23 67v364zM699 682h182v-196h104v-81h-104v-190h-182v467z" />
    <glyph glyph-name="uniB2F8" unicode="&#xb2f8;" 
d="M634 672v-76h-381v-302h381v-76h-473q-44 0 -67 23t-23 67v364h563zM125 66q26 52 65 78t99 26h590v-252h-180v178h-55q-44 0 -56 -42l-40 -136h-173l62 178h-57q-29 0 -48.5 -13t-33.5 -39l-64 -126h-183zM699 682h182v-196h104v-81h-104v-189h-182v466z" />
    <glyph glyph-name="uniB2F9" unicode="&#xb2f9;" 
d="M325 119q-60 0 -60 -60v-12q0 -60 60 -60h330q60 0 60 60v12q0 60 -60 60h-330zM71 53q0 69 41 104.5t119 35.5h519q78 0 119 -35.5t41 -104.5t-41 -104.5t-119 -35.5h-519q-78 0 -119 35.5t-41 104.5zM71 672h563v-76h-381v-270h381v-76h-473q-44 0 -67 23t-23 67v332z
M699 682h182v-166h104v-81h-104v-188h-182v435z" />
    <glyph glyph-name="uniB2FA" unicode="&#xb2fa;" 
d="M911 110h-64v-192h-180v192h-218q-29 0 -47 -13.5t-35 -38.5l-94 -140h-187l104 162q10 16 21 30h-135v74h835v-74zM71 672h563v-76h-381v-283h381v-76h-473q-44 0 -67 23t-23 67v345zM699 682h182v-178h104v-81h-104v-191h-182v450z" />
    <glyph glyph-name="uniB2FB" unicode="&#xb2fb;" 
d="M917 95h-60v-177h-180v177h-204q-29 0 -46 -13t-36 -39l-94 -125h-187l104 147l22 30h-148v74h355v57h182v-57h292v-74zM71 672h563v-76h-381v-251h381v-76h-473q-44 0 -67 23t-23 67v313zM699 682h182v-168h104v-81h-104v-219h-182v468z" />
    <glyph glyph-name="uniB2FD" unicode="&#xb2fd;" 
d="M887 228v-72h-616v-40h613v-76h-613v-44h618v-78h-740q-60 0 -60 60v250h798zM71 672h563v-76h-381v-241h381v-76h-473q-44 0 -67 23t-23 67v303zM699 682h182v-156h104v-81h-104v-168h-182v405z" />
    <glyph glyph-name="uniB2FF" unicode="&#xb2ff;" 
d="M281 39q-8 0 -14 -6t-6 -14v-9q0 -8 6 -14t14 -6h398q8 0 14 6t6 14v9q0 8 -6 14t-14 6h-398zM65 230h332v57h182v-57h315v-76h-829v76zM70 15q0 44 28.5 72.5t73.5 28.5h616q45 0 73.5 -28.5t28.5 -72.5q0 -45 -28.5 -73.5t-73.5 -28.5h-616q-45 0 -73.5 28.5
t-28.5 73.5zM71 672h563v-76h-381v-195h381v-76h-473q-44 0 -67 23t-23 67v257zM699 682h182v-167h104v-81h-104v-163h-182v411z" />
    <glyph glyph-name="uniB300" unicode="&#xb300;" 
d="M731 682v-302h66v302h173v-764h-173v371h-66v-371h-164v764h164zM81 672h427v-76h-245v-595h245v-76h-337q-44 0 -67 23t-23 67v657z" />
    <glyph glyph-name="uniB301" unicode="&#xb301;" 
d="M729 680v-179h68v179h173v-465h-173v195h-68v-195h-164v465h164zM81 672h427v-76h-245v-298h245v-76h-337q-44 0 -67 23t-23 67v360zM95 168h877v-250h-186v173h-691v77z" />
    <glyph glyph-name="uniB304" unicode="&#xb304;" 
d="M270 177v-183h703v-76h-825q-60 0 -60 60v199h182zM81 672h427v-76h-245v-294h245v-76h-337q-44 0 -67 23t-23 67v356zM565 680h164v-189h68v189h173v-563h-173v283h-68v-283h-164v563z" />
    <glyph glyph-name="uniB308" unicode="&#xb308;" 
d="M789 116v46h-706v74h888v-191h-706v-48h708v-79h-830q-60 0 -60 60v138h706zM81 672h431v-76h-249v-235h249v-76h-341q-44 0 -67 23t-23 67v297zM570 680h164v-155h63v155h173v-397h-173v151h-63v-151h-164v397z" />
    </font>
</defs>
</svg>
